LinguisticsPro-Bold.ufo
<glyph name="exclam" format="2">
  <advance width="280"/>
  <unicode hex="0021"/>
  <outline>
    <contour>
      <point x="47" y="81" type="curve" smooth="yes"/>
      <point x="47" y="136"/>
      <point x="85" y="174"/>
      <point x="140" y="174" type="curve" smooth="yes"/>
      <point x="195" y="174"/>
      <point x="233" y="136"/>
      <point x="233" y="81" type="curve" smooth="yes"/>
      <point x="233" y="26"/>
      <point x="195" y="-12"/>
      <point x="140" y="-12" type="curve" smooth="yes"/>
      <point x="85" y="-12"/>
      <point x="47" y="26"/>
    </contour>
    <contour>
      <point x="108" y="219" type="line"/>
      <point x="58" y="592" type="line" smooth="yes"/>
      <point x="56" y="610"/>
      <point x="54" y="629"/>
      <point x="54" y="643" type="curve" smooth="yes"/>
      <point x="54" y="685"/>
      <point x="73" y="707"/>
      <point x="140" y="707" type="curve" smooth="yes"/>
      <point x="208" y="707"/>
      <point x="227" y="685"/>
      <point x="227" y="643" type="curve" smooth="yes"/>
      <point x="227" y="629"/>
      <point x="225" y="609"/>
      <point x="223" y="592" type="curve" smooth="yes"/>
      <point x="172" y="219" type="line"/>
    </contour>
  </outline>
</glyph>
<glyph name="numbersign" format="2">
  <advance width="560"/>
  <unicode hex="0023"/>
  <outline>
    <contour>
      <point x="14" y="219" type="line"/>
      <point x="14" y="291" type="line"/>
      <point x="131" y="291" type="line"/>
      <point x="163" y="398" type="line"/>
      <point x="67" y="398" type="line"/>
      <point x="67" y="470" type="line"/>
      <point x="185" y="470" type="line"/>
      <point x="244" y="668" type="line"/>
      <point x="320" y="668" type="line"/>
      <point x="261" y="470" type="line"/>
      <point x="374" y="470" type="line"/>
      <point x="433" y="668" type="line"/>
      <point x="508" y="668" type="line"/>
      <point x="449" y="470" type="line"/>
      <point x="547" y="470" type="line"/>
      <point x="547" y="398" type="line"/>
      <point x="427" y="398" type="line"/>
      <point x="395" y="291" type="line"/>
      <point x="494" y="291" type="line"/>
      <point x="494" y="219" type="line"/>
      <point x="374" y="219" type="line"/>
      <point x="309" y="0" type="line"/>
      <point x="233" y="0" type="line"/>
      <point x="299" y="219" type="line"/>
      <point x="187" y="219" type="line"/>
      <point x="121" y="0" type="line"/>
      <point x="44" y="0" type="line"/>
      <point x="110" y="219" type="line"/>
    </contour>
    <contour>
      <point x="208" y="291" type="line"/>
      <point x="320" y="291" type="line"/>
      <point x="352" y="398" type="line"/>
      <point x="240" y="398" type="line"/>
    </contour>
  </outline>
</glyph>
<glyph name="parenleft" format="2">
  <advance width="365"/>
  <unicode hex="0028"/>
  <outline>
    <contour>
      <point x="99" y="282" type="curve" smooth="yes"/>
      <point x="99" y="441"/>
      <point x="132" y="694"/>
      <point x="339" y="699" type="curve"/>
      <point x="344" y="665" type="line"/>
      <point x="228" y="630"/>
      <point x="200" y="405"/>
      <point x="200" y="282" type="curve" smooth="yes"/>
      <point x="200" y="159"/>
      <point x="228" y="-66"/>
      <point x="344" y="-101" type="curve"/>
      <point x="339" y="-135" type="line"/>
      <point x="132" y="-130"/>
      <point x="99" y="123"/>
    </contour>
  </outline>
</glyph>
<glyph name="asterisk" format="2">
  <advance width="442"/>
  <unicode hex="002A"/>
  <outline>
    <contour>
      <point x="41" y="438" type="curve" smooth="yes"/>
      <point x="41" y="453"/>
      <point x="50" y="467"/>
      <point x="69" y="473" type="curve" smooth="yes"/>
      <point x="167" y="503" type="line" smooth="yes"/>
      <point x="173" y="505"/>
      <point x="176" y="509"/>
      <point x="176" y="513" type="curve" smooth="yes"/>
      <point x="176" y="518"/>
      <point x="173" y="523"/>
      <point x="166" y="525" type="curve"/>
      <point x="69" y="558" type="line" smooth="yes"/>
      <point x="50" y="564"/>
      <point x="40" y="575"/>
      <point x="40" y="590" type="curve" smooth="yes"/>
      <point x="40" y="611"/>
      <point x="62" y="644"/>
      <point x="85" y="644" type="curve" smooth="yes"/>
      <point x="93" y="644"/>
      <point x="102" y="640"/>
      <point x="110" y="633" type="curve"/>
      <point x="180" y="568" type="line"/>
      <point x="184" y="564"/>
      <point x="188" y="562"/>
      <point x="191" y="562" type="curve" smooth="yes"/>
      <point x="196" y="562"/>
      <point x="199" y="570"/>
      <point x="199" y="577" type="curve"/>
      <point x="178" y="663" type="line"/>
      <point x="177" y="666"/>
      <point x="176" y="670"/>
      <point x="176" y="675" type="curve" smooth="yes"/>
      <point x="176" y="696"/>
      <point x="193" y="707"/>
      <point x="221" y="707" type="curve" smooth="yes"/>
      <point x="249" y="707"/>
      <point x="266" y="696"/>
      <point x="266" y="676" type="curve" smooth="yes"/>
      <point x="266" y="672"/>
      <point x="266" y="669"/>
      <point x="265" y="665" type="curve"/>
      <point x="243" y="577" type="line"/>
      <point x="243" y="567"/>
      <point x="246" y="563"/>
      <point x="251" y="563" type="curve" smooth="yes"/>
      <point x="254" y="563"/>
      <point x="258" y="564"/>
      <point x="262" y="568" type="curve"/>
      <point x="332" y="633" type="line"/>
      <point x="341" y="640"/>
      <point x="349" y="644"/>
      <point x="357" y="644" type="curve" smooth="yes"/>
      <point x="380" y="644"/>
      <point x="402" y="611"/>
      <point x="402" y="590" type="curve" smooth="yes"/>
      <point x="402" y="575"/>
      <point x="392" y="564"/>
      <point x="373" y="558" type="curve" smooth="yes"/>
      <point x="277" y="525" type="line"/>
      <point x="270" y="523"/>
      <point x="267" y="518"/>
      <point x="267" y="514" type="curve" smooth="yes"/>
      <point x="267" y="509"/>
      <point x="270" y="505"/>
      <point x="276" y="503" type="curve" smooth="yes"/>
      <point x="373" y="473" type="line" smooth="yes"/>
      <point x="392" y="467"/>
      <point x="401" y="454"/>
      <point x="401" y="439" type="curve" smooth="yes"/>
      <point x="401" y="416"/>
      <point x="379" y="382"/>
      <point x="355" y="382" type="curve" smooth="yes"/>
      <point x="345" y="382"/>
      <point x="335" y="388"/>
      <point x="324" y="399" type="curve" smooth="yes"/>
      <point x="262" y="462" type="line"/>
      <point x="259" y="466"/>
      <point x="255" y="467"/>
      <point x="253" y="467" type="curve" smooth="yes"/>
      <point x="247" y="467"/>
      <point x="243" y="462"/>
      <point x="243" y="455" type="curve"/>
      <point x="266" y="364" type="line"/>
      <point x="267" y="359"/>
      <point x="268" y="354"/>
      <point x="268" y="350" type="curve" smooth="yes"/>
      <point x="268" y="330"/>
      <point x="253" y="315"/>
      <point x="221" y="315" type="curve" smooth="yes"/>
      <point x="189" y="315"/>
      <point x="174" y="330"/>
      <point x="174" y="349" type="curve" smooth="yes"/>
      <point x="174" y="354"/>
      <point x="175" y="359"/>
      <point x="176" y="364" type="curve"/>
      <point x="200" y="455" type="line"/>
      <point x="200" y="462"/>
      <point x="196" y="466"/>
      <point x="190" y="466" type="curve" smooth="yes"/>
      <point x="187" y="466"/>
      <point x="184" y="465"/>
      <point x="181" y="462" type="curve" smooth="yes"/>
      <point x="119" y="399" type="line" smooth="yes"/>
      <point x="108" y="388"/>
      <point x="98" y="382"/>
      <point x="87" y="382" type="curve" smooth="yes"/>
      <point x="63" y="382"/>
      <point x="41" y="416"/>
    </contour>
  </outline>
</glyph>
<glyph name="period" format="2">
  <advance width="280"/>
  <unicode hex="002E"/>
  <outline>
    <contour>
      <point x="47" y="81" type="curve" smooth="yes"/>
      <point x="47" y="136"/>
      <point x="85" y="174"/>
      <point x="140" y="174" type="curve" smooth="yes"/>
      <point x="195" y="174"/>
      <point x="233" y="136"/>
      <point x="233" y="81" type="curve" smooth="yes"/>
      <point x="233" y="26"/>
      <point x="195" y="-12"/>
      <point x="140" y="-12" type="curve" smooth="yes"/>
      <point x="85" y="-12"/>
      <point x="47" y="26"/>
    </contour>
  </outline>
</glyph>
<glyph name="slash" format="2">
  <advance width="378"/>
  <unicode hex="002F"/>
  <outline>
    <contour>
      <point x="34" y="-15" type="line"/>
      <point x="244" y="707" type="line"/>
      <point x="344" y="707" type="line"/>
      <point x="134" y="-15" type="line"/>
    </contour>
  </outline>
</glyph>
<glyph name="four" format="2">
  <advance width="560"/>
  <unicode hex="0034"/>
  <outline>
    <contour>
      <point x="19" y="203" type="line"/>
      <point x="108" y="355"/>
      <point x="206" y="512"/>
      <point x="313" y="668" type="curve"/>
      <point x="433" y="668" type="line"/>
      <point x="433" y="242" type="line"/>
      <point x="533" y="242" type="line"/>
      <point x="533" y="173" type="line"/>
      <point x="433" y="173" type="line"/>
      <point x="433" y="75" type="line" smooth="yes"/>
      <point x="433" y="52"/>
      <point x="443" y="44"/>
      <point x="459" y="42" type="curve"/>
      <point x="506" y="38" type="line"/>
      <point x="506" y="0" type="line"/>
      <point x="199" y="0" type="line"/>
      <point x="199" y="38" type="line"/>
      <point x="266" y="43" type="line" smooth="yes"/>
      <point x="281" y="44"/>
      <point x="292" y="52"/>
      <point x="292" y="75" type="curve" smooth="yes"/>
      <point x="292" y="173" type="line"/>
      <point x="38" y="173" type="line"/>
    </contour>
    <contour>
      <point x="123" y="242" type="curve"/>
      <point x="292" y="242" type="line"/>
      <point x="292" y="539" type="line"/>
      <point x="290" y="539" type="line"/>
      <point x="227" y="435"/>
      <point x="170" y="335"/>
    </contour>
  </outline>
</glyph>
<glyph name="eight" format="2">
  <advance width="560"/>
  <unicode hex="0038"/>
  <outline>
    <contour>
      <point x="27" y="185.372" type="curve" smooth="yes"/>
      <point x="27" y="280.644"/>
      <point x="79" y="338.792"/>
      <point x="159" y="362.75" type="curve"/>
      <point x="159" y="364.667" type="line"/>
      <point x="98" y="382"/>
      <point x="52" y="426"/>
      <point x="52" y="505.308" type="curve" smooth="yes"/>
      <point x="52" y="615"/>
      <point x="140" y="680"/>
      <point x="282.666" y="680" type="curve" smooth="yes"/>
      <point x="422" y="680"/>
      <point x="508" y="618"/>
      <point x="508" y="507.104" type="curve" smooth="yes"/>
      <point x="508" y="426"/>
      <point x="462" y="382"/>
      <point x="401" y="363.708" type="curve"/>
      <point x="401" y="361.792" type="line"/>
      <point x="482" y="338.792"/>
      <point x="533" y="280.644"/>
      <point x="533" y="185.294" type="curve" smooth="yes"/>
      <point x="533" y="39.0335"/>
      <point x="413" y="-12"/>
      <point x="281.147" y="-12" type="curve" smooth="yes"/>
      <point x="148" y="-12"/>
      <point x="27" y="40.0403"/>
    </contour>
    <contour>
      <point x="185" y="182.835" type="curve" smooth="yes"/>
      <point x="185" y="97.4228"/>
      <point x="217" y="34"/>
      <point x="280" y="34" type="curve" smooth="yes"/>
      <point x="343" y="34"/>
      <point x="375" y="97.4228"/>
      <point x="375" y="182.834" type="curve" smooth="yes"/>
      <point x="375" y="269.57"/>
      <point x="342" y="334"/>
      <point x="280" y="334" type="curve" smooth="yes"/>
      <point x="218" y="334"/>
      <point x="185" y="269.57"/>
    </contour>
    <contour>
      <point x="200" y="507.094" type="curve" smooth="yes"/>
      <point x="200" y="434"/>
      <point x="231" y="380"/>
      <point x="281.5" y="380" type="curve" smooth="yes"/>
      <point x="332" y="380"/>
      <point x="360" y="434"/>
      <point x="360" y="507.159" type="curve" smooth="yes"/>
      <point x="360" y="579"/>
      <point x="333" y="634"/>
      <point x="281.5" y="634" type="curve" smooth="yes"/>
      <point x="230" y="634"/>
      <point x="200" y="579"/>
    </contour>
  </outline>
</glyph>
<glyph name="semicolon" format="2">
  <advance width="280"/>
  <unicode hex="003B"/>
  <outline>
    <contour>
      <point x="40" y="-138" type="line"/>
      <point x="75" y="-99"/>
      <point x="100" y="-56"/>
      <point x="100" y="-8" type="curve" smooth="yes"/>
      <point x="100" y="40"/>
      <point x="60" y="61"/>
      <point x="60" y="107" type="curve" smooth="yes"/>
      <point x="60" y="144"/>
      <point x="85" y="180"/>
      <point x="134" y="180" type="curve" smooth="yes"/>
      <point x="186" y="180"/>
      <point x="226" y="137"/>
      <point x="226" y="65" type="curve" smooth="yes"/>
      <point x="226" y="-27"/>
      <point x="137" y="-113"/>
      <point x="70" y="-167" type="curve"/>
    </contour>
    <contour>
      <point x="47" y="397" type="curve" smooth="yes"/>
      <point x="47" y="452"/>
      <point x="85" y="490"/>
      <point x="140" y="490" type="curve" smooth="yes"/>
      <point x="195" y="490"/>
      <point x="233" y="452"/>
      <point x="233" y="397" type="curve" smooth="yes"/>
      <point x="233" y="342"/>
      <point x="195" y="304"/>
      <point x="140" y="304" type="curve" smooth="yes"/>
      <point x="85" y="304"/>
      <point x="47" y="342"/>
    </contour>
  </outline>
</glyph>
<glyph name="J" format="2">
  <advance width="386"/>
  <unicode hex="004A"/>
  <outline>
    <contour>
      <point x="6" y="-83" type="line"/>
      <point x="116.07" y="-48.4064"/>
      <point x="122" y="41.0761"/>
      <point x="122" y="146" type="curve" smooth="yes"/>
      <point x="122" y="595" type="line" smooth="yes"/>
      <point x="122" y="646"/>
      <point x="114" y="651"/>
      <point x="43" y="654" type="curve"/>
      <point x="43" y="692" type="line"/>
      <point x="361" y="692" type="line"/>
      <point x="361" y="654" type="line"/>
      <point x="290" y="651"/>
      <point x="282" y="646"/>
      <point x="282" y="595" type="curve" smooth="yes"/>
      <point x="282" y="143" type="line" smooth="yes"/>
      <point x="282" y="-44.2455"/>
      <point x="190.232" y="-114.183"/>
      <point x="12" y="-114" type="curve"/>
    </contour>
  </outline>
</glyph>
<glyph name="K" format="2">
  <advance width="707"/>
  <unicode hex="004B"/>
  <outline>
    <contour>
      <point x="272" y="359" type="line"/>
      <point x="348" y="446"/>
      <point x="422.365" y="533.707"/>
      <point x="493" y="622" type="curve" smooth="yes"/>
      <point x="498.374" y="628.717"/>
      <point x="501" y="634"/>
      <point x="501" y="639" type="curve" smooth="yes"/>
      <point x="501" y="645"/>
      <point x="495.964" y="648.719"/>
      <point x="487" y="650" type="curve" smooth="yes"/>
      <point x="445" y="656" type="line"/>
      <point x="445" y="692" type="line"/>
      <point x="717" y="692" type="line"/>
      <point x="717" y="656" type="line"/>
      <point x="656" y="651"/>
      <point x="636.259" y="642.688"/>
      <point x="605" y="617" type="curve" smooth="yes"/>
      <point x="535.257" y="559.686"/>
      <point x="478" y="500"/>
      <point x="401" y="419" type="curve"/>
      <point x="441" y="352"/>
      <point x="626" y="59"/>
      <point x="719" y="32" type="curve"/>
      <point x="719" y="-5" type="line"/>
      <point x="651" y="-5" type="line" smooth="yes"/>
      <point x="534" y="-5"/>
      <point x="481.052" y="31.0411"/>
      <point x="410" y="120" type="curve" smooth="yes"/>
      <point x="358.052" y="185.041"/>
      <point x="326" y="241"/>
      <point x="274" y="339" type="curve"/>
      <point x="272" y="339" type="line"/>
    </contour>
    <contour>
      <point x="33" y="0" type="line"/>
      <point x="33" y="38" type="line"/>
      <point x="104" y="41"/>
      <point x="112" y="46"/>
      <point x="112" y="97" type="curve" smooth="yes"/>
      <point x="112" y="595" type="line" smooth="yes"/>
      <point x="112" y="646"/>
      <point x="104" y="651"/>
      <point x="33" y="654" type="curve"/>
      <point x="33" y="692" type="line"/>
      <point x="351" y="692" type="line"/>
      <point x="351" y="654" type="line"/>
      <point x="280" y="651"/>
      <point x="272" y="646"/>
      <point x="272" y="595" type="curve" smooth="yes"/>
      <point x="272" y="97" type="line" smooth="yes"/>
      <point x="272" y="46"/>
      <point x="280" y="41"/>
      <point x="351" y="38" type="curve"/>
      <point x="351" y="0" type="line"/>
    </contour>
  </outline>
</glyph>
<glyph name="M" format="2">
  <advance width="918"/>
  <unicode hex="004D"/>
  <outline>
    <contour>
      <point x="23" y="654" type="curve"/>
      <point x="23" y="692" type="line"/>
      <point x="287" y="692" type="line"/>
      <point x="460" y="238" type="line"/>
      <point x="463" y="238" type="line"/>
      <point x="626" y="692" type="line"/>
      <point x="885" y="692" type="line"/>
      <point x="885" y="654" type="line"/>
      <point x="814" y="651"/>
      <point x="806" y="646"/>
      <point x="806" y="595" type="curve" smooth="yes"/>
      <point x="806" y="97" type="line" smooth="yes"/>
      <point x="806" y="46"/>
      <point x="814" y="41"/>
      <point x="885" y="38" type="curve"/>
      <point x="885" y="0" type="line"/>
      <point x="576" y="0" type="line"/>
      <point x="576" y="38" type="line"/>
      <point x="647" y="41"/>
      <point x="655" y="46"/>
      <point x="655" y="97" type="curve" smooth="yes"/>
      <point x="655" y="593" type="line"/>
      <point x="652" y="593" type="line"/>
      <point x="443" y="18" type="line"/>
      <point x="382" y="18" type="line"/>
      <point x="167" y="593" type="line"/>
      <point x="164" y="593" type="line"/>
      <point x="164" y="222" type="line" smooth="yes"/>
      <point x="164" y="110.214"/>
      <point x="170.368" y="50.3734"/>
      <point x="265" y="38" type="curve"/>
      <point x="265" y="0" type="line"/>
      <point x="26" y="0" type="line"/>
      <point x="26" y="38" type="line"/>
      <point x="89.9836" y="50.1643"/>
      <point x="102" y="110.281"/>
      <point x="102" y="222" type="curve" smooth="yes"/>
      <point x="102" y="595" type="line" smooth="yes"/>
      <point x="102" y="646"/>
      <point x="94" y="651"/>
    </contour>
  </outline>
</glyph>
<glyph name="S" format="2">
  <advance width="561"/>
  <unicode hex="0053"/>
  <anchor x="286" y="10" name="cedilla"/>
  <outline>
    <contour>
      <point x="42" y="226" type="line"/>
      <point x="79" y="226" type="line"/>
      <point x="117" y="101"/>
      <point x="193" y="31"/>
      <point x="276" y="31" type="curve" smooth="yes"/>
      <point x="333" y="31"/>
      <point x="382" y="66"/>
      <point x="382" y="138" type="curve" smooth="yes"/>
      <point x="382" y="204"/>
      <point x="340" y="249"/>
      <point x="250" y="287" type="curve" smooth="yes"/>
      <point x="227" y="297" type="line" smooth="yes"/>
      <point x="144" y="334"/>
      <point x="51" y="389"/>
      <point x="51" y="508" type="curve" smooth="yes"/>
      <point x="51" y="620"/>
      <point x="132" y="707"/>
      <point x="298" y="707" type="curve" smooth="yes"/>
      <point x="360" y="707"/>
      <point x="434" y="695"/>
      <point x="487" y="663" type="curve"/>
      <point x="487" y="499" type="line"/>
      <point x="450" y="499" type="line"/>
      <point x="422" y="616"/>
      <point x="362" y="661"/>
      <point x="298" y="661" type="curve" smooth="yes"/>
      <point x="239" y="661"/>
      <point x="195" y="621"/>
      <point x="195" y="563" type="curve" smooth="yes"/>
      <point x="195" y="490"/>
      <point x="263" y="454"/>
      <point x="324" y="428" type="curve" smooth="yes"/>
      <point x="343" y="420" type="line" smooth="yes"/>
      <point x="434" y="382"/>
      <point x="533" y="331"/>
      <point x="533" y="199" type="curve" smooth="yes"/>
      <point x="533" y="95"/>
      <point x="473" y="-15"/>
      <point x="279" y="-15" type="curve" smooth="yes"/>
      <point x="207" y="-15"/>
      <point x="108" y="0"/>
      <point x="57" y="47" type="curve"/>
    </contour>
  </outline>
</glyph>
<glyph name="W" format="2">
  <advance width="933"/>
  <unicode hex="0057"/>
  <outline>
    <contour>
      <point x="-10" y="656" type="curve"/>
      <point x="-10" y="692" type="line"/>
      <point x="277" y="692" type="line"/>
      <point x="277" y="656" type="line"/>
      <point x="231" y="649" type="line" smooth="yes"/>
      <point x="218" y="647"/>
      <point x="210" y="644"/>
      <point x="210" y="630" type="curve" smooth="yes"/>
      <point x="210" y="625"/>
      <point x="211" y="619"/>
      <point x="213" y="611" type="curve" smooth="yes"/>
      <point x="327" y="159" type="line"/>
      <point x="329" y="159" type="line"/>
      <point x="453" y="677" type="line"/>
      <point x="564" y="677" type="line"/>
      <point x="696" y="159" type="line"/>
      <point x="700" y="159" type="line"/>
      <point x="807" y="608" type="line"/>
      <point x="809" y="615"/>
      <point x="810" y="620"/>
      <point x="810" y="625" type="curve" smooth="yes"/>
      <point x="810" y="638"/>
      <point x="803" y="646"/>
      <point x="788" y="648" type="curve" smooth="yes"/>
      <point x="731" y="656" type="line"/>
      <point x="731" y="692" type="line"/>
      <point x="960" y="692" type="line"/>
      <point x="960" y="656" type="line"/>
      <point x="906" y="649"/>
      <point x="896" y="644"/>
      <point x="883" y="598" type="curve" smooth="yes"/>
      <point x="718" y="0" type="line"/>
      <point x="591" y="0" type="line"/>
      <point x="468" y="468" type="line"/>
      <point x="465" y="468" type="line"/>
      <point x="347" y="0" type="line"/>
      <point x="221" y="0" type="line"/>
      <point x="58" y="608" type="line" smooth="yes"/>
      <point x="48" y="644"/>
      <point x="40" y="651"/>
    </contour>
  </outline>
</glyph>
<glyph name="Z" format="2">
  <advance width="614"/>
  <unicode hex="005A"/>
  <outline>
    <contour>
      <point x="0" y="22" type="line"/>
      <point x="407" y="646" type="line"/>
      <point x="280" y="646" type="line" smooth="yes"/>
      <point x="158" y="646"/>
      <point x="120" y="612"/>
      <point x="96" y="496" type="curve"/>
      <point x="58" y="496" type="line"/>
      <point x="58" y="692" type="line"/>
      <point x="592" y="692" type="line"/>
      <point x="605" y="671" type="line"/>
      <point x="196" y="46" type="line"/>
      <point x="357" y="46" type="line" smooth="yes"/>
      <point x="505" y="46"/>
      <point x="530" y="97"/>
      <point x="568" y="209" type="curve"/>
      <point x="606" y="209" type="line"/>
      <point x="594" y="0" type="line"/>
      <point x="13" y="0" type="line"/>
    </contour>
  </outline>
</glyph>
<glyph name="asciicircum" format="2">
  <advance width="600"/>
  <unicode hex="005E"/>
  <outline>
    <contour>
      <point x="56" y="215" type="line"/>
      <point x="253" y="668" type="line"/>
      <point x="352" y="668" type="line"/>
      <point x="544" y="215" type="line"/>
      <point x="440" y="215" type="line"/>
      <point x="302" y="556" type="line"/>
      <point x="160" y="215" type="line"/>
    </contour>
  </outline>
</glyph>
<glyph name="a" format="2">
  <advance width="544"/>
  <unicode hex="0061"/>
  <anchor x="273" y="540" name="aring"/>
  <anchor x="437" y="10" name="ogonek"/>
  <outline>
    <contour>
      <point x="41" y="134" type="curve" smooth="yes"/>
      <point x="41" y="190"/>
      <point x="68" y="234"/>
      <point x="147" y="258" type="curve" smooth="yes"/>
      <point x="212" y="278"/>
      <point x="296" y="305"/>
      <point x="331" y="329" type="curve"/>
      <point x="331" y="382" type="line" smooth="yes"/>
      <point x="331" y="439"/>
      <point x="302" y="456"/>
      <point x="273" y="456" type="curve" smooth="yes"/>
      <point x="245" y="456"/>
      <point x="213" y="441"/>
      <point x="185" y="356" type="curve" smooth="yes"/>
      <point x="177" y="332"/>
      <point x="166" y="316"/>
      <point x="143" y="316" type="curve" smooth="yes"/>
      <point x="118" y="316"/>
      <point x="54" y="334"/>
      <point x="54" y="384" type="curve" smooth="yes"/>
      <point x="54" y="444"/>
      <point x="144" y="502"/>
      <point x="294" y="502" type="curve" smooth="yes"/>
      <point x="468" y="502"/>
      <point x="478" y="424"/>
      <point x="478" y="362" type="curve" smooth="yes"/>
      <point x="478" y="131" type="line" smooth="yes"/>
      <point x="478" y="68"/>
      <point x="493" y="49"/>
      <point x="536" y="49" type="curve" smooth="yes"/>
      <point x="546" y="49"/>
      <point x="555" y="50"/>
      <point x="558" y="51" type="curve"/>
      <point x="561" y="18" type="line"/>
      <point x="528" y="5"/>
      <point x="465" y="-12"/>
      <point x="421" y="-12" type="curve" smooth="yes"/>
      <point x="365" y="-12"/>
      <point x="348" y="15"/>
      <point x="335" y="46" type="curve"/>
      <point x="302" y="21"/>
      <point x="256" y="-12"/>
      <point x="188" y="-12" type="curve" smooth="yes"/>
      <point x="91" y="-12"/>
      <point x="41" y="58"/>
    </contour>
    <contour>
      <point x="195" y="157" type="curve" smooth="yes"/>
      <point x="195" y="97"/>
      <point x="230" y="66"/>
      <point x="269" y="66" type="curve" smooth="yes"/>
      <point x="296" y="66"/>
      <point x="331" y="80"/>
      <point x="331" y="134" type="curve" smooth="yes"/>
      <point x="331" y="279" type="line"/>
      <point x="307" y="265"/>
      <point x="272" y="249"/>
      <point x="241" y="237" type="curve" smooth="yes"/>
      <point x="210" y="225"/>
      <point x="195" y="197"/>
    </contour>
  </outline>
</glyph>
<glyph name="e" format="2">
  <advance width="519"/>
  <unicode hex="0065"/>
  <anchor x="326" y="0" name="ogonek"/>
  <outline>
    <contour>
      <point x="34" y="243" type="curve" smooth="yes"/>
      <point x="34" y="384"/>
      <point x="101" y="502"/>
      <point x="284" y="502" type="curve" smooth="yes"/>
      <point x="474" y="502"/>
      <point x="505" y="375"/>
      <point x="505" y="292" type="curve" smooth="yes"/>
      <point x="505" y="262"/>
      <point x="487" y="252"/>
      <point x="450" y="252" type="curve" smooth="yes"/>
      <point x="193" y="252" type="line"/>
      <point x="193" y="247" type="line"/>
      <point x="193" y="144"/>
      <point x="229" y="65"/>
      <point x="325" y="65" type="curve" smooth="yes"/>
      <point x="387" y="65"/>
      <point x="430" y="97"/>
      <point x="460" y="154" type="curve"/>
      <point x="497" y="134" type="line"/>
      <point x="462" y="46"/>
      <point x="397" y="-12"/>
      <point x="272" y="-12" type="curve" smooth="yes"/>
      <point x="93" y="-12"/>
      <point x="34" y="109"/>
    </contour>
    <contour>
      <point x="193" y="298" type="curve"/>
      <point x="315" y="298" type="line" smooth="yes"/>
      <point x="338" y="298"/>
      <point x="346" y="304"/>
      <point x="346" y="340" type="curve" smooth="yes"/>
      <point x="346" y="379"/>
      <point x="336" y="456"/>
      <point x="276" y="456" type="curve" smooth="yes"/>
      <point x="212" y="456"/>
      <point x="193" y="371"/>
    </contour>
  </outline>
</glyph>
<glyph name="j" format="2">
  <advance width="316"/>
  <unicode hex="006A"/>
  <outline>
    <contour>
      <point x="-12" y="-201" type="line"/>
      <point x="95.4728" y="-165.176"/>
      <point x="98" y="-70.966"/>
      <point x="98" y="31" type="curve" smooth="yes"/>
      <point x="98" y="381" type="line" smooth="yes"/>
      <point x="98" y="421"/>
      <point x="90" y="430"/>
      <point x="74" y="432" type="curve" smooth="yes"/>
      <point x="39" y="437" type="line"/>
      <point x="39" y="473" type="line"/>
      <point x="242" y="502" type="line"/>
      <point x="249" y="496" type="line"/>
      <point x="249" y="25" type="line" smooth="yes"/>
      <point x="249" y="-165.626"/>
      <point x="175.111" y="-232"/>
      <point x="-8" y="-232" type="curve"/>
    </contour>
    <contour>
      <point x="77" y="633" type="curve" smooth="yes"/>
      <point x="77" y="680"/>
      <point x="112" y="720"/>
      <point x="168" y="720" type="curve" smooth="yes"/>
      <point x="225" y="720"/>
      <point x="260" y="680"/>
      <point x="260" y="633" type="curve" smooth="yes"/>
      <point x="260" y="585"/>
      <point x="223" y="545"/>
      <point x="168" y="545" type="curve" smooth="yes"/>
      <point x="112" y="545"/>
      <point x="77" y="585"/>
    </contour>
  </outline>
</glyph>
<glyph name="l" format="2">
  <advance width="309"/>
  <unicode hex="006C"/>
  <anchor x="133" y="770" name="top"/>
  <outline>
    <contour>
      <point x="19" y="0" type="line"/>
      <point x="19" y="38" type="line"/>
      <point x="76" y="41"/>
      <point x="84" y="45"/>
      <point x="84" y="87" type="curve" smooth="yes"/>
      <point x="84" y="621" type="line" smooth="yes"/>
      <point x="84" y="661"/>
      <point x="76" y="670"/>
      <point x="60" y="673" type="curve" smooth="yes"/>
      <point x="25" y="679" type="line"/>
      <point x="25" y="715" type="line"/>
      <point x="228" y="742" type="line"/>
      <point x="235" y="736" type="line"/>
      <point x="235" y="87" type="line" smooth="yes"/>
      <point x="235" y="45"/>
      <point x="243" y="41"/>
      <point x="300" y="38" type="curve"/>
      <point x="300" y="0" type="line"/>
    </contour>
  </outline>
</glyph>
<glyph name="t" format="2">
  <advance width="370"/>
  <unicode hex="0074"/>
  <anchor x="183" y="690" name="top"/>
  <outline>
    <contour>
      <point x="32" y="440" type="line"/>
      <point x="32" y="490" type="line"/>
      <point x="95" y="490" type="line"/>
      <point x="183" y="616" type="line"/>
      <point x="241" y="616" type="line"/>
      <point x="241" y="490" type="line"/>
      <point x="345" y="490" type="line"/>
      <point x="345" y="440" type="line"/>
      <point x="241" y="440" type="line"/>
      <point x="241" y="155" type="line" smooth="yes"/>
      <point x="241" y="91"/>
      <point x="267" y="63"/>
      <point x="305" y="63" type="curve" smooth="yes"/>
      <point x="327" y="63"/>
      <point x="348" y="67"/>
      <point x="362" y="73" type="curve"/>
      <point x="373" y="42" type="line"/>
      <point x="317" y="7"/>
      <point x="255" y="-12"/>
      <point x="214" y="-12" type="curve" smooth="yes"/>
      <point x="158" y="-12"/>
      <point x="90" y="26"/>
      <point x="90" y="117" type="curve" smooth="yes"/>
      <point x="90" y="440" type="line"/>
    </contour>
  </outline>
</glyph>
<glyph name="u" format="2">
  <advance width="629"/>
  <unicode hex="0075"/>
  <anchor x="322" y="522" name="top"/>
  <anchor x="545" y="18" name="ogonek"/>
  <outline>
    <contour>
      <point x="23" y="437" type="line"/>
      <point x="23" y="473" type="line"/>
      <point x="226" y="502" type="line"/>
      <point x="233" y="496" type="line"/>
      <point x="233" y="176" type="line" smooth="yes"/>
      <point x="233" y="98"/>
      <point x="264" y="67"/>
      <point x="319" y="67" type="curve" smooth="yes"/>
      <point x="385" y="67"/>
      <point x="404" y="112"/>
      <point x="404" y="170" type="curve" smooth="yes"/>
      <point x="404" y="381" type="line" smooth="yes"/>
      <point x="404" y="421"/>
      <point x="396" y="430"/>
      <point x="380" y="432" type="curve" smooth="yes"/>
      <point x="345" y="437" type="line"/>
      <point x="345" y="473" type="line"/>
      <point x="548" y="502" type="line"/>
      <point x="555" y="496" type="line"/>
      <point x="555" y="87" type="line" smooth="yes"/>
      <point x="555" y="45"/>
      <point x="563" y="41"/>
      <point x="620" y="38" type="curve"/>
      <point x="620" y="0" type="line"/>
      <point x="412" y="0" type="line"/>
      <point x="404" y="56" type="line"/>
      <point x="364" y="26"/>
      <point x="312" y="-12"/>
      <point x="231" y="-12" type="curve" smooth="yes"/>
      <point x="155" y="-12"/>
      <point x="82" y="21"/>
      <point x="82" y="138" type="curve" smooth="yes"/>
      <point x="82" y="381" type="line" smooth="yes"/>
      <point x="82" y="421"/>
      <point x="74" y="430"/>
      <point x="58" y="432" type="curve" smooth="yes"/>
    </contour>
  </outline>
</glyph>
<glyph name="cent" format="2">
  <advance width="560"/>
  <unicode hex="00A2"/>
  <outline>
    <contour>
      <point x="39" y="341" type="curve" smooth="yes"/>
      <point x="39" y="507"/>
      <point x="130" y="599"/>
      <point x="294" y="599" type="curve"/>
      <point x="294" y="678" type="line"/>
      <point x="350" y="678" type="line"/>
      <point x="350" y="599" type="line"/>
      <point x="450" y="599"/>
      <point x="539" y="551"/>
      <point x="539" y="497" type="curve" smooth="yes"/>
      <point x="539" y="463"/>
      <point x="506" y="436"/>
      <point x="466" y="436" type="curve" smooth="yes"/>
      <point x="440" y="436"/>
      <point x="428" y="447"/>
      <point x="415" y="482" type="curve" smooth="yes"/>
      <point x="398" y="527"/>
      <point x="377" y="550"/>
      <point x="350" y="553" type="curve"/>
      <point x="350" y="146" type="line"/>
      <point x="423" y="146"/>
      <point x="472" y="176"/>
      <point x="509" y="243" type="curve"/>
      <point x="546" y="221" type="line"/>
      <point x="516" y="141"/>
      <point x="437" y="87"/>
      <point x="350" y="87" type="curve"/>
      <point x="350" y="-15" type="line"/>
      <point x="294" y="-15" type="line"/>
      <point x="294" y="87" type="line"/>
      <point x="128" y="87"/>
      <point x="39" y="176"/>
    </contour>
    <contour>
      <point x="190" y="363" type="curve" smooth="yes"/>
      <point x="190" y="244"/>
      <point x="228" y="166"/>
      <point x="294" y="150" type="curve"/>
      <point x="294" y="553" type="line"/>
      <point x="227" y="547"/>
      <point x="190" y="480"/>
    </contour>
  </outline>
</glyph>
<glyph name="sterling" format="2">
  <advance width="560"/>
  <unicode hex="00A3"/>
  <outline>
    <contour>
      <point x="21" y="9" type="line"/>
      <point x="43" y="72" type="line"/>
      <point x="133" y="102"/>
      <point x="189" y="137.241"/>
      <point x="189" y="198.918" type="curve" smooth="yes"/>
      <point x="189" y="226.253"/>
      <point x="178" y="259.632"/>
      <point x="159" y="292" type="curve"/>
      <point x="38" y="292" type="line"/>
      <point x="38" y="338" type="line"/>
      <point x="132" y="338" type="line"/>
      <point x="121" y="357"/>
      <point x="83" y="424"/>
      <point x="83" y="485" type="curve" smooth="yes"/>
      <point x="83" y="587"/>
      <point x="146" y="679"/>
      <point x="303.786" y="679" type="curve" smooth="yes"/>
      <point x="450" y="679"/>
      <point x="497" y="600"/>
      <point x="497" y="560" type="curve" smooth="yes"/>
      <point x="497" y="521"/>
      <point x="449" y="499"/>
      <point x="419" y="499" type="curve" smooth="yes"/>
      <point x="396" y="499"/>
      <point x="383.229" y="511.313"/>
      <point x="377" y="530" type="curve" smooth="yes"/>
      <point x="356" y="593"/>
      <point x="324" y="633"/>
      <point x="288" y="633" type="curve" smooth="yes"/>
      <point x="252" y="633"/>
      <point x="222" y="596"/>
      <point x="222" y="540.701" type="curve" smooth="yes"/>
      <point x="222" y="477.27"/>
      <point x="261.473" y="399.173"/>
      <point x="304" y="338" type="curve"/>
      <point x="448" y="338" type="line"/>
      <point x="448" y="292" type="line"/>
      <point x="318" y="292" type="line"/>
      <point x="320" y="278.851"/>
      <point x="322" y="265.701"/>
      <point x="322" y="252.501" type="curve" smooth="yes"/>
      <point x="322" y="204"/>
      <point x="295" y="152.414"/>
      <point x="237" y="118.023" type="curve"/>
      <point x="237" y="116" type="line"/>
      <point x="426" y="116" type="line" smooth="yes"/>
      <point x="472.344" y="116"/>
      <point x="490.839" y="134.636"/>
      <point x="520" y="180.736" type="curve"/>
      <point x="555" y="167.586" type="line"/>
      <point x="499" y="0" type="line"/>
      <point x="30" y="0" type="line"/>
    </contour>
  </outline>
</glyph>
<glyph name="dieresis" format="2">
  <advance width="430"/>
  <unicode hex="00A8"/>
  <anchor x="218" y="740" name="top"/>
  <outline>
    <contour>
      <point x="16" y="635" type="curve" smooth="yes"/>
      <point x="16" y="673"/>
      <point x="44" y="710"/>
      <point x="95" y="710" type="curve" smooth="yes"/>
      <point x="146" y="710"/>
      <point x="174" y="673"/>
      <point x="174" y="635" type="curve" smooth="yes"/>
      <point x="174" y="597"/>
      <point x="146" y="560"/>
      <point x="95" y="560" type="curve" smooth="yes"/>
      <point x="44" y="560"/>
      <point x="16" y="597"/>
    </contour>
    <contour>
      <point x="256" y="635" type="curve" smooth="yes"/>
      <point x="256" y="673"/>
      <point x="284" y="710"/>
      <point x="335" y="710" type="curve" smooth="yes"/>
      <point x="386" y="710"/>
      <point x="414" y="673"/>
      <point x="414" y="635" type="curve" smooth="yes"/>
      <point x="414" y="597"/>
      <point x="386" y="560"/>
      <point x="335" y="560" type="curve" smooth="yes"/>
      <point x="284" y="560"/>
      <point x="256" y="597"/>
    </contour>
  </outline>
</glyph>
<glyph name="copyright" format="2">
  <advance width="800"/>
  <unicode hex="00A9"/>
  <outline>
    <contour>
      <point x="36" y="346" type="curve" smooth="yes"/>
      <point x="36" y="546"/>
      <point x="199" y="707"/>
      <point x="400" y="707" type="curve" smooth="yes"/>
      <point x="601" y="707"/>
      <point x="764" y="546"/>
      <point x="764" y="346" type="curve" smooth="yes"/>
      <point x="764" y="146"/>
      <point x="601" y="-15"/>
      <point x="400" y="-15" type="curve" smooth="yes"/>
      <point x="199" y="-15"/>
      <point x="36" y="146"/>
    </contour>
    <contour>
      <point x="119" y="346" type="curve" smooth="yes"/>
      <point x="119" y="178"/>
      <point x="245" y="48"/>
      <point x="400" y="48" type="curve" smooth="yes"/>
      <point x="555" y="48"/>
      <point x="681" y="178"/>
      <point x="681" y="346" type="curve" smooth="yes"/>
      <point x="681" y="514"/>
      <point x="555" y="644"/>
      <point x="400" y="644" type="curve" smooth="yes"/>
      <point x="245" y="644"/>
      <point x="119" y="514"/>
    </contour>
    <contour>
      <point x="207" y="348" type="curve" smooth="yes"/>
      <point x="207" y="458"/>
      <point x="270" y="548"/>
      <point x="420" y="548" type="curve" smooth="yes"/>
      <point x="475" y="548"/>
      <point x="526" y="538"/>
      <point x="558" y="519" type="curve"/>
      <point x="558" y="415" type="line"/>
      <point x="531" y="415" type="line"/>
      <point x="516" y="462"/>
      <point x="487" y="516"/>
      <point x="427" y="516" type="curve" smooth="yes"/>
      <point x="358" y="516"/>
      <point x="327" y="443"/>
      <point x="327" y="354" type="curve" smooth="yes"/>
      <point x="327" y="262"/>
      <point x="356" y="183"/>
      <point x="433" y="183" type="curve" smooth="yes"/>
      <point x="490" y="183"/>
      <point x="519" y="238"/>
      <point x="541" y="290" type="curve"/>
      <point x="568" y="290" type="line"/>
      <point x="557" y="182" type="line"/>
      <point x="525" y="162"/>
      <point x="471" y="151"/>
      <point x="419" y="151" type="curve" smooth="yes"/>
      <point x="263" y="151"/>
      <point x="207" y="236"/>
    </contour>
  </outline>
</glyph>
<glyph name="ordfeminine" format="2">
  <advance width="405"/>
  <unicode hex="00AA"/>
  <outline>
    <contour>
      <point x="28" y="356.049" type="curve" smooth="yes"/>
      <point x="28" y="393.435"/>
      <point x="50.7275" y="419.05"/>
      <point x="97" y="434" type="curve" smooth="yes"/>
      <point x="227" y="476" type="line"/>
      <point x="227" y="511" type="line" smooth="yes"/>
      <point x="227" y="541"/>
      <point x="210" y="554"/>
      <point x="188.66" y="554" type="curve" smooth="yes"/>
      <point x="173" y="554"/>
      <point x="152" y="547"/>
      <point x="132.973" y="498.753" type="curve" smooth="yes"/>
      <point x="124" y="476"/>
      <point x="116" y="466"/>
      <point x="97.7772" y="466" type="curve" smooth="yes"/>
      <point x="77" y="466"/>
      <point x="34" y="479"/>
      <point x="34" y="512.625" type="curve" smooth="yes"/>
      <point x="34" y="553"/>
      <point x="96" y="590"/>
      <point x="201" y="590" type="curve" smooth="yes"/>
      <point x="327" y="590"/>
      <point x="339" y="538"/>
      <point x="339" y="495" type="curve" smooth="yes"/>
      <point x="339" y="362" type="line" smooth="yes"/>
      <point x="339" y="323.138"/>
      <point x="348.758" y="306.205"/>
      <point x="380.313" y="306.149" type="curve" smooth="yes"/>
      <point x="384.485" y="306.141"/>
      <point x="389.038" y="306.429"/>
      <point x="394" y="307" type="curve"/>
      <point x="395" y="284" type="line"/>
      <point x="372" y="276"/>
      <point x="329" y="265"/>
      <point x="293.292" y="265" type="curve" smooth="yes"/>
      <point x="251" y="265"/>
      <point x="238.858" y="280.43"/>
      <point x="230" y="301" type="curve"/>
      <point x="202.459" y="280.891"/>
      <point x="174" y="265"/>
      <point x="133" y="265" type="curve" smooth="yes"/>
      <point x="61" y="265"/>
      <point x="28" y="311"/>
    </contour>
    <contour>
      <point x="148" y="367.593" type="curve" smooth="yes"/>
      <point x="148" y="333"/>
      <point x="173" y="319"/>
      <point x="192.932" y="319" type="curve" smooth="yes"/>
      <point x="208" y="319"/>
      <point x="225" y="327"/>
      <point x="227" y="356" type="curve"/>
      <point x="227" y="439" type="line"/>
      <point x="206.914" y="434.105" type="line" smooth="yes"/>
      <point x="170.714" y="425.282"/>
      <point x="148" y="400.566"/>
    </contour>
  </outline>
  <guideline angle="0" x="0" y="590"/>
  <guideline angle="0" x="0" y="265"/>
</glyph>
<glyph name="guillemotleft" format="2">
  <advance width="487"/>
  <unicode hex="00AB"/>
  <outline>
    <contour>
      <point x="49" y="231" type="line" smooth="yes"/>
      <point x="43.1303" y="237.848"/>
      <point x="40.371" y="244.457"/>
      <point x="40.371" y="250.826" type="curve" smooth="yes"/>
      <point x="40.371" y="257.479"/>
      <point x="43.3807" y="263.87"/>
      <point x="49" y="270" type="curve" smooth="yes"/>
      <point x="223" y="464" type="line"/>
      <point x="252" y="443" type="line"/>
      <point x="173" y="268" type="line" smooth="yes"/>
      <point x="170.387" y="262.252"/>
      <point x="168.867" y="256.503"/>
      <point x="168.867" y="250.326" type="curve" smooth="yes"/>
      <point x="168.867" y="244.684"/>
      <point x="170.136" y="238.684"/>
      <point x="173" y="232" type="curve" smooth="yes"/>
      <point x="252" y="58" type="line"/>
      <point x="223" y="37" type="line"/>
    </contour>
    <contour>
      <point x="249" y="231" type="line" smooth="yes"/>
      <point x="243.13" y="237.848"/>
      <point x="240.371" y="244.457"/>
      <point x="240.371" y="250.826" type="curve" smooth="yes"/>
      <point x="240.371" y="257.479"/>
      <point x="243.381" y="263.87"/>
      <point x="249" y="270" type="curve" smooth="yes"/>
      <point x="423" y="464" type="line"/>
      <point x="452" y="443" type="line"/>
      <point x="373" y="268" type="line" smooth="yes"/>
      <point x="370.387" y="262.252"/>
      <point x="368.867" y="256.503"/>
      <point x="368.867" y="250.326" type="curve" smooth="yes"/>
      <point x="368.867" y="244.684"/>
      <point x="370.136" y="238.684"/>
      <point x="373" y="232" type="curve" smooth="yes"/>
      <point x="452" y="58" type="line"/>
      <point x="423" y="37" type="line"/>
    </contour>
  </outline>
</glyph>
<glyph name="logicalnot" format="2">
  <advance width="600"/>
  <unicode hex="00AC"/>
  <outline>
    <contour>
      <point x="58" y="317" type="line"/>
      <point x="58" y="397" type="line"/>
      <point x="542" y="397" type="line"/>
      <point x="542" y="95" type="line"/>
      <point x="446" y="95" type="line"/>
      <point x="446" y="317" type="line"/>
    </contour>
  </outline>
</glyph>
<glyph name="plusminus" format="2">
  <advance width="600"/>
  <unicode hex="00B1"/>
  <outline>
    <contour>
      <point x="58" y="298" type="line"/>
      <point x="58" y="378" type="line"/>
      <point x="253" y="378" type="line"/>
      <point x="253" y="549" type="line"/>
      <point x="349" y="549" type="line"/>
      <point x="349" y="378" type="line"/>
      <point x="542" y="378" type="line"/>
      <point x="542" y="298" type="line"/>
      <point x="349" y="298" type="line"/>
      <point x="349" y="129" type="line"/>
      <point x="253" y="129" type="line"/>
      <point x="253" y="298" type="line"/>
    </contour>
    <contour>
      <point x="58" y="0" type="line"/>
      <point x="58" y="80" type="line"/>
      <point x="542" y="80" type="line"/>
      <point x="542" y="0" type="line"/>
    </contour>
  </outline>
</glyph>
<glyph name="uni00B2" format="2">
  <advance width="380"/>
  <unicode hex="00B2"/>
  <outline>
    <contour>
      <point x="29" y="418" type="line"/>
      <point x="32" y="476"/>
      <point x="84.0667" y="528.912"/>
      <point x="154" y="582" type="curve" smooth="yes"/>
      <point x="221.067" y="632.912"/>
      <point x="235" y="678"/>
      <point x="235" y="717" type="curve" smooth="yes"/>
      <point x="235" y="752"/>
      <point x="223" y="778"/>
      <point x="201" y="778" type="curve" smooth="yes"/>
      <point x="178" y="778"/>
      <point x="164.148" y="751.966"/>
      <point x="152" y="700" type="curve" smooth="yes"/>
      <point x="146.148" y="674.965"/>
      <point x="133" y="664"/>
      <point x="110.71" y="664" type="curve" smooth="yes"/>
      <point x="83" y="664"/>
      <point x="43" y="681"/>
      <point x="43" y="719.753" type="curve" smooth="yes"/>
      <point x="43" y="768"/>
      <point x="105" y="816"/>
      <point x="206.706" y="816" type="curve" smooth="yes"/>
      <point x="296" y="816"/>
      <point x="361" y="779"/>
      <point x="361" y="698.786" type="curve" smooth="yes"/>
      <point x="361" y="625"/>
      <point x="306" y="593"/>
      <point x="248.639" y="569.534" type="curve" smooth="yes"/>
      <point x="196" y="548"/>
      <point x="152" y="522"/>
      <point x="138" y="490" type="curve"/>
      <point x="306" y="490" type="line" smooth="yes"/>
      <point x="328" y="490"/>
      <point x="338" y="494"/>
      <point x="354" y="521" type="curve"/>
      <point x="382" y="513" type="line"/>
      <point x="351" y="408" type="line"/>
      <point x="40" y="408" type="line"/>
    </contour>
  </outline>
  <guideline angle="0" x="0" y="816"/>
  <guideline angle="0" x="0" y="408"/>
</glyph>
<glyph name="uni00B9" format="2">
  <advance width="380"/>
  <unicode hex="00B9"/>
  <outline>
    <contour>
      <point x="75" y="408" type="line"/>
      <point x="75" y="435" type="line"/>
      <point x="113" y="440" type="line" smooth="yes"/>
      <point x="134.032" y="442.767"/>
      <point x="142" y="450"/>
      <point x="142" y="476" type="curve" smooth="yes"/>
      <point x="142" y="726" type="line" smooth="yes"/>
      <point x="142" y="750"/>
      <point x="134" y="757"/>
      <point x="118" y="760" type="curve"/>
      <point x="77" y="766" type="line"/>
      <point x="77" y="792" type="line"/>
      <point x="253" y="816" type="line"/>
      <point x="261" y="809" type="line"/>
      <point x="261" y="476" type="line" smooth="yes"/>
      <point x="261" y="450"/>
      <point x="268.968" y="442.767"/>
      <point x="290" y="440" type="curve" smooth="yes"/>
      <point x="328" y="435" type="line"/>
      <point x="328" y="408" type="line"/>
    </contour>
  </outline>
  <guideline angle="0" x="0" y="809"/>
  <guideline angle="0" x="0" y="408"/>
</glyph>
<glyph name="onequarter" format="2">
  <advance width="900"/>
  <unicode hex="00BC"/>
  <outline>
    <contour>
      <point x="77" y="272" type="line"/>
      <point x="77" y="299" type="line"/>
      <point x="115" y="304" type="line" smooth="yes"/>
      <point x="136" y="307"/>
      <point x="144" y="314"/>
      <point x="144" y="340" type="curve" smooth="yes"/>
      <point x="144" y="590" type="line" smooth="yes"/>
      <point x="144" y="614"/>
      <point x="136" y="621"/>
      <point x="120" y="624" type="curve"/>
      <point x="79" y="630" type="line"/>
      <point x="79" y="656" type="line"/>
      <point x="255" y="680" type="line"/>
      <point x="263" y="673" type="line"/>
      <point x="263" y="340" type="line" smooth="yes"/>
      <point x="263" y="314"/>
      <point x="271" y="307"/>
      <point x="292" y="304" type="curve" smooth="yes"/>
      <point x="330" y="299" type="line"/>
      <point x="330" y="272" type="line"/>
    </contour>
    <contour>
      <point x="243" y="4" type="line"/>
      <point x="600" y="695" type="line"/>
      <point x="653" y="667" type="line"/>
      <point x="295" y="-27" type="line"/>
    </contour>
    <contour>
      <point x="456" y="119" type="line"/>
      <point x="520" y="221"/>
      <point x="587" y="319"/>
      <point x="651" y="401" type="curve"/>
      <point x="747" y="401" type="line"/>
      <point x="747" y="142" type="line"/>
      <point x="814" y="142" type="line"/>
      <point x="814" y="93" type="line"/>
      <point x="747" y="93" type="line"/>
      <point x="747" y="61" type="line" smooth="yes"/>
      <point x="747" y="38"/>
      <point x="754" y="32"/>
      <point x="769" y="30" type="curve" smooth="yes"/>
      <point x="796" y="27" type="line"/>
      <point x="796" y="0" type="line"/>
      <point x="573" y="0" type="line"/>
      <point x="573" y="27" type="line"/>
      <point x="610" y="31" type="line"/>
      <point x="624" y="33"/>
      <point x="632" y="38"/>
      <point x="632" y="61" type="curve" smooth="yes"/>
      <point x="632" y="93" type="line"/>
      <point x="470" y="93" type="line"/>
    </contour>
    <contour>
      <point x="527" y="142" type="curve"/>
      <point x="632" y="142" type="line"/>
      <point x="632" y="311" type="line"/>
      <point x="630" y="311" type="line"/>
      <point x="594" y="261"/>
      <point x="561" y="202"/>
    </contour>
  </outline>
</glyph>
<glyph name="questiondown" format="2">
  <advance width="456"/>
  <unicode hex="00BF"/>
  <outline>
    <contour>
      <point x="23" y="-69" type="curve" smooth="yes"/>
      <point x="23" y="2"/>
      <point x="86" y="33"/>
      <point x="128" y="55" type="curve" smooth="yes"/>
      <point x="178" y="81"/>
      <point x="202" y="113"/>
      <point x="202" y="143" type="curve" smooth="yes"/>
      <point x="202" y="173"/>
      <point x="178" y="196"/>
      <point x="139" y="196" type="curve" smooth="yes"/>
      <point x="118" y="196"/>
      <point x="103" y="193"/>
      <point x="92" y="190" type="curve"/>
      <point x="81" y="217" type="line"/>
      <point x="121" y="244"/>
      <point x="175" y="266"/>
      <point x="232" y="266" type="curve" smooth="yes"/>
      <point x="304" y="266"/>
      <point x="370" y="232"/>
      <point x="370" y="160" type="curve" smooth="yes"/>
      <point x="370" y="131"/>
      <point x="355" y="96"/>
      <point x="284" y="53" type="curve" smooth="yes"/>
      <point x="219" y="13"/>
      <point x="190" y="-39"/>
      <point x="190" y="-94" type="curve" smooth="yes"/>
      <point x="190" y="-139"/>
      <point x="205" y="-171"/>
      <point x="231" y="-171" type="curve" smooth="yes"/>
      <point x="257" y="-171"/>
      <point x="277" y="-144"/>
      <point x="297" y="-61" type="curve" smooth="yes"/>
      <point x="303" y="-36"/>
      <point x="319" y="-24"/>
      <point x="351" y="-24" type="curve" smooth="yes"/>
      <point x="384" y="-24"/>
      <point x="436" y="-47"/>
      <point x="436" y="-92" type="curve" smooth="yes"/>
      <point x="436" y="-142"/>
      <point x="368" y="-217"/>
      <point x="227" y="-217" type="curve" smooth="yes"/>
      <point x="110" y="-217"/>
      <point x="23" y="-169"/>
    </contour>
    <contour>
      <point x="131" y="409" type="curve" smooth="yes"/>
      <point x="131" y="464"/>
      <point x="169" y="502"/>
      <point x="224" y="502" type="curve" smooth="yes"/>
      <point x="279" y="502"/>
      <point x="317" y="464"/>
      <point x="317" y="409" type="curve" smooth="yes"/>
      <point x="317" y="354"/>
      <point x="279" y="316"/>
      <point x="224" y="316" type="curve" smooth="yes"/>
      <point x="169" y="316"/>
      <point x="131" y="354"/>
    </contour>
  </outline>
</glyph>
<glyph name="divide" format="2">
  <advance width="600"/>
  <unicode hex="00F7"/>
  <outline>
    <contour>
      <point x="58" y="210" type="line"/>
      <point x="58" y="290" type="line"/>
      <point x="542" y="290" type="line"/>
      <point x="542" y="210" type="line"/>
    </contour>
    <contour>
      <point x="232" y="76" type="curve" smooth="yes"/>
      <point x="232" y="115"/>
      <point x="262" y="146"/>
      <point x="301" y="146" type="curve" smooth="yes"/>
      <point x="339" y="146"/>
      <point x="371" y="115"/>
      <point x="371" y="77" type="curve" smooth="yes"/>
      <point x="371" y="39"/>
      <point x="339" y="6"/>
      <point x="300" y="6" type="curve" smooth="yes"/>
      <point x="262" y="6"/>
      <point x="232" y="37"/>
    </contour>
    <contour>
      <point x="232" y="424" type="curve" smooth="yes"/>
      <point x="232" y="463"/>
      <point x="262" y="494"/>
      <point x="301" y="494" type="curve" smooth="yes"/>
      <point x="339" y="494"/>
      <point x="371" y="463"/>
      <point x="371" y="425" type="curve" smooth="yes"/>
      <point x="371" y="387"/>
      <point x="339" y="354"/>
      <point x="300" y="354" type="curve" smooth="yes"/>
      <point x="262" y="354"/>
      <point x="232" y="385"/>
    </contour>
  </outline>
</glyph>
<glyph name="dcroat" format="2">
  <advance width="605"/>
  <unicode hex="0111"/>
  <outline>
    <component base="d"/>
    <contour>
      <point x="285" y="641" type="line"/>
      <point x="285" y="554" type="line"/>
      <point x="596" y="554" type="line"/>
      <point x="596" y="641" type="line"/>
    </contour>
  </outline>
</glyph>
<glyph name="hbar" format="2">
  <advance width="631"/>
  <unicode hex="0127"/>
  <outline>
    <component base="h"/>
    <contour>
      <point x="17" y="605" type="line"/>
      <point x="17" y="560" type="line"/>
      <point x="438" y="560" type="line"/>
      <point x="438" y="605" type="line"/>
    </contour>
  </outline>
</glyph>
<glyph name="Kcedilla" format="2">
  <advance width="750"/>
  <unicode hex="0136"/>
  <outline>
    <contour>
      <point x="32" y="0" type="line"/>
      <point x="32" y="38" type="line"/>
      <point x="103" y="41"/>
      <point x="111" y="46"/>
      <point x="111" y="97" type="curve" smooth="yes"/>
      <point x="111" y="595" type="line" smooth="yes"/>
      <point x="111" y="646"/>
      <point x="103" y="651"/>
      <point x="32" y="654" type="curve"/>
      <point x="32" y="692" type="line"/>
      <point x="350" y="692" type="line"/>
      <point x="350" y="654" type="line"/>
      <point x="279" y="651"/>
      <point x="271" y="646"/>
      <point x="271" y="595" type="curve" smooth="yes"/>
      <point x="271" y="359" type="line"/>
      <point x="376" y="480" type="line" smooth="yes"/>
      <point x="427" y="538"/>
      <point x="466" y="589"/>
      <point x="492" y="622" type="curve" smooth="yes"/>
      <point x="505" y="638"/>
      <point x="502" y="648"/>
      <point x="486" y="650" type="curve" smooth="yes"/>
      <point x="444" y="656" type="line"/>
      <point x="444" y="692" type="line"/>
      <point x="716" y="692" type="line"/>
      <point x="716" y="656" type="line"/>
      <point x="655" y="651"/>
      <point x="636" y="641"/>
      <point x="601" y="615" type="curve" smooth="yes"/>
      <point x="530" y="562"/>
      <point x="477" y="500"/>
      <point x="400" y="419" type="curve"/>
      <point x="455" y="327"/>
      <point x="551" y="189"/>
      <point x="636" y="92" type="curve" smooth="yes"/>
      <point x="664" y="60"/>
      <point x="687" y="40"/>
      <point x="708" y="35" type="curve"/>
      <point x="718" y="32" type="line"/>
      <point x="718" y="-6" type="line"/>
      <point x="650" y="-4" type="line" smooth="yes"/>
      <point x="524" y="0"/>
      <point x="477" y="25"/>
      <point x="410" y="119" type="curve" smooth="yes"/>
      <point x="361" y="189"/>
      <point x="325" y="241"/>
      <point x="273" y="339" type="curve"/>
      <point x="271" y="339" type="line"/>
      <point x="271" y="97" type="line" smooth="yes"/>
      <point x="271" y="46"/>
      <point x="279" y="41"/>
      <point x="350" y="38" type="curve"/>
      <point x="350" y="0" type="line"/>
    </contour>
    <contour>
      <point x="356" y="-300" type="line"/>
      <point x="384" y="-269"/>
      <point x="401" y="-246"/>
      <point x="401" y="-208" type="curve" smooth="yes"/>
      <point x="401" y="-179"/>
      <point x="366" y="-158"/>
      <point x="366" y="-124" type="curve" smooth="yes"/>
      <point x="366" y="-94"/>
      <point x="389" y="-66"/>
      <point x="425" y="-66" type="curve" smooth="yes"/>
      <point x="468" y="-66"/>
      <point x="501" y="-97"/>
      <point x="501" y="-151" type="curve" smooth="yes"/>
      <point x="501" y="-223"/>
      <point x="433" y="-278"/>
      <point x="377" y="-321" type="curve"/>
    </contour>
  </outline>
</glyph>
<glyph name="kgreenlandic" format="2">
  <advance width="692"/>
  <unicode hex="0138"/>
  <outline>
    <component base="dotlessi" xOffset="11"/>
    <contour>
      <point x="253" y="237" type="line"/>
      <point x="253" y="278" type="line"/>
      <point x="257" y="278" type="line"/>
      <point x="323.97" y="379.625" type="line" smooth="yes"/>
      <point x="366.086" y="443.537"/>
      <point x="419.512" y="493"/>
      <point x="473" y="493" type="curve" smooth="yes"/>
      <point x="629" y="493" type="line"/>
      <point x="629" y="455" type="line"/>
      <point x="544.54" y="438.653"/>
      <point x="468.328" y="397.563"/>
      <point x="395.12" y="330.98" type="curve" smooth="yes"/>
      <point x="382.904" y="319.607" type="line" smooth="yes"/>
      <point x="380.061" y="316.96"/>
      <point x="376.825" y="313.565"/>
      <point x="377" y="310" type="curve" smooth="yes"/>
      <point x="377.168" y="306.588"/>
      <point x="378.368" y="302.829"/>
      <point x="381.465" y="298.716" type="curve" smooth="yes"/>
      <point x="393.187" y="283.146" type="line" smooth="yes"/>
      <point x="458.55" y="196.648"/>
      <point x="538.725" y="97.1367"/>
      <point x="650" y="32" type="curve"/>
      <point x="650" y="-7" type="line"/>
      <point x="550" y="-7" type="line" smooth="yes"/>
      <point x="405.601" y="-7"/>
      <point x="357.807" y="69.1491"/>
      <point x="267.288" y="219.87" type="curve" smooth="yes"/>
      <point x="257" y="237" type="line"/>
    </contour>
  </outline>
</glyph>
<glyph name="Lslash" format="2">
  <advance width="591"/>
  <unicode hex="0141"/>
  <outline>
    <component base="L" xOffset="6"/>
    <contour>
      <point x="30" y="238" type="line"/>
      <point x="30" y="178" type="line"/>
      <point x="421" y="459" type="line"/>
      <point x="421" y="519" type="line"/>
    </contour>
  </outline>
</glyph>
<glyph name="Tbar" format="2">
  <advance width="621"/>
  <unicode hex="0166"/>
  <outline>
    <component base="T"/>
    <contour>
      <point x="291.5" y="292.5" type="line"/>
      <point x="136" y="292.5" type="line"/>
      <point x="136" y="379.5" type="line"/>
      <point x="291.5" y="379.5" type="line"/>
    </contour>
    <contour>
      <point x="330.5" y="379.5" type="line"/>
      <point x="487" y="379.5" type="line"/>
      <point x="487" y="292.5" type="line"/>
      <point x="330.5" y="292.5" type="line"/>
    </contour>
  </outline>
</glyph>
<glyph name="tbar" format="2">
  <advance width="344"/>
  <unicode hex="0167"/>
  <outline>
    <component base="t"/>
    <contour>
      <point x="181.991" y="221" type="line"/>
      <point x="26.4914" y="221" type="line"/>
      <point x="26.4914" y="308" type="line"/>
      <point x="181.991" y="308" type="line"/>
    </contour>
    <contour>
      <point x="161.883" y="308" type="line"/>
      <point x="318.383" y="308" type="line"/>
      <point x="318.383" y="221" type="line"/>
      <point x="161.883" y="221" type="line"/>
    </contour>
  </outline>
</glyph>
<glyph name="longs" format="2">
  <advance width="332"/>
  <unicode hex="017F"/>
  <anchor x="225" y="800" name="top"/>
  <outline>
    <contour>
      <point x="21" y="0" type="line"/>
      <point x="21" y="38" type="line"/>
      <point x="78" y="41"/>
      <point x="86" y="45"/>
      <point x="86" y="87" type="curve" smooth="yes"/>
      <point x="86" y="490" type="line"/>
      <point x="237" y="490" type="line"/>
      <point x="237" y="87" type="line" smooth="yes"/>
      <point x="237" y="45"/>
      <point x="245" y="41"/>
      <point x="314" y="38" type="curve"/>
      <point x="314" y="0" type="line"/>
    </contour>
    <contour>
      <point x="86" y="490" type="line"/>
      <point x="86" y="533" type="line" smooth="yes"/>
      <point x="86" y="670"/>
      <point x="156" y="742"/>
      <point x="273" y="742" type="curve" smooth="yes"/>
      <point x="377" y="742"/>
      <point x="415" y="686"/>
      <point x="415" y="652" type="curve" smooth="yes"/>
      <point x="415" y="616"/>
      <point x="374" y="592"/>
      <point x="341" y="592" type="curve" smooth="yes"/>
      <point x="318" y="592"/>
      <point x="304" y="603"/>
      <point x="297" y="622" type="curve"/>
      <point x="271" y="687"/>
      <point x="255" y="696"/>
      <point x="242" y="696" type="curve" smooth="yes"/>
      <point x="227" y="696"/>
      <point x="215" y="685"/>
      <point x="215" y="660" type="curve" smooth="yes"/>
      <point x="215" y="612"/>
      <point x="220" y="571"/>
      <point x="226" y="542" type="curve" smooth="yes"/>
      <point x="237" y="490" type="line"/>
    </contour>
  </outline>
</glyph>
<glyph name="uni0180" format="2">
  <advance width="598"/>
  <unicode hex="0180"/>
  <outline>
    <component base="b"/>
    <contour>
      <point x="178.5" y="540.117" type="line"/>
      <point x="23" y="540.117" type="line"/>
      <point x="23" y="627.117" type="line"/>
      <point x="178.5" y="627.117" type="line"/>
    </contour>
    <contour>
      <point x="179.471" y="627.117" type="line"/>
      <point x="374" y="627.117" type="line"/>
      <point x="374" y="540.117" type="line"/>
      <point x="179.471" y="540.117" type="line"/>
    </contour>
  </outline>
</glyph>
<glyph name="uni0181" format="2">
  <advance width="795"/>
  <unicode hex="0181"/>
  <outline>
    <component base="B" xOffset="111"/>
    <contour>
      <point x="230" y="654" type="line"/>
      <point x="153" y="654" type="line" smooth="yes"/>
      <point x="121.315" y="654"/>
      <point x="91.8269" y="633.091"/>
      <point x="91.8269" y="607.111" type="curve" smooth="yes"/>
      <point x="91.8269" y="589.89"/>
      <point x="104.782" y="578.311"/>
      <point x="124.825" y="569.175" type="curve" smooth="yes"/>
      <point x="139.036" y="562.696"/>
      <point x="156.197" y="552.021"/>
      <point x="156.197" y="527.497" type="curve" smooth="yes"/>
      <point x="156.197" y="498.271"/>
      <point x="131.825" y="471.193"/>
      <point x="86.9811" y="471.193" type="curve" smooth="yes"/>
      <point x="40.8011" y="471.193"/>
      <point x="-0.202301" y="499.908"/>
      <point x="-0.202301" y="577.496" type="curve" smooth="yes"/>
      <point x="-0.202301" y="641.175"/>
      <point x="63.8048" y="692"/>
      <point x="144" y="692" type="curve" smooth="yes"/>
      <point x="230" y="692" type="line"/>
    </contour>
  </outline>
</glyph>
<glyph name="uni0182" format="2">
  <advance width="689"/>
  <unicode hex="0182"/>
  <outline>
    <contour>
      <point x="33" y="0" type="line"/>
      <point x="33" y="38" type="line"/>
      <point x="104" y="41"/>
      <point x="112" y="46"/>
      <point x="112" y="97" type="curve" smooth="yes"/>
      <point x="112" y="595" type="line" smooth="yes"/>
      <point x="112" y="646"/>
      <point x="104" y="651"/>
      <point x="33" y="654" type="curve"/>
      <point x="33" y="692" type="line"/>
      <point x="576" y="692" type="line"/>
      <point x="576" y="497" type="line"/>
      <point x="539" y="497" type="line"/>
      <point x="519" y="596"/>
      <point x="487" y="646"/>
      <point x="393" y="646" type="curve" smooth="yes"/>
      <point x="307" y="646" type="line" smooth="yes"/>
      <point x="280" y="646"/>
      <point x="272" y="640"/>
      <point x="272" y="614" type="curve" smooth="yes"/>
      <point x="272" y="395" type="line"/>
      <point x="292" y="399"/>
      <point x="325" y="403"/>
      <point x="358" y="403" type="curve" smooth="yes"/>
      <point x="456" y="403"/>
      <point x="645" y="393"/>
      <point x="645" y="201" type="curve" smooth="yes"/>
      <point x="645" y="49"/>
      <point x="546" y="1"/>
      <point x="368" y="0" type="curve"/>
    </contour>
    <contour>
      <point x="272" y="111" type="line" smooth="yes"/>
      <point x="272" y="62"/>
      <point x="294" y="46"/>
      <point x="344" y="46" type="curve" smooth="yes"/>
      <point x="414" y="46"/>
      <point x="470" y="78"/>
      <point x="470" y="201" type="curve" smooth="yes"/>
      <point x="470" y="321"/>
      <point x="397" y="357"/>
      <point x="327" y="357" type="curve" smooth="yes"/>
      <point x="307" y="357"/>
      <point x="283" y="352"/>
      <point x="272" y="347" type="curve"/>
    </contour>
  </outline>
</glyph>
<glyph name="uni0183" format="2">
  <advance width="559"/>
  <unicode hex="0183"/>
  <outline>
    <contour>
      <point x="419.456" y="527.749" type="line"/>
      <point x="381.222" y="527.749" type="line"/>
      <point x="371" y="608.077"/>
      <point x="334.448" y="645.834"/>
      <point x="276.872" y="646.077" type="curve" smooth="yes"/>
      <point x="202" y="646.394" type="line"/>
      <point x="202" y="433" type="line"/>
      <point x="249" y="469"/>
      <point x="298" y="502"/>
      <point x="362.49" y="502" type="curve" smooth="yes"/>
      <point x="461" y="502"/>
      <point x="548" y="425"/>
      <point x="548" y="262" type="curve" smooth="yes"/>
      <point x="548" y="36"/>
      <point x="429" y="-12"/>
      <point x="295.583" y="-12" type="curve" smooth="yes"/>
      <point x="221" y="-12"/>
      <point x="173" y="3"/>
      <point x="137" y="22" type="curve"/>
      <point x="83" y="-12" type="line"/>
      <point x="51" y="6" type="line"/>
      <point x="51" y="692" type="line"/>
      <point x="419.42" y="692" type="line"/>
    </contour>
    <contour>
      <point x="202" y="154" type="line" smooth="yes"/>
      <point x="202" y="93.6879"/>
      <point x="209.846" y="34"/>
      <point x="281.554" y="34" type="curve" smooth="yes"/>
      <point x="363" y="34"/>
      <point x="389" y="111"/>
      <point x="389" y="231.389" type="curve" smooth="yes"/>
      <point x="389" y="400"/>
      <point x="338" y="425"/>
      <point x="289" y="425" type="curve" smooth="yes"/>
      <point x="217.507" y="425"/>
      <point x="202" y="369.968"/>
      <point x="202" y="312" type="curve" smooth="yes"/>
    </contour>
  </outline>
</glyph>
<glyph name="uni0184" format="2">
  <advance width="642"/>
  <unicode hex="0184"/>
  <outline>
    <contour>
      <point x="33" y="0" type="line"/>
      <point x="33" y="38" type="line"/>
      <point x="104" y="41"/>
      <point x="112" y="46"/>
      <point x="112" y="97" type="curve" smooth="yes"/>
      <point x="112" y="401.381" type="line"/>
      <point x="33" y="457.381" type="line"/>
      <point x="33" y="498.381" type="line"/>
      <point x="251.549" y="692" type="line"/>
      <point x="271.793" y="672.32" type="line"/>
      <point x="272" y="395" type="line"/>
      <point x="292" y="399"/>
      <point x="325" y="403"/>
      <point x="358" y="403" type="curve" smooth="yes"/>
      <point x="456" y="403"/>
      <point x="645" y="393"/>
      <point x="645" y="193.435" type="curve" smooth="yes"/>
      <point x="645" y="49"/>
      <point x="546" y="0"/>
      <point x="368" y="0" type="curve" smooth="yes"/>
    </contour>
    <contour>
      <point x="272" y="111" type="line" smooth="yes"/>
      <point x="272" y="62"/>
      <point x="294" y="46"/>
      <point x="344" y="46" type="curve" smooth="yes"/>
      <point x="414" y="46"/>
      <point x="470" y="78"/>
      <point x="470" y="191.459" type="curve" smooth="yes"/>
      <point x="470" y="321"/>
      <point x="397" y="357"/>
      <point x="331.435" y="357" type="curve" smooth="yes"/>
      <point x="307" y="357"/>
      <point x="283" y="352"/>
      <point x="272" y="347" type="curve"/>
    </contour>
  </outline>
</glyph>
<glyph name="uni0187" format="2">
  <advance width="684"/>
  <unicode hex="0187"/>
  <outline>
    <component base="C"/>
    <contour>
      <point x="638" y="636.108" type="line"/>
      <point x="638" y="721" type="line" smooth="yes"/>
      <point x="638" y="755.933"/>
      <point x="659.955" y="788.443"/>
      <point x="687.234" y="788.443" type="curve" smooth="yes"/>
      <point x="705.315" y="788.443"/>
      <point x="717.473" y="774.16"/>
      <point x="727.067" y="752.063" type="curve" smooth="yes"/>
      <point x="733.869" y="736.396"/>
      <point x="745.078" y="717.475"/>
      <point x="770.828" y="717.475" type="curve" smooth="yes"/>
      <point x="801.516" y="717.475"/>
      <point x="829.947" y="744.346"/>
      <point x="829.947" y="793.786" type="curve" smooth="yes"/>
      <point x="829.947" y="844.699"/>
      <point x="799.796" y="889.906"/>
      <point x="718.329" y="889.906" type="curve" smooth="yes"/>
      <point x="651.466" y="889.906"/>
      <point x="598.1" y="819.338"/>
      <point x="598.1" y="730.923" type="curve" smooth="yes"/>
      <point x="598.1" y="636.108" type="line"/>
    </contour>
  </outline>
</glyph>
<glyph name="uni0190" format="2">
  <advance width="615"/>
  <unicode hex="0190"/>
  <outline>
    <contour>
      <point x="38" y="182.711" type="curve" smooth="yes"/>
      <point x="38" y="290"/>
      <point x="123.705" y="366"/>
      <point x="217.478" y="376" type="curve"/>
      <point x="217.478" y="378" type="line"/>
      <point x="119.647" y="390"/>
      <point x="74" y="442"/>
      <point x="74" y="530" type="curve" smooth="yes"/>
      <point x="74" y="662"/>
      <point x="234" y="707"/>
      <point x="355" y="707" type="curve" smooth="yes"/>
      <point x="404" y="707"/>
      <point x="497" y="694"/>
      <point x="557" y="654" type="curve"/>
      <point x="557" y="494" type="line"/>
      <point x="519" y="494" type="line"/>
      <point x="498" y="574"/>
      <point x="460" y="661"/>
      <point x="346" y="661" type="curve" smooth="yes"/>
      <point x="272" y="661"/>
      <point x="234" y="603"/>
      <point x="234" y="528" type="curve" smooth="yes"/>
      <point x="234" y="454"/>
      <point x="272" y="398"/>
      <point x="354" y="398" type="curve" smooth="yes"/>
      <point x="434" y="398" type="line"/>
      <point x="434" y="350" type="line"/>
      <point x="352" y="350" type="line" smooth="yes"/>
      <point x="260" y="350"/>
      <point x="215" y="278"/>
      <point x="215" y="189.892" type="curve" smooth="yes"/>
      <point x="215" y="84"/>
      <point x="280" y="31"/>
      <point x="347" y="31" type="curve" smooth="yes"/>
      <point x="456" y="31"/>
      <point x="506" y="96"/>
      <point x="540" y="213" type="curve"/>
      <point x="578" y="213" type="line"/>
      <point x="566" y="26" type="line"/>
      <point x="506" y="-10"/>
      <point x="414" y="-15"/>
      <point x="350" y="-15" type="curve" smooth="yes"/>
      <point x="189.64" y="-15"/>
      <point x="38" y="40"/>
    </contour>
  </outline>
</glyph>
<glyph name="uni0191" format="2">
  <advance width="593"/>
  <unicode hex="0191"/>
  <outline>
    <contour>
      <point x="-124" y="-146.773" type="curve" smooth="yes"/>
      <point x="-124" y="-102"/>
      <point x="-75" y="-78"/>
      <point x="-45.7835" y="-78" type="curve" smooth="yes"/>
      <point x="-12.6076" y="-78"/>
      <point x="7.94397" y="-107.451"/>
      <point x="18.8811" y="-139.142" type="curve" smooth="yes"/>
      <point x="28.9419" y="-168.294"/>
      <point x="48.2123" y="-196"/>
      <point x="76.9964" y="-196" type="curve" smooth="yes"/>
      <point x="115.097" y="-196"/>
      <point x="122.082" y="-146.773"/>
      <point x="122.082" y="-121.537" type="curve" smooth="yes"/>
      <point x="122.082" y="-67.1305"/>
      <point x="120" y="-7.40608"/>
      <point x="116" y="47" type="curve"/>
      <point x="116" y="595" type="line" smooth="yes"/>
      <point x="116" y="646"/>
      <point x="108" y="651"/>
      <point x="37" y="654" type="curve"/>
      <point x="37" y="692" type="line"/>
      <point x="568" y="692" type="line"/>
      <point x="568" y="507" type="line"/>
      <point x="530" y="507" type="line"/>
      <point x="499" y="604"/>
      <point x="481" y="646"/>
      <point x="378" y="646" type="curve" smooth="yes"/>
      <point x="311" y="646" type="line" smooth="yes"/>
      <point x="283" y="646"/>
      <point x="276" y="639"/>
      <point x="276" y="610" type="curve" smooth="yes"/>
      <point x="276" y="370" type="line"/>
      <point x="390" y="370" type="line" smooth="yes"/>
      <point x="453" y="370"/>
      <point x="466" y="387"/>
      <point x="482" y="460" type="curve"/>
      <point x="520" y="460" type="line"/>
      <point x="520" y="228" type="line"/>
      <point x="482" y="228" type="line"/>
      <point x="466" y="301"/>
      <point x="453" y="318"/>
      <point x="390" y="318" type="curve" smooth="yes"/>
      <point x="276" y="318" type="line"/>
      <point x="276" y="27" type="line" smooth="yes"/>
      <point x="276" y="-198"/>
      <point x="145" y="-242"/>
      <point x="39" y="-242" type="curve" smooth="yes"/>
      <point x="-74" y="-242"/>
      <point x="-124" y="-192"/>
    </contour>
  </outline>
</glyph>
<glyph name="florin" format="2">
  <advance width="560"/>
  <unicode hex="0192"/>
  <outline>
    <contour>
      <point x="-40" y="-53.4994" type="curve" smooth="yes"/>
      <point x="-40" y="-23"/>
      <point x="-9" y="3"/>
      <point x="21.4101" y="3" type="curve" smooth="yes"/>
      <point x="46" y="3"/>
      <point x="57" y="-14"/>
      <point x="68.3468" y="-36.6936" type="curve" smooth="yes"/>
      <point x="88" y="-76"/>
      <point x="102" y="-89"/>
      <point x="111" y="-89" type="curve" smooth="yes"/>
      <point x="118" y="-89"/>
      <point x="123" y="-79"/>
      <point x="125" y="-59" type="curve" smooth="yes"/>
      <point x="172" y="359" type="line"/>
      <point x="71" y="359" type="line"/>
      <point x="71" y="409" type="line"/>
      <point x="179" y="409" type="line"/>
      <point x="187" y="457" type="line" smooth="yes"/>
      <point x="201" y="537"/>
      <point x="235" y="691"/>
      <point x="408.978" y="691" type="curve" smooth="yes"/>
      <point x="512" y="691"/>
      <point x="562" y="637"/>
      <point x="562" y="594.243" type="curve" smooth="yes"/>
      <point x="562" y="556"/>
      <point x="522" y="537"/>
      <point x="490.759" y="537" type="curve" smooth="yes"/>
      <point x="463" y="537"/>
      <point x="452" y="552"/>
      <point x="444" y="570" type="curve" smooth="yes"/>
      <point x="418" y="630"/>
      <point x="406" y="645"/>
      <point x="393" y="645" type="curve" smooth="yes"/>
      <point x="378" y="645"/>
      <point x="368" y="624"/>
      <point x="363" y="584" type="curve" smooth="yes"/>
      <point x="339" y="409" type="line"/>
      <point x="474" y="409" type="line"/>
      <point x="474" y="359" type="line"/>
      <point x="331" y="359" type="line"/>
      <point x="312" y="216.799" type="line" smooth="yes"/>
      <point x="275" y="-56"/>
      <point x="212" y="-135"/>
      <point x="92.8897" y="-135" type="curve" smooth="yes"/>
      <point x="2" y="-135"/>
      <point x="-40" y="-89"/>
    </contour>
  </outline>
</glyph>
<glyph name="uni0193" format="2">
  <advance width="816"/>
  <unicode hex="0193"/>
  <outline>
    <component base="G"/>
    <contour>
      <point x="643" y="660.047" type="line"/>
      <point x="643" y="737.047" type="line" smooth="yes"/>
      <point x="643" y="768.733"/>
      <point x="663.909" y="798.22"/>
      <point x="689.889" y="798.22" type="curve" smooth="yes"/>
      <point x="707.11" y="798.22"/>
      <point x="718.689" y="785.265"/>
      <point x="727.825" y="765.222" type="curve" smooth="yes"/>
      <point x="734.304" y="751.012"/>
      <point x="744.979" y="733.85"/>
      <point x="769.503" y="733.85" type="curve" smooth="yes"/>
      <point x="798.729" y="733.85"/>
      <point x="825.807" y="758.222"/>
      <point x="825.807" y="803.066" type="curve" smooth="yes"/>
      <point x="825.807" y="849.246"/>
      <point x="797.092" y="890.25"/>
      <point x="719.504" y="890.25" type="curve" smooth="yes"/>
      <point x="655.825" y="890.25"/>
      <point x="605" y="826.242"/>
      <point x="605" y="746.047" type="curve" smooth="yes"/>
      <point x="605" y="660.047" type="line"/>
    </contour>
  </outline>
  <guideline angle="0" x="0" y="890"/>
</glyph>
<glyph name="uni0199" format="2">
  <advance width="607"/>
  <unicode hex="0199"/>
  <outline>
    <contour>
      <point x="19" y="0" type="line"/>
      <point x="19" y="38" type="line"/>
      <point x="76" y="41"/>
      <point x="84" y="45"/>
      <point x="84" y="87" type="curve" smooth="yes"/>
      <point x="84" y="490" type="line"/>
      <point x="235" y="490" type="line"/>
      <point x="235" y="272" type="line"/>
      <point x="237" y="272" type="line"/>
      <point x="371" y="460" type="line" smooth="yes"/>
      <point x="387.499" y="483.147"/>
      <point x="408" y="490"/>
      <point x="430" y="490" type="curve" smooth="yes"/>
      <point x="575" y="490" type="line"/>
      <point x="575" y="458" type="line"/>
      <point x="491" y="440"/>
      <point x="426" y="396"/>
      <point x="377" y="345" type="curve" smooth="yes"/>
      <point x="368.593" y="336.25"/>
      <point x="364" y="326.589"/>
      <point x="364" y="317.019" type="curve" smooth="yes"/>
      <point x="364" y="310.976"/>
      <point x="365.831" y="306.266"/>
      <point x="369.515" y="300.472" type="curve" smooth="yes"/>
      <point x="418.812" y="222.93"/>
      <point x="538.2" y="53.6382"/>
      <point x="595" y="32" type="curve"/>
      <point x="595" y="0" type="line"/>
      <point x="505" y="0" type="line" smooth="yes"/>
      <point x="432" y="0"/>
      <point x="392" y="13"/>
      <point x="357" y="59" type="curve" smooth="yes"/>
      <point x="311" y="120"/>
      <point x="271" y="188"/>
      <point x="237" y="254" type="curve"/>
      <point x="235" y="254" type="line"/>
      <point x="235" y="87" type="line" smooth="yes"/>
      <point x="235" y="45"/>
      <point x="243" y="41"/>
      <point x="300" y="38" type="curve"/>
      <point x="300" y="0" type="line"/>
    </contour>
    <contour>
      <point x="83.9915" y="490.432" type="line"/>
      <point x="83.9915" y="550" type="line" smooth="yes"/>
      <point x="83.9915" y="663.599"/>
      <point x="161.575" y="742"/>
      <point x="275.694" y="742" type="curve" smooth="yes"/>
      <point x="377.992" y="742"/>
      <point x="402.992" y="679"/>
      <point x="402.992" y="649.577" type="curve" smooth="yes"/>
      <point x="402.992" y="610.833"/>
      <point x="360.443" y="602"/>
      <point x="340.443" y="602" type="curve" smooth="yes"/>
      <point x="312.013" y="602"/>
      <point x="293.079" y="618.009"/>
      <point x="288.484" y="634.715" type="curve" smooth="yes"/>
      <point x="283.173" y="654.021"/>
      <point x="271.532" y="692"/>
      <point x="254.241" y="692" type="curve" smooth="yes"/>
      <point x="242.38" y="692"/>
      <point x="234.992" y="677.647"/>
      <point x="234.992" y="650" type="curve" smooth="yes"/>
      <point x="234.992" y="490.432" type="line"/>
    </contour>
  </outline>
</glyph>
<glyph name="uni019B" format="2">
  <advance width="673"/>
  <unicode hex="019B"/>
  <outline>
    <component base="lambda"/>
    <contour>
      <point x="116.392" y="512.062" type="line"/>
      <point x="156.56" y="454.851" type="line"/>
      <point x="427.168" y="684.789" type="line"/>
      <point x="387" y="742" type="line"/>
    </contour>
  </outline>
</glyph>
<glyph name="uni019E" format="2">
  <advance width="619"/>
  <unicode hex="019E"/>
  <outline>
    <contour>
      <point x="26" y="0" type="line"/>
      <point x="26" y="38" type="line"/>
      <point x="83" y="41"/>
      <point x="91" y="45"/>
      <point x="91" y="87" type="curve" smooth="yes"/>
      <point x="91" y="381" type="line" smooth="yes"/>
      <point x="91" y="421"/>
      <point x="83" y="430"/>
      <point x="67" y="432" type="curve" smooth="yes"/>
      <point x="32" y="437" type="line"/>
      <point x="32" y="473" type="line"/>
      <point x="229" y="502" type="line"/>
      <point x="242" y="433" type="line"/>
      <point x="308" y="476"/>
      <point x="355" y="502"/>
      <point x="419" y="502" type="curve" smooth="yes"/>
      <point x="516" y="502"/>
      <point x="564" y="442"/>
      <point x="564" y="348" type="curve" smooth="yes"/>
      <point x="564" y="-155" type="line" smooth="yes"/>
      <point x="564" y="-197"/>
      <point x="572" y="-201"/>
      <point x="629" y="-204" type="curve"/>
      <point x="629" y="-242" type="line"/>
      <point x="360" y="-242" type="line"/>
      <point x="360" y="-204" type="line"/>
      <point x="394" y="-201"/>
      <point x="413" y="-198"/>
      <point x="413" y="-162" type="curve" smooth="yes"/>
      <point x="413" y="334" type="line" smooth="yes"/>
      <point x="413" y="394"/>
      <point x="385" y="425"/>
      <point x="334" y="425" type="curve" smooth="yes"/>
      <point x="267" y="425"/>
      <point x="242" y="375"/>
      <point x="242" y="317" type="curve" smooth="yes"/>
      <point x="242" y="80" type="line" smooth="yes"/>
      <point x="242" y="44"/>
      <point x="261" y="41"/>
      <point x="295" y="38" type="curve"/>
      <point x="295" y="0" type="line"/>
    </contour>
  </outline>
</glyph>
<glyph name="uni01C2" format="2">
  <advance width="400"/>
  <unicode hex="01C2"/>
  <outline>
    <component base="uni01C0" xOffset="57.6086"/>
    <contour>
      <point x="179.609" y="398.91" type="line"/>
      <point x="24.1086" y="398.91" type="line"/>
      <point x="24.1086" y="485.91" type="line"/>
      <point x="179.609" y="485.91" type="line"/>
    </contour>
    <contour>
      <point x="218.609" y="485.91" type="line"/>
      <point x="375.109" y="485.91" type="line"/>
      <point x="375.109" y="398.91" type="line"/>
      <point x="218.609" y="398.91" type="line"/>
    </contour>
    <contour>
      <point x="179.609" y="248.91" type="line"/>
      <point x="24.1086" y="248.91" type="line"/>
      <point x="24.1086" y="335.91" type="line"/>
      <point x="179.609" y="335.91" type="line"/>
    </contour>
    <contour>
      <point x="218.609" y="335.91" type="line"/>
      <point x="375.109" y="335.91" type="line"/>
      <point x="375.109" y="248.91" type="line"/>
      <point x="218.609" y="248.91" type="line"/>
    </contour>
  </outline>
</glyph>
<glyph name="uni01E4" format="2">
  <advance width="734"/>
  <unicode hex="01E4"/>
  <outline>
    <component base="G"/>
    <contour>
      <point x="557.949" y="114.376" type="line"/>
      <point x="402.449" y="114.376" type="line"/>
      <point x="402.449" y="201.376" type="line"/>
      <point x="557.949" y="201.376" type="line"/>
    </contour>
    <contour>
      <point x="577.503" y="201.376" type="line"/>
      <point x="734.003" y="201.376" type="line"/>
      <point x="734.003" y="114.376" type="line"/>
      <point x="577.503" y="114.376" type="line"/>
    </contour>
  </outline>
</glyph>
<glyph name="uni01E5" format="2">
  <advance width="520"/>
  <unicode hex="01E5"/>
  <outline>
    <component base="g"/>
    <contour>
      <point x="98.7428" y="-158.823" type="line"/>
      <point x="0" y="-158.823" type="line"/>
      <point x="0" y="-71.8232" type="line"/>
      <point x="98.7424" y="-71.8232" type="line"/>
    </contour>
    <contour>
      <point x="115.999" y="-71.8232" type="line"/>
      <point x="555.177" y="-71.8232" type="line"/>
      <point x="555.177" y="-158.823" type="line"/>
      <point x="115.999" y="-158.823" type="line"/>
    </contour>
  </outline>
</glyph>
<glyph name="dotlessj" format="2">
  <advance width="316"/>
  <unicode hex="0237"/>
  <outline>
    <contour>
      <point x="-12" y="-201" type="line"/>
      <point x="95" y="-165"/>
      <point x="98" y="-71"/>
      <point x="98" y="31" type="curve" smooth="yes"/>
      <point x="98" y="381" type="line" smooth="yes"/>
      <point x="98" y="421"/>
      <point x="90" y="430"/>
      <point x="74" y="432" type="curve" smooth="yes"/>
      <point x="39" y="437" type="line"/>
      <point x="39" y="473" type="line"/>
      <point x="242" y="502" type="line"/>
      <point x="249" y="496" type="line"/>
      <point x="249" y="25" type="line" smooth="yes"/>
      <point x="249" y="-166"/>
      <point x="175" y="-232"/>
      <point x="-8" y="-232" type="curve"/>
    </contour>
  </outline>
</glyph>
<glyph name="uni0241" format="2">
  <advance width="544"/>
  <unicode hex="0241"/>
  <outline>
    <contour>
      <point x="37" y="595.25" type="curve" smooth="yes"/>
      <point x="37" y="648"/>
      <point x="134" y="707"/>
      <point x="277.729" y="707" type="curve" smooth="yes"/>
      <point x="419" y="707"/>
      <point x="504" y="650"/>
      <point x="504" y="559" type="curve" smooth="yes"/>
      <point x="504" y="479.121"/>
      <point x="464.88" y="426.753"/>
      <point x="425.946" y="374.634" type="curve" smooth="yes"/>
      <point x="387.382" y="323.009"/>
      <point x="349" y="271.629"/>
      <point x="349" y="194" type="curve" smooth="yes"/>
      <point x="349" y="95" type="line" smooth="yes"/>
      <point x="349" y="48.6748"/>
      <point x="388.443" y="41.9689"/>
      <point x="445" y="38" type="curve"/>
      <point x="445" y="0" type="line"/>
      <point x="93" y="0" type="line"/>
      <point x="93" y="38" type="line"/>
      <point x="149.557" y="41.9689"/>
      <point x="189" y="48.6748"/>
      <point x="189" y="95" type="curve" smooth="yes"/>
      <point x="189" y="165" type="line" smooth="yes"/>
      <point x="189" y="268.012"/>
      <point x="229.194" y="330.829"/>
      <point x="267.546" y="390.77" type="curve" smooth="yes"/>
      <point x="302.539" y="445.461"/>
      <point x="336" y="497.756"/>
      <point x="336" y="576" type="curve" smooth="yes"/>
      <point x="336" y="649"/>
      <point x="306" y="661"/>
      <point x="274.65" y="661" type="curve" smooth="yes"/>
      <point x="216" y="661"/>
      <point x="174" y="619"/>
      <point x="162" y="551" type="curve" smooth="yes"/>
      <point x="157.569" y="525.893"/>
      <point x="137" y="522"/>
      <point x="109" y="522" type="curve" smooth="yes"/>
      <point x="88" y="522"/>
      <point x="37" y="557"/>
    </contour>
  </outline>
</glyph>
<glyph name="uni0244" format="2">
  <advance width="812"/>
  <unicode hex="0244"/>
  <outline>
    <component base="U"/>
    <contour>
      <point x="187.501" y="325" type="line"/>
      <point x="32.0011" y="325" type="line"/>
      <point x="32.0011" y="412" type="line"/>
      <point x="187.501" y="412" type="line"/>
    </contour>
    <contour>
      <point x="213.964" y="412" type="line"/>
      <point x="780.276" y="412" type="line"/>
      <point x="780.276" y="325" type="line"/>
      <point x="213.964" y="325" type="line"/>
    </contour>
  </outline>
</glyph>
<glyph name="uni0256" format="2">
  <advance width="605"/>
  <unicode hex="0256"/>
  <outline>
    <contour>
      <point x="34" y="236" type="curve" smooth="yes"/>
      <point x="34" y="401"/>
      <point x="130" y="502"/>
      <point x="296" y="502" type="curve" smooth="yes"/>
      <point x="330" y="502"/>
      <point x="358" y="498"/>
      <point x="380" y="489" type="curve"/>
      <point x="380" y="621" type="line" smooth="yes"/>
      <point x="380" y="661"/>
      <point x="372" y="670"/>
      <point x="356" y="673" type="curve" smooth="yes"/>
      <point x="321" y="679" type="line"/>
      <point x="321" y="715" type="line"/>
      <point x="524" y="742" type="line"/>
      <point x="531" y="736" type="line"/>
      <point x="531" y="87" type="line"/>
      <point x="380" y="50" type="line"/>
      <point x="326" y="7"/>
      <point x="272" y="-12"/>
      <point x="235" y="-12" type="curve" smooth="yes"/>
      <point x="108" y="-12"/>
      <point x="34" y="90"/>
    </contour>
    <contour>
      <point x="193" y="258" type="curve" smooth="yes"/>
      <point x="193" y="128"/>
      <point x="237" y="65"/>
      <point x="306" y="65" type="curve" smooth="yes"/>
      <point x="366" y="65"/>
      <point x="380" y="112"/>
      <point x="380" y="152" type="curve" smooth="yes"/>
      <point x="380" y="358" type="line" smooth="yes"/>
      <point x="380" y="411"/>
      <point x="369" y="456"/>
      <point x="311" y="456" type="curve" smooth="yes"/>
      <point x="248" y="456"/>
      <point x="193" y="403"/>
    </contour>
    <contour>
      <point x="531" y="87" type="line"/>
      <point x="531" y="10" type="line" smooth="yes"/>
      <point x="531" y="-15.5595"/>
      <point x="525.762" y="-51.3266"/>
      <point x="518.929" y="-84.7696" type="curve" smooth="yes"/>
      <point x="512.963" y="-113.972"/>
      <point x="509" y="-141.702"/>
      <point x="509" y="-159" type="curve" smooth="yes"/>
      <point x="509" y="-185"/>
      <point x="519" y="-196"/>
      <point x="529.46" y="-196" type="curve" smooth="yes"/>
      <point x="543.179" y="-196"/>
      <point x="556.519" y="-178.084"/>
      <point x="567.785" y="-155.7" type="curve" smooth="yes"/>
      <point x="581.765" y="-127.927"/>
      <point x="604.336" y="-96"/>
      <point x="634.651" y="-96" type="curve" smooth="yes"/>
      <point x="665" y="-96"/>
      <point x="700" y="-128"/>
      <point x="700" y="-158" type="curve" smooth="yes"/>
      <point x="700" y="-189"/>
      <point x="665" y="-242"/>
      <point x="553" y="-242" type="curve" smooth="yes"/>
      <point x="449" y="-242"/>
      <point x="380" y="-170"/>
      <point x="380" y="-33" type="curve" smooth="yes"/>
      <point x="380" y="50" type="line"/>
    </contour>
  </outline>
</glyph>
<glyph name="uni0257" format="2">
  <advance width="598"/>
  <unicode hex="0257"/>
  <outline>
    <contour>
      <point x="34" y="236" type="curve" smooth="yes"/>
      <point x="34" y="401"/>
      <point x="130" y="502"/>
      <point x="296" y="502" type="curve" smooth="yes"/>
      <point x="330" y="502"/>
      <point x="358" y="498"/>
      <point x="380" y="489" type="curve"/>
      <point x="380" y="480" type="line"/>
      <point x="531" y="480" type="line"/>
      <point x="531" y="87" type="line" smooth="yes"/>
      <point x="531" y="45"/>
      <point x="539" y="41"/>
      <point x="596" y="38" type="curve"/>
      <point x="596" y="0" type="line"/>
      <point x="390" y="0" type="line"/>
      <point x="380" y="10" type="line"/>
      <point x="380" y="50" type="line"/>
      <point x="326" y="7"/>
      <point x="272" y="-12"/>
      <point x="235" y="-12" type="curve" smooth="yes"/>
      <point x="108" y="-12"/>
      <point x="34" y="90"/>
    </contour>
    <contour>
      <point x="193" y="258" type="curve" smooth="yes"/>
      <point x="193" y="128"/>
      <point x="237" y="65"/>
      <point x="306" y="65" type="curve" smooth="yes"/>
      <point x="366" y="65"/>
      <point x="380" y="112"/>
      <point x="380" y="152" type="curve" smooth="yes"/>
      <point x="380" y="358" type="line" smooth="yes"/>
      <point x="380" y="411"/>
      <point x="369" y="456"/>
      <point x="311" y="456" type="curve" smooth="yes"/>
      <point x="248" y="456"/>
      <point x="193" y="403"/>
    </contour>
    <contour>
      <point x="531" y="420.095" type="line"/>
      <point x="380" y="420" type="line"/>
      <point x="380" y="533" type="line" smooth="yes"/>
      <point x="380" y="670"/>
      <point x="449" y="742"/>
      <point x="553" y="742" type="curve" smooth="yes"/>
      <point x="665" y="742"/>
      <point x="700" y="689"/>
      <point x="700" y="658" type="curve" smooth="yes"/>
      <point x="700" y="628"/>
      <point x="665" y="596"/>
      <point x="634.651" y="596" type="curve" smooth="yes"/>
      <point x="604.336" y="596"/>
      <point x="581.765" y="627.927"/>
      <point x="567.785" y="655.7" type="curve" smooth="yes"/>
      <point x="556.519" y="678.084"/>
      <point x="543.179" y="696"/>
      <point x="529.46" y="696" type="curve" smooth="yes"/>
      <point x="519" y="696"/>
      <point x="509" y="685"/>
      <point x="509" y="659" type="curve" smooth="yes"/>
      <point x="509" y="641.702"/>
      <point x="512.963" y="613.972"/>
      <point x="519.612" y="581.429" type="curve" smooth="yes"/>
      <point x="525.762" y="551.327"/>
      <point x="531" y="518.559"/>
      <point x="531" y="502" type="curve" smooth="yes"/>
    </contour>
  </outline>
</glyph>
<glyph name="uni025B" format="2">
  <advance width="492"/>
  <unicode hex="025B"/>
  <outline>
    <contour>
      <point x="34" y="125" type="curve" smooth="yes"/>
      <point x="34" y="213"/>
      <point x="107" y="251"/>
      <point x="191" y="263" type="curve"/>
      <point x="191" y="265" type="line"/>
      <point x="105" y="276"/>
      <point x="65" y="309"/>
      <point x="65" y="380" type="curve" smooth="yes"/>
      <point x="65" y="466"/>
      <point x="177" y="502"/>
      <point x="285" y="502" type="curve" smooth="yes"/>
      <point x="401" y="502"/>
      <point x="474" y="468"/>
      <point x="474" y="413" type="curve" smooth="yes"/>
      <point x="474" y="366"/>
      <point x="430" y="337"/>
      <point x="404" y="337" type="curve" smooth="yes"/>
      <point x="378" y="337"/>
      <point x="364" y="349"/>
      <point x="357" y="372" type="curve" smooth="yes"/>
      <point x="342" y="419"/>
      <point x="317" y="456"/>
      <point x="282" y="456" type="curve" smooth="yes"/>
      <point x="232" y="456"/>
      <point x="213" y="415"/>
      <point x="213" y="373" type="curve" smooth="yes"/>
      <point x="213" y="323"/>
      <point x="238" y="284"/>
      <point x="293" y="284" type="curve" smooth="yes"/>
      <point x="344" y="284" type="line"/>
      <point x="344" y="238" type="line"/>
      <point x="289" y="238" type="line" smooth="yes"/>
      <point x="231" y="238"/>
      <point x="191" y="202"/>
      <point x="191" y="147" type="curve" smooth="yes"/>
      <point x="191" y="85"/>
      <point x="243" y="60"/>
      <point x="301" y="60" type="curve" smooth="yes"/>
      <point x="359" y="60"/>
      <point x="407" y="84"/>
      <point x="450" y="147" type="curve"/>
      <point x="482" y="127" type="line"/>
      <point x="436" y="17"/>
      <point x="341" y="-12"/>
      <point x="249" y="-12" type="curve" smooth="yes"/>
      <point x="120" y="-12"/>
      <point x="34" y="38"/>
    </contour>
  </outline>
</glyph>
<glyph name="uni025F" format="2">
  <advance width="315"/>
  <unicode hex="025F"/>
  <outline>
    <component base="dotlessj"/>
    <contour>
      <point x="178.446" y="206" type="line"/>
      <point x="22.9461" y="206" type="line"/>
      <point x="22.9461" y="293" type="line"/>
      <point x="178.446" y="293" type="line"/>
    </contour>
    <contour>
      <point x="143.21" y="293" type="line"/>
      <point x="299.71" y="293" type="line"/>
      <point x="299.71" y="206" type="line"/>
      <point x="143.21" y="206" type="line"/>
    </contour>
  </outline>
</glyph>
<glyph name="uni0264" format="2">
  <advance width="493"/>
  <unicode hex="0264"/>
  <outline>
    <contour>
      <point x="-20.0844" y="461" type="curve"/>
      <point x="-20.0844" y="490" type="line"/>
      <point x="255.847" y="490" type="line"/>
      <point x="255.847" y="461" type="line"/>
      <point x="217.847" y="456" type="line" smooth="yes"/>
      <point x="204.92" y="454.299"/>
      <point x="196.847" y="449"/>
      <point x="196.847" y="441" type="curve" smooth="yes"/>
      <point x="196.847" y="437"/>
      <point x="198.8" y="431.971"/>
      <point x="201.847" y="427" type="curve" smooth="yes"/>
      <point x="278.862" y="301.357" type="line"/>
      <point x="280.862" y="301.357" type="line"/>
      <point x="364.348" y="429" type="line" smooth="yes"/>
      <point x="366.796" y="432.743"/>
      <point x="367.348" y="436"/>
      <point x="367.348" y="439" type="curve" smooth="yes"/>
      <point x="367.348" y="448"/>
      <point x="361.296" y="454.506"/>
      <point x="349.348" y="456" type="curve" smooth="yes"/>
      <point x="309.348" y="461" type="line"/>
      <point x="309.348" y="490" type="line"/>
      <point x="524.348" y="490" type="line"/>
      <point x="524.348" y="461" type="line"/>
      <point x="478.348" y="459"/>
      <point x="468.586" y="448.845"/>
      <point x="448.348" y="418" type="curve" smooth="yes"/>
      <point x="330.901" y="239" type="line"/>
      <point x="370.342" y="180.12"/>
      <point x="385.901" y="133.549"/>
      <point x="385.901" y="99.3418" type="curve" smooth="yes"/>
      <point x="385.901" y="34.085"/>
      <point x="329.28" y="-12"/>
      <point x="253.166" y="-12" type="curve" smooth="yes"/>
      <point x="174.034" y="-12"/>
      <point x="129.916" y="37.8116"/>
      <point x="129.916" y="92.2056" type="curve" smooth="yes"/>
      <point x="129.916" y="128.764"/>
      <point x="148.893" y="167.941"/>
      <point x="185.916" y="207.812" type="curve"/>
      <point x="63.9156" y="397" type="line" smooth="yes"/>
      <point x="29.4944" y="450.378"/>
      <point x="24.9156" y="454"/>
    </contour>
    <contour>
      <point x="207" y="76.4302" type="curve" smooth="yes"/>
      <point x="207" y="50.0926"/>
      <point x="226" y="34.0926"/>
      <point x="250.701" y="34.0926" type="curve" smooth="yes"/>
      <point x="279" y="34.0926"/>
      <point x="288" y="55.0926"/>
      <point x="288" y="71.3023" type="curve" smooth="yes"/>
      <point x="288" y="84.5375"/>
      <point x="282" y="104"/>
      <point x="251" y="152" type="curve"/>
      <point x="249" y="152" type="line"/>
      <point x="217" y="116"/>
      <point x="207" y="95.5375"/>
    </contour>
  </outline>
</glyph>
<glyph name="uni0266" format="2">
  <advance width="742"/>
  <unicode hex="0266"/>
  <outline>
    <contour>
      <point x="406" y="200" type="line"/>
      <point x="406" y="332" type="line" smooth="yes"/>
      <point x="406" y="392"/>
      <point x="378" y="425"/>
      <point x="325" y="425" type="curve" smooth="yes"/>
      <point x="260" y="425"/>
      <point x="235" y="375"/>
      <point x="235" y="317" type="curve"/>
      <point x="185" y="316.961" type="line"/>
      <point x="185" y="392.398" type="line"/>
      <point x="235" y="433" type="line" smooth="yes"/>
      <point x="294.471" y="481.293"/>
      <point x="344" y="502"/>
      <point x="404.743" y="502" type="curve" smooth="yes"/>
      <point x="509" y="502"/>
      <point x="557" y="441"/>
      <point x="557" y="347" type="curve" smooth="yes"/>
      <point x="557" y="200" type="line"/>
    </contour>
    <contour>
      <point x="19" y="0" type="line"/>
      <point x="19" y="38" type="line"/>
      <point x="76" y="41"/>
      <point x="84" y="45"/>
      <point x="84" y="87" type="curve" smooth="yes"/>
      <point x="84" y="450" type="line"/>
      <point x="235" y="450" type="line"/>
      <point x="235" y="87" type="line" smooth="yes"/>
      <point x="235" y="45"/>
      <point x="243" y="41"/>
      <point x="300" y="38" type="curve"/>
      <point x="300" y="0" type="line"/>
    </contour>
    <contour>
      <point x="84" y="450" type="line"/>
      <point x="84" y="460" type="line" smooth="yes"/>
      <point x="84" y="663"/>
      <point x="185" y="748"/>
      <point x="299" y="748" type="curve" smooth="yes"/>
      <point x="437.837" y="748"/>
      <point x="468.607" y="701"/>
      <point x="468.607" y="659.095" type="curve" smooth="yes"/>
      <point x="468.607" y="603.002"/>
      <point x="413.472" y="587.527"/>
      <point x="389.278" y="587.527" type="curve" smooth="yes"/>
      <point x="374.472" y="587.527"/>
      <point x="363.098" y="593.322"/>
      <point x="352.196" y="613.625" type="curve" smooth="yes"/>
      <point x="328.931" y="656.95"/>
      <point x="307.558" y="683"/>
      <point x="279.761" y="683" type="curve" smooth="yes"/>
      <point x="244.887" y="683"/>
      <point x="235" y="642"/>
      <point x="235" y="582" type="curve" smooth="yes"/>
      <point x="235" y="450" type="line"/>
    </contour>
    <contour>
      <point x="557" y="87" type="line" smooth="yes"/>
      <point x="557.11" y="45"/>
      <point x="565" y="41"/>
      <point x="622" y="38" type="curve"/>
      <point x="622" y="0" type="line"/>
      <point x="353" y="0" type="line"/>
      <point x="353" y="38" type="line"/>
      <point x="387" y="41"/>
      <point x="406.067" y="45"/>
      <point x="406" y="87" type="curve" smooth="yes"/>
      <point x="405.819" y="200" type="line"/>
      <point x="556.705" y="200" type="line"/>
    </contour>
  </outline>
</glyph>
<glyph name="uni0267" format="2">
  <advance width="605"/>
  <unicode hex="0267"/>
  <outline>
    <contour>
      <point x="84" y="450" type="line"/>
      <point x="84" y="460" type="line" smooth="yes"/>
      <point x="84" y="663"/>
      <point x="185" y="748"/>
      <point x="299" y="748" type="curve" smooth="yes"/>
      <point x="437.837" y="748"/>
      <point x="468.607" y="701"/>
      <point x="468.607" y="659.095" type="curve" smooth="yes"/>
      <point x="468.607" y="603.002"/>
      <point x="413.472" y="587.527"/>
      <point x="389.278" y="587.527" type="curve" smooth="yes"/>
      <point x="374.472" y="587.527"/>
      <point x="363.098" y="593.322"/>
      <point x="352.196" y="613.625" type="curve" smooth="yes"/>
      <point x="328.931" y="656.95"/>
      <point x="307.558" y="683"/>
      <point x="279.761" y="683" type="curve" smooth="yes"/>
      <point x="244.887" y="683"/>
      <point x="235" y="642"/>
      <point x="235" y="582" type="curve" smooth="yes"/>
      <point x="235" y="450" type="line"/>
    </contour>
    <contour>
      <point x="557" y="99.8823" type="line"/>
      <point x="557" y="-25" type="line" smooth="yes"/>
      <point x="557" y="-126.096"/>
      <point x="477.259" y="-242"/>
      <point x="347.987" y="-242" type="curve" smooth="yes"/>
      <point x="255.881" y="-242"/>
      <point x="199" y="-203"/>
      <point x="199" y="-158.479" type="curve" smooth="yes"/>
      <point x="199" y="-125.729"/>
      <point x="229.78" y="-92"/>
      <point x="272.058" y="-92" type="curve" smooth="yes"/>
      <point x="291" y="-92"/>
      <point x="308.487" y="-98.7709"/>
      <point x="313" y="-109" type="curve" smooth="yes"/>
      <point x="338.493" y="-166.785"/>
      <point x="360" y="-186.716"/>
      <point x="377.538" y="-186.716" type="curve" smooth="yes"/>
      <point x="394" y="-186.716"/>
      <point x="413" y="-171.967"/>
      <point x="413" y="-111.153" type="curve" smooth="yes"/>
      <point x="413" y="-101.226"/>
      <point x="412.494" y="-86.4167"/>
      <point x="410.026" y="-66.6964" type="curve" smooth="yes"/>
      <point x="407.518" y="-46.6439"/>
      <point x="406" y="-21.4822"/>
      <point x="406" y="0" type="curve" smooth="yes"/>
      <point x="406" y="99.8823" type="line"/>
    </contour>
    <contour>
      <point x="406" y="100" type="line"/>
      <point x="406" y="332" type="line" smooth="yes"/>
      <point x="406" y="392"/>
      <point x="378" y="425"/>
      <point x="325" y="425" type="curve" smooth="yes"/>
      <point x="260" y="425"/>
      <point x="235" y="375"/>
      <point x="235" y="317" type="curve"/>
      <point x="185" y="316.961" type="line"/>
      <point x="185" y="392.398" type="line"/>
      <point x="235" y="433" type="line" smooth="yes"/>
      <point x="294.471" y="481.293"/>
      <point x="344" y="502"/>
      <point x="404.743" y="502" type="curve" smooth="yes"/>
      <point x="509" y="502"/>
      <point x="557" y="441"/>
      <point x="557" y="347" type="curve" smooth="yes"/>
      <point x="557" y="100" type="line"/>
    </contour>
    <contour>
      <point x="19" y="0" type="line"/>
      <point x="19" y="38" type="line"/>
      <point x="76" y="41"/>
      <point x="84" y="45"/>
      <point x="84" y="87" type="curve" smooth="yes"/>
      <point x="84" y="450" type="line"/>
      <point x="235" y="450" type="line"/>
      <point x="235" y="87" type="line" smooth="yes"/>
      <point x="235" y="45"/>
      <point x="243" y="41"/>
      <point x="300" y="38" type="curve"/>
      <point x="300" y="0" type="line"/>
    </contour>
  </outline>
</glyph>
<glyph name="uni0269" format="2">
  <advance width="371"/>
  <unicode hex="0269"/>
  <outline>
    <contour>
      <point x="32" y="437" type="line"/>
      <point x="32" y="473" type="line"/>
      <point x="235" y="502" type="line"/>
      <point x="242" y="496" type="line"/>
      <point x="242" y="155" type="line" smooth="yes"/>
      <point x="242" y="91"/>
      <point x="268" y="63"/>
      <point x="306" y="63" type="curve" smooth="yes"/>
      <point x="328" y="63"/>
      <point x="349" y="67"/>
      <point x="363" y="73" type="curve"/>
      <point x="374" y="42" type="line"/>
      <point x="318" y="7"/>
      <point x="256" y="-12"/>
      <point x="215" y="-12" type="curve" smooth="yes"/>
      <point x="159" y="-12"/>
      <point x="91" y="26"/>
      <point x="91" y="117" type="curve" smooth="yes"/>
      <point x="91" y="381" type="line" smooth="yes"/>
      <point x="91" y="421"/>
      <point x="83" y="430"/>
      <point x="67" y="432" type="curve" smooth="yes"/>
    </contour>
  </outline>
</glyph>
<glyph name="uni026B" format="2">
  <advance width="537"/>
  <unicode hex="026B"/>
  <outline>
    <component base="l" xOffset="109"/>
    <contour>
      <point x="213" y="335.408" type="line"/>
      <point x="178.593" y="348.338"/>
      <point x="143.811" y="359.826"/>
      <point x="110.035" y="359.826" type="curve" smooth="yes"/>
      <point x="70.1747" y="359.826"/>
      <point x="54.1747" y="343.826"/>
      <point x="32.1747" y="304.826" type="curve"/>
      <point x="0.1747" y="322.826" type="line"/>
      <point x="18.1747" y="365.826"/>
      <point x="53.1747" y="444.826"/>
      <point x="135.175" y="444.826" type="curve" smooth="yes"/>
      <point x="159.053" y="444.826"/>
      <point x="185.84" y="437.554"/>
      <point x="213.056" y="428.59" type="curve"/>
    </contour>
    <contour>
      <point x="324" y="401.33" type="line"/>
      <point x="358.407" y="388.401"/>
      <point x="393.189" y="376.912"/>
      <point x="426.965" y="376.912" type="curve" smooth="yes"/>
      <point x="466.825" y="376.912"/>
      <point x="482.825" y="392.912"/>
      <point x="504.825" y="431.912" type="curve"/>
      <point x="536.825" y="413.912" type="line"/>
      <point x="518.825" y="370.912"/>
      <point x="483.825" y="291.912"/>
      <point x="401.825" y="291.912" type="curve" smooth="yes"/>
      <point x="377.947" y="291.912"/>
      <point x="351.16" y="299.185"/>
      <point x="323.944" y="308.148" type="curve"/>
    </contour>
  </outline>
</glyph>
<glyph name="uni026C" format="2">
  <advance width="474"/>
  <unicode hex="026C"/>
  <outline>
    <component base="l" xOffset="125"/>
    <contour>
      <point x="230.023" y="520.023" type="line"/>
      <point x="207.042" y="531.478"/>
      <point x="172.409" y="537.599"/>
      <point x="132.215" y="537.599" type="curve" smooth="yes"/>
      <point x="58.674" y="537.599"/>
      <point x="10.5581" y="487.226"/>
      <point x="10.5581" y="413.559" type="curve" smooth="yes"/>
      <point x="10.5581" y="307.311"/>
      <point x="110.646" y="251.937"/>
      <point x="228.215" y="251.937" type="curve"/>
      <point x="236.222" y="314.561" type="line"/>
      <point x="165" y="315"/>
      <point x="126.527" y="351.117"/>
      <point x="126.527" y="398.355" type="curve" smooth="yes"/>
      <point x="126.527" y="432.76"/>
      <point x="146.935" y="448.716"/>
      <point x="176.751" y="448.716" type="curve" smooth="yes"/>
      <point x="195.931" y="448.716"/>
      <point x="213.263" y="442.113"/>
      <point x="230.051" y="423.1" type="curve"/>
    </contour>
    <contour>
      <point x="342.934" y="258.787" type="line"/>
      <point x="380.834" y="268.862"/>
      <point x="422.458" y="294.696"/>
      <point x="480" y="339" type="curve"/>
      <point x="459.662" y="378.797" type="line"/>
      <point x="420.079" y="351.654"/>
      <point x="383.252" y="331.888"/>
      <point x="339.023" y="321.006" type="curve"/>
    </contour>
  </outline>
</glyph>
<glyph name="uni0273" format="2">
  <advance width="620"/>
  <unicode hex="0273"/>
  <outline>
    <contour>
      <point x="413" y="99.8823" type="line"/>
      <point x="413" y="-25" type="line" smooth="yes"/>
      <point x="413" y="-126.096"/>
      <point x="492.741" y="-242"/>
      <point x="622.013" y="-242" type="curve" smooth="yes"/>
      <point x="714.119" y="-242"/>
      <point x="771" y="-203"/>
      <point x="771" y="-158.479" type="curve" smooth="yes"/>
      <point x="771" y="-125.729"/>
      <point x="740.22" y="-92"/>
      <point x="697.942" y="-92" type="curve" smooth="yes"/>
      <point x="679" y="-92"/>
      <point x="661.513" y="-98.7709"/>
      <point x="657" y="-109" type="curve" smooth="yes"/>
      <point x="631.507" y="-166.785"/>
      <point x="610" y="-186.716"/>
      <point x="592.462" y="-186.716" type="curve" smooth="yes"/>
      <point x="576" y="-186.716"/>
      <point x="557" y="-171.967"/>
      <point x="557" y="-111.153" type="curve" smooth="yes"/>
      <point x="557" y="-101.226"/>
      <point x="557.506" y="-86.4167"/>
      <point x="559.974" y="-66.6964" type="curve" smooth="yes"/>
      <point x="562.482" y="-46.6439"/>
      <point x="564" y="-21.4822"/>
      <point x="564" y="0" type="curve" smooth="yes"/>
      <point x="564" y="99.8823" type="line"/>
    </contour>
    <contour>
      <point x="295" y="0" type="line"/>
      <point x="295" y="38" type="line"/>
      <point x="261" y="41"/>
      <point x="242" y="44"/>
      <point x="242" y="80" type="curve" smooth="yes"/>
      <point x="242" y="317" type="line" smooth="yes"/>
      <point x="242" y="375"/>
      <point x="267" y="425"/>
      <point x="334" y="425" type="curve" smooth="yes"/>
      <point x="385" y="425"/>
      <point x="413" y="394"/>
      <point x="413" y="334" type="curve" smooth="yes"/>
      <point x="413" y="100" type="line"/>
      <point x="564" y="100" type="line"/>
      <point x="564" y="348" type="line" smooth="yes"/>
      <point x="564" y="442"/>
      <point x="516" y="502"/>
      <point x="419" y="502" type="curve" smooth="yes"/>
      <point x="355" y="502"/>
      <point x="308" y="476"/>
      <point x="242" y="433" type="curve"/>
      <point x="229" y="502" type="line"/>
      <point x="32" y="473" type="line"/>
      <point x="32" y="437" type="line"/>
      <point x="67" y="432" type="line" smooth="yes"/>
      <point x="83" y="430"/>
      <point x="91" y="421"/>
      <point x="91" y="381" type="curve" smooth="yes"/>
      <point x="91" y="87" type="line" smooth="yes"/>
      <point x="91" y="45"/>
      <point x="83" y="41"/>
      <point x="26" y="38" type="curve"/>
      <point x="26" y="0" type="line"/>
    </contour>
  </outline>
</glyph>
<glyph name="uni0274" format="2">
  <advance width="629"/>
  <unicode hex="0274"/>
  <outline>
    <contour>
      <point x="32" y="0" type="line"/>
      <point x="32" y="29" type="line"/>
      <point x="104" y="34"/>
      <point x="107" y="36"/>
      <point x="107" y="87" type="curve" smooth="yes"/>
      <point x="107" y="403" type="line" smooth="yes"/>
      <point x="107" y="454"/>
      <point x="104" y="456"/>
      <point x="32" y="461" type="curve"/>
      <point x="32" y="490" type="line"/>
      <point x="261.994" y="490" type="line"/>
      <point x="503.988" y="156" type="line"/>
      <point x="505" y="156" type="line"/>
      <point x="505" y="403" type="line" smooth="yes"/>
      <point x="505" y="454"/>
      <point x="490.838" y="456"/>
      <point x="425.087" y="460" type="curve"/>
      <point x="425.087" y="489" type="line"/>
      <point x="638" y="489" type="line"/>
      <point x="638" y="460" type="line"/>
      <point x="566" y="455"/>
      <point x="563" y="453"/>
      <point x="563" y="402" type="curve" smooth="yes"/>
      <point x="563" y="0" type="line"/>
      <point x="436.329" y="0" type="line"/>
      <point x="167.023" y="367" type="line"/>
      <point x="165" y="367" type="line"/>
      <point x="165" y="86" type="line" smooth="yes"/>
      <point x="165" y="35"/>
      <point x="179.162" y="33"/>
      <point x="244.913" y="29" type="curve"/>
      <point x="244.913" y="0" type="line"/>
    </contour>
  </outline>
</glyph>
<glyph name="uni027A" format="2">
  <advance width="389"/>
  <unicode hex="027A"/>
  <outline>
    <contour>
      <point x="-2" y="60.6948" type="curve" smooth="yes"/>
      <point x="-2" y="103"/>
      <point x="22" y="141"/>
      <point x="65" y="141" type="curve" smooth="yes"/>
      <point x="84" y="141"/>
      <point x="98" y="133"/>
      <point x="111" y="125" type="curve" smooth="yes"/>
      <point x="133" y="112"/>
      <point x="148" y="104"/>
      <point x="162.839" y="104" type="curve" smooth="yes"/>
      <point x="188" y="104"/>
      <point x="198" y="127"/>
      <point x="198" y="179" type="curve" smooth="yes"/>
      <point x="198" y="621" type="line" smooth="yes"/>
      <point x="198" y="661"/>
      <point x="189.962" y="669.72"/>
      <point x="174" y="672" type="curve" smooth="yes"/>
      <point x="139" y="677" type="line"/>
      <point x="139" y="713" type="line"/>
      <point x="342" y="742" type="line"/>
      <point x="349" y="736" type="line"/>
      <point x="349" y="109" type="line" smooth="yes"/>
      <point x="349" y="69"/>
      <point x="357" y="60"/>
      <point x="373" y="58" type="curve" smooth="yes"/>
      <point x="408" y="53" type="line"/>
      <point x="408" y="17" type="line"/>
      <point x="213" y="-12" type="line"/>
      <point x="201" y="76" type="line"/>
      <point x="143" y="15"/>
      <point x="110" y="-12"/>
      <point x="68" y="-12" type="curve" smooth="yes"/>
      <point x="26" y="-12"/>
      <point x="-2" y="15"/>
    </contour>
  </outline>
</glyph>
<glyph name="uni027B" format="2">
  <advance width="372"/>
  <unicode hex="027B"/>
  <outline>
    <contour>
      <point x="-2" y="60.6948" type="curve" smooth="yes"/>
      <point x="-2" y="103"/>
      <point x="22" y="141"/>
      <point x="65" y="141" type="curve" smooth="yes"/>
      <point x="84" y="141"/>
      <point x="98" y="133"/>
      <point x="111" y="125" type="curve" smooth="yes"/>
      <point x="133" y="112"/>
      <point x="148" y="104"/>
      <point x="162.839" y="104" type="curve" smooth="yes"/>
      <point x="188" y="104"/>
      <point x="198" y="127"/>
      <point x="198" y="179" type="curve" smooth="yes"/>
      <point x="198" y="381" type="line" smooth="yes"/>
      <point x="198" y="421"/>
      <point x="190" y="430"/>
      <point x="174" y="432" type="curve" smooth="yes"/>
      <point x="139" y="437" type="line"/>
      <point x="139" y="473" type="line"/>
      <point x="345" y="502" type="line"/>
      <point x="352" y="496" type="line"/>
      <point x="352" y="0" type="line"/>
      <point x="201" y="0" type="line"/>
      <point x="201" y="76" type="line"/>
      <point x="143" y="15"/>
      <point x="110" y="-12"/>
      <point x="68" y="-12" type="curve" smooth="yes"/>
      <point x="26" y="-12"/>
      <point x="-2" y="15"/>
    </contour>
    <contour>
      <point x="352" y="99.8823" type="line"/>
      <point x="352" y="0" type="line" smooth="yes"/>
      <point x="352" y="-21.4822"/>
      <point x="350.482" y="-46.6439"/>
      <point x="347.974" y="-66.6964" type="curve" smooth="yes"/>
      <point x="345.506" y="-86.4167"/>
      <point x="345" y="-101.226"/>
      <point x="345" y="-111.153" type="curve" smooth="yes"/>
      <point x="345" y="-171.967"/>
      <point x="364" y="-186.716"/>
      <point x="380.462" y="-186.716" type="curve" smooth="yes"/>
      <point x="398" y="-186.716"/>
      <point x="419.507" y="-166.785"/>
      <point x="445" y="-109" type="curve" smooth="yes"/>
      <point x="449.513" y="-98.7709"/>
      <point x="467" y="-92"/>
      <point x="485.942" y="-92" type="curve" smooth="yes"/>
      <point x="528.22" y="-92"/>
      <point x="559" y="-125.729"/>
      <point x="559" y="-158.479" type="curve" smooth="yes"/>
      <point x="559" y="-203"/>
      <point x="502.119" y="-242"/>
      <point x="410.013" y="-242" type="curve" smooth="yes"/>
      <point x="280.741" y="-242"/>
      <point x="201" y="-126.096"/>
      <point x="201" y="-25" type="curve" smooth="yes"/>
      <point x="201" y="99.8823" type="line"/>
    </contour>
  </outline>
</glyph>
<glyph name="uni027C" format="2">
  <advance width="389"/>
  <unicode hex="027C"/>
  <outline>
    <contour>
      <point x="26" y="-230" type="line"/>
      <point x="26" y="-192" type="line"/>
      <point x="83" y="-189"/>
      <point x="91" y="-185"/>
      <point x="91" y="-143" type="curve" smooth="yes"/>
      <point x="91" y="381" type="line" smooth="yes"/>
      <point x="91" y="421"/>
      <point x="83" y="430"/>
      <point x="67" y="432" type="curve" smooth="yes"/>
      <point x="32" y="437" type="line"/>
      <point x="32" y="473" type="line"/>
      <point x="227" y="502" type="line"/>
      <point x="239" y="414" type="line"/>
      <point x="297" y="475"/>
      <point x="330" y="502"/>
      <point x="372" y="502" type="curve" smooth="yes"/>
      <point x="414" y="502"/>
      <point x="442" y="475"/>
      <point x="442" y="430" type="curve" smooth="yes"/>
      <point x="442" y="391"/>
      <point x="421" y="349"/>
      <point x="375" y="349" type="curve" smooth="yes"/>
      <point x="356" y="349"/>
      <point x="342" y="357"/>
      <point x="329" y="365" type="curve" smooth="yes"/>
      <point x="307" y="378"/>
      <point x="292" y="386"/>
      <point x="277" y="386" type="curve" smooth="yes"/>
      <point x="252" y="386"/>
      <point x="242" y="363"/>
      <point x="242" y="311" type="curve" smooth="yes"/>
      <point x="242" y="-143" type="line" smooth="yes"/>
      <point x="242" y="-185"/>
      <point x="251" y="-188"/>
      <point x="328" y="-192" type="curve"/>
      <point x="328" y="-230" type="line"/>
    </contour>
  </outline>
</glyph>
<glyph name="uni027D" format="2">
  <advance width="392"/>
  <unicode hex="027D"/>
  <outline>
    <contour>
      <point x="91" y="100" type="line"/>
      <point x="91" y="381" type="line" smooth="yes"/>
      <point x="91" y="421"/>
      <point x="83" y="430"/>
      <point x="67" y="432" type="curve" smooth="yes"/>
      <point x="32" y="437" type="line"/>
      <point x="32" y="473" type="line"/>
      <point x="227" y="502" type="line"/>
      <point x="239" y="414" type="line"/>
      <point x="297" y="475"/>
      <point x="330" y="502"/>
      <point x="372" y="502" type="curve" smooth="yes"/>
      <point x="414" y="502"/>
      <point x="442" y="475"/>
      <point x="442" y="430" type="curve" smooth="yes"/>
      <point x="442" y="391"/>
      <point x="421" y="349"/>
      <point x="375" y="349" type="curve" smooth="yes"/>
      <point x="356" y="349"/>
      <point x="342" y="357"/>
      <point x="329" y="365" type="curve" smooth="yes"/>
      <point x="307" y="378"/>
      <point x="292" y="386"/>
      <point x="277" y="386" type="curve" smooth="yes"/>
      <point x="252" y="386"/>
      <point x="242" y="363"/>
      <point x="242" y="311" type="curve" smooth="yes"/>
      <point x="242" y="100" type="line"/>
    </contour>
    <contour>
      <point x="242" y="99.8823" type="line"/>
      <point x="242" y="0" type="line" smooth="yes"/>
      <point x="242" y="-21.4822"/>
      <point x="240.482" y="-46.6439"/>
      <point x="237.974" y="-66.6964" type="curve" smooth="yes"/>
      <point x="235.506" y="-86.4167"/>
      <point x="235" y="-101.226"/>
      <point x="235" y="-111.153" type="curve" smooth="yes"/>
      <point x="235" y="-171.967"/>
      <point x="254" y="-186.716"/>
      <point x="270.462" y="-186.716" type="curve" smooth="yes"/>
      <point x="288" y="-186.716"/>
      <point x="309.507" y="-166.785"/>
      <point x="335" y="-109" type="curve" smooth="yes"/>
      <point x="339.513" y="-98.7709"/>
      <point x="357" y="-92"/>
      <point x="375.942" y="-92" type="curve" smooth="yes"/>
      <point x="418.22" y="-92"/>
      <point x="449" y="-125.729"/>
      <point x="449" y="-158.479" type="curve" smooth="yes"/>
      <point x="449" y="-203"/>
      <point x="392.119" y="-242"/>
      <point x="300.013" y="-242" type="curve" smooth="yes"/>
      <point x="170.741" y="-242"/>
      <point x="91" y="-126.096"/>
      <point x="91" y="-25" type="curve" smooth="yes"/>
      <point x="91" y="99.8823" type="line"/>
    </contour>
  </outline>
</glyph>
<glyph name="uni027F" format="2">
  <advance width="378"/>
  <unicode hex="027F"/>
  <outline>
    <contour>
      <point x="375" y="-230" type="line"/>
      <point x="375" y="-201" type="line"/>
      <point x="305" y="-196"/>
      <point x="300" y="-194"/>
      <point x="300" y="-143" type="curve" smooth="yes"/>
      <point x="300" y="260" type="line" smooth="yes"/>
      <point x="300" y="401.184"/>
      <point x="169.572" y="502"/>
      <point x="40.8199" y="502" type="curve" smooth="yes"/>
      <point x="-22" y="502"/>
      <point x="-59" y="478"/>
      <point x="-59" y="428.626" type="curve" smooth="yes"/>
      <point x="-59" y="395"/>
      <point x="-41.8379" y="367"/>
      <point x="-10.8205" y="367" type="curve" smooth="yes"/>
      <point x="12.1764" y="367"/>
      <point x="43.8716" y="382.392"/>
      <point x="59.2338" y="393.494" type="curve" smooth="yes"/>
      <point x="72.6421" y="403.184"/>
      <point x="87.2274" y="408"/>
      <point x="98.5151" y="408" type="curve" smooth="yes"/>
      <point x="124.052" y="408"/>
      <point x="149" y="383.348"/>
      <point x="149" y="281" type="curve" smooth="yes"/>
      <point x="149" y="-143" type="line" smooth="yes"/>
      <point x="149" y="-194"/>
      <point x="143" y="-196"/>
      <point x="54" y="-201" type="curve"/>
      <point x="54" y="-230" type="line"/>
    </contour>
  </outline>
</glyph>
<glyph name="uni0284" format="2">
  <advance width="405"/>
  <unicode hex="0284"/>
  <outline>
    <contour>
      <point x="126" y="250.208" type="line"/>
      <point x="126" y="533" type="line" smooth="yes"/>
      <point x="126" y="670"/>
      <point x="195" y="742"/>
      <point x="311.902" y="742" type="curve" smooth="yes"/>
      <point x="415" y="742"/>
      <point x="451" y="686"/>
      <point x="451" y="651.654" type="curve" smooth="yes"/>
      <point x="451" y="615"/>
      <point x="410" y="591"/>
      <point x="376.604" y="591" type="curve" smooth="yes"/>
      <point x="354" y="591"/>
      <point x="341.115" y="601.606"/>
      <point x="333" y="621" type="curve" smooth="yes"/>
      <point x="309.989" y="675.995"/>
      <point x="293" y="696"/>
      <point x="277" y="696" type="curve" smooth="yes"/>
      <point x="265" y="696"/>
      <point x="255" y="685"/>
      <point x="255" y="654.287" type="curve" smooth="yes"/>
      <point x="255" y="622"/>
      <point x="266.051" y="536.493"/>
      <point x="277" y="490" type="curve"/>
      <point x="277" y="250.208" type="line"/>
    </contour>
    <contour>
      <point x="-17" y="-178" type="line"/>
      <point x="88" y="-152"/>
      <point x="126" y="-117"/>
      <point x="126" y="36" type="curve" smooth="yes"/>
      <point x="126" y="215" type="line"/>
      <point x="36" y="215" type="line"/>
      <point x="36" y="290" type="line"/>
      <point x="367" y="290" type="line"/>
      <point x="367" y="215" type="line"/>
      <point x="277" y="215" type="line"/>
      <point x="277" y="7" type="line" smooth="yes"/>
      <point x="277" y="-156.494"/>
      <point x="153.812" y="-242"/>
      <point x="-11" y="-242" type="curve"/>
    </contour>
  </outline>
</glyph>
<glyph name="uni0285" format="2">
  <advance width="373"/>
  <unicode hex="0285"/>
  <outline>
    <contour>
      <point x="149" y="100" type="line"/>
      <point x="149" y="281" type="line" smooth="yes"/>
      <point x="149" y="383.348"/>
      <point x="124.052" y="408"/>
      <point x="98.5151" y="408" type="curve" smooth="yes"/>
      <point x="87.2274" y="408"/>
      <point x="72.6421" y="403.184"/>
      <point x="59.2338" y="393.494" type="curve" smooth="yes"/>
      <point x="43.8716" y="382.392"/>
      <point x="12.1764" y="367"/>
      <point x="-10.8205" y="367" type="curve" smooth="yes"/>
      <point x="-41.8379" y="367"/>
      <point x="-59" y="395"/>
      <point x="-59" y="428.626" type="curve" smooth="yes"/>
      <point x="-59" y="478"/>
      <point x="-22" y="502"/>
      <point x="40.8199" y="502" type="curve" smooth="yes"/>
      <point x="169.572" y="502"/>
      <point x="300" y="401.184"/>
      <point x="300" y="260" type="curve" smooth="yes"/>
      <point x="300" y="100" type="line"/>
    </contour>
    <contour>
      <point x="149" y="99.8823" type="line"/>
      <point x="300" y="99.8823" type="line"/>
      <point x="300" y="0" type="line" smooth="yes"/>
      <point x="300" y="-21.4822"/>
      <point x="298.482" y="-46.6439"/>
      <point x="295.974" y="-66.6964" type="curve" smooth="yes"/>
      <point x="293.506" y="-86.4167"/>
      <point x="293" y="-101.226"/>
      <point x="293" y="-111.153" type="curve" smooth="yes"/>
      <point x="293" y="-171.967"/>
      <point x="312" y="-186.716"/>
      <point x="328.462" y="-186.716" type="curve" smooth="yes"/>
      <point x="346" y="-186.716"/>
      <point x="367.507" y="-166.785"/>
      <point x="393" y="-109" type="curve" smooth="yes"/>
      <point x="397.513" y="-98.7709"/>
      <point x="415" y="-92"/>
      <point x="433.942" y="-92" type="curve" smooth="yes"/>
      <point x="476.22" y="-92"/>
      <point x="507" y="-125.729"/>
      <point x="507" y="-158.479" type="curve" smooth="yes"/>
      <point x="507" y="-203"/>
      <point x="450.119" y="-242"/>
      <point x="358.013" y="-242" type="curve" smooth="yes"/>
      <point x="228.741" y="-242"/>
      <point x="149" y="-126.096"/>
      <point x="149" y="-25" type="curve" smooth="yes"/>
    </contour>
  </outline>
</glyph>
<glyph name="uni028B" format="2">
  <advance width="575"/>
  <unicode hex="028B"/>
  <outline>
    <contour>
      <point x="23" y="437" type="line"/>
      <point x="23" y="473" type="line"/>
      <point x="226" y="502" type="line"/>
      <point x="233" y="496" type="line"/>
      <point x="233" y="204" type="line" smooth="yes"/>
      <point x="233" y="91.3918"/>
      <point x="265.747" y="34"/>
      <point x="325.006" y="34" type="curve" smooth="yes"/>
      <point x="399.615" y="34"/>
      <point x="441" y="124.973"/>
      <point x="441" y="278" type="curve" smooth="yes"/>
      <point x="441" y="315.286"/>
      <point x="431.095" y="349.381"/>
      <point x="413" y="377" type="curve" smooth="yes"/>
      <point x="391.922" y="409.172"/>
      <point x="387" y="422.423"/>
      <point x="387" y="437.212" type="curve" smooth="yes"/>
      <point x="387" y="478.648"/>
      <point x="425.636" y="502"/>
      <point x="478" y="502" type="curve" smooth="yes"/>
      <point x="519.594" y="502"/>
      <point x="541" y="453.071"/>
      <point x="541" y="358" type="curve" smooth="yes"/>
      <point x="541" y="128.393"/>
      <point x="459.8" y="-12"/>
      <point x="327" y="-12" type="curve" smooth="yes"/>
      <point x="166.661" y="-12"/>
      <point x="82" y="54.3469"/>
      <point x="82" y="180" type="curve" smooth="yes"/>
      <point x="82" y="381" type="line" smooth="yes"/>
      <point x="82" y="417"/>
      <point x="75.9578" y="429.435"/>
      <point x="58" y="432" type="curve" smooth="yes"/>
    </contour>
  </outline>
</glyph>
<glyph name="uni0297" format="2">
  <advance width="488"/>
  <unicode hex="0297"/>
  <outline>
    <contour>
      <point x="34" y="124.302" type="curve" smooth="yes"/>
      <point x="34" y="365.971"/>
      <point x="127" y="502"/>
      <point x="280" y="502" type="curve" smooth="yes"/>
      <point x="378" y="502"/>
      <point x="478" y="445.562"/>
      <point x="478" y="347.158" type="curve" smooth="yes"/>
      <point x="478" y="279.144"/>
      <point x="430" y="253.096"/>
      <point x="396" y="253.096" type="curve" smooth="yes"/>
      <point x="369" y="253.096"/>
      <point x="354" y="270.461"/>
      <point x="347" y="303.745" type="curve" smooth="yes"/>
      <point x="330" y="390.572"/>
      <point x="313" y="435.433"/>
      <point x="280" y="435.433" type="curve" smooth="yes"/>
      <point x="236" y="435.433"/>
      <point x="193" y="352.947"/>
      <point x="193" y="163.374" type="curve" smooth="yes"/>
      <point x="193" y="-66.7172"/>
      <point x="256" y="-130.39"/>
      <point x="326" y="-130.39" type="curve" smooth="yes"/>
      <point x="376" y="-130.39"/>
      <point x="415" y="-97.1067"/>
      <point x="449" y="1.2973" type="curve"/>
      <point x="484" y="-21.8566" type="line"/>
      <point x="445" y="-201.299"/>
      <point x="352" y="-241.818"/>
      <point x="270" y="-241.818" type="curve" smooth="yes"/>
      <point x="128" y="-241.818"/>
      <point x="34" y="-118.813"/>
    </contour>
  </outline>
</glyph>
<glyph name="uni0298" format="2">
  <advance width="762"/>
  <unicode hex="0298"/>
  <outline>
    <component base="O"/>
    <contour>
      <point x="302.171" y="347.131" type="curve" smooth="yes"/>
      <point x="302.171" y="390.34"/>
      <point x="335.658" y="422.131"/>
      <point x="381.171" y="422.131" type="curve" smooth="yes"/>
      <point x="426.685" y="422.131"/>
      <point x="460.171" y="390.34"/>
      <point x="460.171" y="347.131" type="curve" smooth="yes"/>
      <point x="460.171" y="303.922"/>
      <point x="426.685" y="272.131"/>
      <point x="381.171" y="272.131" type="curve" smooth="yes"/>
      <point x="335.658" y="272.131"/>
      <point x="302.171" y="303.922"/>
    </contour>
  </outline>
</glyph>
<glyph name="uni029B" format="2">
  <advance width="625"/>
  <unicode hex="029B"/>
  <outline>
    <component base="uni0262"/>
    <contour>
      <point x="509.926" y="464.018" type="line"/>
      <point x="460.627" y="464.236" type="line"/>
      <point x="460.627" y="622.686" type="line" smooth="yes"/>
      <point x="460.627" y="687.789"/>
      <point x="476.777" y="742.236"/>
      <point x="559.594" y="742.236" type="curve" smooth="yes"/>
      <point x="642.27" y="742.236"/>
      <point x="688.894" y="719.159"/>
      <point x="688.894" y="670.535" type="curve" smooth="yes"/>
      <point x="688.894" y="640.944"/>
      <point x="671.627" y="611.236"/>
      <point x="636.972" y="611.236" type="curve" smooth="yes"/>
      <point x="614.542" y="611.236"/>
      <point x="596.873" y="623.682"/>
      <point x="584.82" y="648.749" type="curve" smooth="yes"/>
      <point x="577.935" y="663.068"/>
      <point x="564.905" y="682.236"/>
      <point x="545.092" y="682.236" type="curve" smooth="yes"/>
      <point x="527.892" y="682.236"/>
      <point x="509.563" y="667.789"/>
      <point x="509.627" y="631.686" type="curve" smooth="yes"/>
    </contour>
  </outline>
</glyph>
<glyph name="uni02A6" format="2">
  <advance width="696"/>
  <unicode hex="02A6"/>
  <outline>
    <contour>
      <point x="32" y="440" type="line"/>
      <point x="32" y="490" type="line"/>
      <point x="95" y="490" type="line"/>
      <point x="183" y="616" type="line"/>
      <point x="241" y="616" type="line"/>
      <point x="241" y="490" type="line"/>
      <point x="402.968" y="490" type="line"/>
      <point x="428.581" y="497.852"/>
      <point x="458.116" y="502"/>
      <point x="491" y="502" type="curve" smooth="yes"/>
      <point x="543" y="502"/>
      <point x="600" y="492"/>
      <point x="641" y="467" type="curve"/>
      <point x="641" y="334" type="line"/>
      <point x="604" y="334" type="line"/>
      <point x="585" y="410"/>
      <point x="542" y="456"/>
      <point x="490" y="456" type="curve" smooth="yes"/>
      <point x="450" y="456"/>
      <point x="428" y="429"/>
      <point x="428" y="399" type="curve" smooth="yes"/>
      <point x="428" y="358"/>
      <point x="470.95" y="333.9"/>
      <point x="528" y="313" type="curve" smooth="yes"/>
      <point x="620.95" y="278.9"/>
      <point x="675" y="237"/>
      <point x="675" y="151" type="curve" smooth="yes"/>
      <point x="675" y="43"/>
      <point x="591" y="-12"/>
      <point x="471" y="-12" type="curve" smooth="yes"/>
      <point x="214" y="-12" type="line" smooth="yes"/>
      <point x="158" y="-12"/>
      <point x="90" y="26"/>
      <point x="90" y="117" type="curve" smooth="yes"/>
      <point x="90" y="440" type="line"/>
    </contour>
    <contour>
      <point x="475" y="34" type="line" smooth="yes"/>
      <point x="515" y="34"/>
      <point x="540" y="57"/>
      <point x="540" y="93" type="curve" smooth="yes"/>
      <point x="540" y="143"/>
      <point x="491.05" y="173.15"/>
      <point x="434.978" y="192.375" type="curve" smooth="yes"/>
      <point x="351.05" y="221.15"/>
      <point x="293" y="271"/>
      <point x="293" y="353" type="curve" smooth="yes"/>
      <point x="293" y="387.222"/>
      <point x="303.523" y="416.596"/>
      <point x="323.011" y="440" type="curve"/>
      <point x="241" y="440" type="line"/>
      <point x="241" y="155" type="line" smooth="yes"/>
      <point x="241" y="91"/>
      <point x="267" y="34"/>
      <point x="305" y="34" type="curve" smooth="yes"/>
    </contour>
  </outline>
</glyph>
<glyph name="uni02A8" format="2">
  <advance width="766"/>
  <unicode hex="02A8"/>
  <outline>
    <contour>
      <point x="32" y="440" type="line"/>
      <point x="32" y="490" type="line"/>
      <point x="95" y="490" type="line"/>
      <point x="183" y="616" type="line"/>
      <point x="241" y="616" type="line"/>
      <point x="241" y="490" type="line"/>
      <point x="345" y="490" type="line"/>
      <point x="345" y="440" type="line"/>
      <point x="241" y="440" type="line"/>
      <point x="241" y="155" type="line" smooth="yes"/>
      <point x="241" y="91"/>
      <point x="267" y="63"/>
      <point x="302.176" y="63" type="curve" smooth="yes"/>
      <point x="327" y="63"/>
      <point x="370.041" y="76.9441"/>
      <point x="393.824" y="91.712" type="curve"/>
      <point x="404.824" y="60.712" type="line"/>
      <point x="338.736" y="5.05929"/>
      <point x="268.011" y="-12"/>
      <point x="223.874" y="-12" type="curve" smooth="yes"/>
      <point x="158" y="-12"/>
      <point x="90" y="26"/>
      <point x="90" y="117" type="curve" smooth="yes"/>
      <point x="90" y="440" type="line"/>
    </contour>
    <contour>
      <point x="304" y="249.752" type="curve" smooth="yes"/>
      <point x="304" y="408"/>
      <point x="397" y="502"/>
      <point x="550" y="502" type="curve" smooth="yes"/>
      <point x="648" y="502"/>
      <point x="748" y="463"/>
      <point x="748" y="395" type="curve" smooth="yes"/>
      <point x="748" y="348"/>
      <point x="700" y="330"/>
      <point x="666" y="330" type="curve" smooth="yes"/>
      <point x="639" y="330"/>
      <point x="624" y="342"/>
      <point x="617" y="365" type="curve" smooth="yes"/>
      <point x="600" y="425"/>
      <point x="583" y="456"/>
      <point x="550" y="456" type="curve" smooth="yes"/>
      <point x="506" y="456"/>
      <point x="463" y="399"/>
      <point x="463" y="264.597" type="curve" smooth="yes"/>
      <point x="463" y="184.982"/>
      <point x="478.088" y="72.6635"/>
      <point x="580.794" y="72.6635" type="curve" smooth="yes"/>
      <point x="642.662" y="72.6635"/>
      <point x="679.127" y="93.7794"/>
      <point x="678.843" y="131.285" type="curve" smooth="yes"/>
      <point x="678.655" y="156.009"/>
      <point x="662.616" y="171.958"/>
      <point x="638.219" y="171.958" type="curve" smooth="yes"/>
      <point x="560.088" y="171.958"/>
      <point x="513.189" y="154.295"/>
      <point x="427.325" y="75.6406" type="curve"/>
      <point x="421.546" y="109" type="line"/>
      <point x="504.013" y="184.446"/>
      <point x="569.343" y="220.796"/>
      <point x="639.19" y="220.975" type="curve" smooth="yes"/>
      <point x="719" y="221.18"/>
      <point x="742.039" y="174"/>
      <point x="742.039" y="127.866" type="curve" smooth="yes"/>
      <point x="742.039" y="42.9688"/>
      <point x="664.018" y="-12"/>
      <point x="552.313" y="-12" type="curve" smooth="yes"/>
      <point x="402.457" y="-12"/>
      <point x="304" y="86.9279"/>
    </contour>
  </outline>
</glyph>
<glyph name="uni02A9" format="2">
  <advance width="895"/>
  <unicode hex="02A9"/>
  <outline>
    <contour>
      <point x="27" y="0" type="line"/>
      <point x="27" y="38" type="line"/>
      <point x="84" y="41"/>
      <point x="92" y="45"/>
      <point x="92" y="87" type="curve" smooth="yes"/>
      <point x="92" y="440" type="line"/>
      <point x="29" y="440" type="line"/>
      <point x="29" y="490" type="line"/>
      <point x="346" y="490" type="line"/>
      <point x="346" y="440" type="line"/>
      <point x="243" y="440" type="line"/>
      <point x="243" y="87" type="line" smooth="yes"/>
      <point x="243" y="45"/>
      <point x="251" y="41"/>
      <point x="322" y="38" type="curve"/>
      <point x="322" y="0" type="line"/>
    </contour>
    <contour>
      <point x="92" y="490" type="line"/>
      <point x="92" y="533" type="line" smooth="yes"/>
      <point x="92" y="670"/>
      <point x="162" y="742"/>
      <point x="279" y="742" type="curve" smooth="yes"/>
      <point x="383" y="742"/>
      <point x="421" y="686"/>
      <point x="421" y="652" type="curve" smooth="yes"/>
      <point x="421" y="616"/>
      <point x="380" y="592"/>
      <point x="347" y="592" type="curve" smooth="yes"/>
      <point x="324" y="592"/>
      <point x="310.404" y="603.154"/>
      <point x="303" y="622" type="curve" smooth="yes"/>
      <point x="277.402" y="687.159"/>
      <point x="261" y="696"/>
      <point x="248" y="696" type="curve" smooth="yes"/>
      <point x="233" y="696"/>
      <point x="221" y="685"/>
      <point x="221" y="660" type="curve" smooth="yes"/>
      <point x="221" y="612"/>
      <point x="226" y="571"/>
      <point x="232" y="542" type="curve" smooth="yes"/>
      <point x="243" y="490" type="line"/>
    </contour>
    <contour>
      <point x="348" y="0" type="line"/>
      <point x="348" y="38" type="line"/>
      <point x="405" y="41"/>
      <point x="413" y="45"/>
      <point x="413" y="87" type="curve" smooth="yes"/>
      <point x="413" y="381" type="line" smooth="yes"/>
      <point x="413" y="421"/>
      <point x="395.125" y="440"/>
      <point x="369" y="440" type="curve" smooth="yes"/>
      <point x="346" y="440" type="line"/>
      <point x="346" y="490" type="line"/>
      <point x="551" y="502" type="line"/>
      <point x="564" y="433" type="line"/>
      <point x="630" y="476"/>
      <point x="677" y="502"/>
      <point x="741" y="502" type="curve" smooth="yes"/>
      <point x="838" y="502"/>
      <point x="886" y="442"/>
      <point x="886" y="348" type="curve" smooth="yes"/>
      <point x="886" y="100" type="line"/>
      <point x="735" y="100" type="line"/>
      <point x="735" y="334" type="line" smooth="yes"/>
      <point x="735" y="394"/>
      <point x="707" y="425"/>
      <point x="656" y="425" type="curve" smooth="yes"/>
      <point x="589" y="425"/>
      <point x="564" y="375"/>
      <point x="564" y="317" type="curve" smooth="yes"/>
      <point x="564" y="80" type="line" smooth="yes"/>
      <point x="564" y="44"/>
      <point x="583" y="41"/>
      <point x="617" y="38" type="curve"/>
      <point x="617" y="0" type="line"/>
    </contour>
    <contour>
      <point x="886" y="99.8823" type="line"/>
      <point x="886" y="-25" type="line" smooth="yes"/>
      <point x="886" y="-126.096"/>
      <point x="806.259" y="-242"/>
      <point x="676.987" y="-242" type="curve" smooth="yes"/>
      <point x="584.881" y="-242"/>
      <point x="528" y="-203"/>
      <point x="528" y="-158.479" type="curve" smooth="yes"/>
      <point x="528" y="-125.729"/>
      <point x="558.78" y="-92"/>
      <point x="601.058" y="-92" type="curve" smooth="yes"/>
      <point x="620" y="-92"/>
      <point x="637.487" y="-98.7709"/>
      <point x="642" y="-109" type="curve" smooth="yes"/>
      <point x="667.493" y="-166.785"/>
      <point x="689" y="-186.716"/>
      <point x="706.538" y="-186.716" type="curve" smooth="yes"/>
      <point x="723" y="-186.716"/>
      <point x="742" y="-171.967"/>
      <point x="742" y="-111.153" type="curve" smooth="yes"/>
      <point x="742" y="-101.226"/>
      <point x="741.494" y="-86.4167"/>
      <point x="739.026" y="-66.6964" type="curve" smooth="yes"/>
      <point x="736.518" y="-46.6439"/>
      <point x="735" y="-21.4822"/>
      <point x="735" y="0" type="curve" smooth="yes"/>
      <point x="735" y="99.8823" type="line"/>
    </contour>
  </outline>
</glyph>
<glyph name="uni02AA" format="2">
  <advance width="685"/>
  <unicode hex="02AA"/>
  <outline>
    <contour>
      <point x="19" y="0" type="line"/>
      <point x="19" y="38" type="line"/>
      <point x="76" y="41"/>
      <point x="84" y="45"/>
      <point x="84" y="87" type="curve" smooth="yes"/>
      <point x="84" y="621" type="line" smooth="yes"/>
      <point x="84" y="661"/>
      <point x="76" y="670"/>
      <point x="60" y="673" type="curve" smooth="yes"/>
      <point x="25" y="679" type="line"/>
      <point x="25" y="715" type="line"/>
      <point x="228" y="742" type="line"/>
      <point x="235" y="736" type="line"/>
      <point x="235" y="0" type="line"/>
    </contour>
    <contour>
      <point x="197" y="223.31" type="line"/>
      <point x="235" y="223.31" type="line"/>
      <point x="254.701" y="116.07"/>
      <point x="300.217" y="34"/>
      <point x="464" y="34" type="curve" smooth="yes"/>
      <point x="504" y="34"/>
      <point x="529" y="57"/>
      <point x="529" y="93" type="curve" smooth="yes"/>
      <point x="529" y="143"/>
      <point x="480.044" y="173.128"/>
      <point x="424.016" y="192.337" type="curve" smooth="yes"/>
      <point x="340.044" y="221.128"/>
      <point x="282" y="271"/>
      <point x="282" y="353" type="curve" smooth="yes"/>
      <point x="282" y="445"/>
      <point x="358" y="502"/>
      <point x="480" y="502" type="curve" smooth="yes"/>
      <point x="532" y="502"/>
      <point x="589" y="492"/>
      <point x="630" y="467" type="curve"/>
      <point x="630" y="334" type="line"/>
      <point x="593" y="334" type="line"/>
      <point x="574" y="410"/>
      <point x="531" y="456"/>
      <point x="479" y="456" type="curve" smooth="yes"/>
      <point x="439" y="456"/>
      <point x="417" y="429"/>
      <point x="417" y="399" type="curve" smooth="yes"/>
      <point x="417" y="358"/>
      <point x="459.968" y="333.912"/>
      <point x="517" y="313" type="curve" smooth="yes"/>
      <point x="609.968" y="278.912"/>
      <point x="664" y="237"/>
      <point x="664" y="151" type="curve" smooth="yes"/>
      <point x="664" y="43"/>
      <point x="580" y="-12"/>
      <point x="460" y="-12" type="curve" smooth="yes"/>
      <point x="308.217" y="-12"/>
      <point x="247" y="39.3103"/>
      <point x="209" y="74.3103" type="curve"/>
    </contour>
  </outline>
</glyph>
<glyph name="uni02AD" format="2">
  <advance width="514"/>
  <unicode hex="02AD"/>
  <outline>
    <contour>
      <point x="30" y="398" type="line"/>
      <point x="30" y="666" type="line"/>
      <point x="484" y="666" type="line"/>
      <point x="484" y="398" type="line"/>
      <point x="360" y="398" type="line"/>
      <point x="360" y="544" type="line"/>
      <point x="154" y="544" type="line"/>
      <point x="154" y="398" type="line"/>
    </contour>
    <contour>
      <point x="29.9981" y="-0.2794" type="line"/>
      <point x="29.9981" y="267.721" type="line"/>
      <point x="483.998" y="267.721" type="line"/>
      <point x="483.998" y="-0.2794" type="line"/>
      <point x="359.998" y="-0.2794" type="line"/>
      <point x="359.998" y="145.721" type="line"/>
      <point x="153.998" y="145.721" type="line"/>
      <point x="153.998" y="-0.2794" type="line"/>
    </contour>
  </outline>
</glyph>
<glyph name="uni02AE" format="2">
  <advance width="685"/>
  <unicode hex="02AE"/>
  <outline>
    <contour>
      <point x="295.055" y="159.91" type="line"/>
      <point x="295.055" y="284.793" type="line" smooth="yes"/>
      <point x="295.055" y="385.889"/>
      <point x="215.315" y="501.793"/>
      <point x="86.0427" y="501.793" type="curve" smooth="yes"/>
      <point x="-6.06404" y="501.793"/>
      <point x="-62.9446" y="462.793"/>
      <point x="-62.9446" y="418.272" type="curve" smooth="yes"/>
      <point x="-62.9446" y="385.522"/>
      <point x="-32.1645" y="351.793"/>
      <point x="10.1132" y="351.793" type="curve" smooth="yes"/>
      <point x="29.0554" y="351.793"/>
      <point x="46.5426" y="358.563"/>
      <point x="51.0554" y="368.793" type="curve" smooth="yes"/>
      <point x="76.5487" y="426.577"/>
      <point x="98.0554" y="446.508"/>
      <point x="115.593" y="446.508" type="curve" smooth="yes"/>
      <point x="132.055" y="446.508"/>
      <point x="151.055" y="431.76"/>
      <point x="151.055" y="370.946" type="curve" smooth="yes"/>
      <point x="151.055" y="361.018"/>
      <point x="150.549" y="346.209"/>
      <point x="148.082" y="326.489" type="curve" smooth="yes"/>
      <point x="145.573" y="306.436"/>
      <point x="144.055" y="281.275"/>
      <point x="144.055" y="259.793" type="curve" smooth="yes"/>
      <point x="144.055" y="159.91" type="line"/>
    </contour>
    <contour>
      <point x="466.055" y="129.871" type="line"/>
      <point x="466.055" y="-236.129" type="line"/>
      <point x="473.055" y="-242.129" type="line"/>
      <point x="676.055" y="-215.129" type="line"/>
      <point x="676.055" y="-179.129" type="line"/>
      <point x="641.055" y="-173.129" type="line" smooth="yes"/>
      <point x="625.055" y="-170.129"/>
      <point x="617.055" y="-161.129"/>
      <point x="617.055" y="-121.129" type="curve" smooth="yes"/>
      <point x="617.055" y="129.871" type="line"/>
    </contour>
    <contour>
      <point x="617.055" y="129.871" type="line"/>
      <point x="617.055" y="495.871" type="line"/>
      <point x="610.055" y="501.871" type="line"/>
      <point x="407.055" y="474.871" type="line"/>
      <point x="407.055" y="438.871" type="line"/>
      <point x="442.055" y="432.871" type="line" smooth="yes"/>
      <point x="458.055" y="429.871"/>
      <point x="466.055" y="420.871"/>
      <point x="466.055" y="380.871" type="curve" smooth="yes"/>
      <point x="466.055" y="129.871" type="line"/>
    </contour>
    <contour>
      <point x="144.055" y="249.871" type="line"/>
      <point x="144.055" y="142.871" type="line" smooth="yes"/>
      <point x="144.055" y="48.8714"/>
      <point x="192.055" y="-12.1286"/>
      <point x="296.312" y="-12.1286" type="curve" smooth="yes"/>
      <point x="357.055" y="-12.1286"/>
      <point x="406.585" y="8.5784"/>
      <point x="466.055" y="56.8714" type="curve" smooth="yes"/>
      <point x="516.055" y="97.4736" type="line"/>
      <point x="516.055" y="172.91" type="line"/>
      <point x="466.055" y="172.871" type="line"/>
      <point x="466.055" y="114.871"/>
      <point x="441.055" y="64.8714"/>
      <point x="376.055" y="64.8714" type="curve" smooth="yes"/>
      <point x="323.055" y="64.8714"/>
      <point x="295.055" y="97.8714"/>
      <point x="295.055" y="157.871" type="curve" smooth="yes"/>
      <point x="295.055" y="249.871" type="line"/>
    </contour>
  </outline>
  <guideline angle="0" x="0" y="502"/>
  <guideline angle="0" x="0" y="-12"/>
</glyph>
<glyph name="uni02B0" format="2">
  <advance width="378"/>
  <unicode hex="02B0"/>
  <outline>
    <contour>
      <point x="11" y="327" type="line"/>
      <point x="11" y="350" type="line"/>
      <point x="45" y="352"/>
      <point x="50" y="354"/>
      <point x="50" y="379" type="curve" smooth="yes"/>
      <point x="50" y="700" type="line" smooth="yes"/>
      <point x="50" y="724"/>
      <point x="46.0955" y="729.558"/>
      <point x="36" y="731" type="curve" smooth="yes"/>
      <point x="15" y="734" type="line"/>
      <point x="15" y="756" type="line"/>
      <point x="137" y="772" type="line"/>
      <point x="141" y="769" type="line"/>
      <point x="141" y="587" type="line"/>
      <point x="173" y="614"/>
      <point x="206" y="628"/>
      <point x="243.704" y="628" type="curve" smooth="yes"/>
      <point x="305" y="628"/>
      <point x="335" y="591"/>
      <point x="335" y="535" type="curve" smooth="yes"/>
      <point x="335" y="379" type="line" smooth="yes"/>
      <point x="335" y="354"/>
      <point x="339" y="352"/>
      <point x="373" y="350" type="curve"/>
      <point x="373" y="327" type="line"/>
      <point x="212" y="327" type="line"/>
      <point x="212" y="350" type="line"/>
      <point x="232.481" y="351.707"/>
      <point x="244" y="353.607"/>
      <point x="244" y="375" type="curve" smooth="yes"/>
      <point x="244" y="526" type="line" smooth="yes"/>
      <point x="244" y="562"/>
      <point x="227" y="582"/>
      <point x="194.621" y="582" type="curve" smooth="yes"/>
      <point x="157" y="582"/>
      <point x="141" y="555"/>
      <point x="141" y="517" type="curve" smooth="yes"/>
      <point x="141" y="375" type="line" smooth="yes"/>
      <point x="141" y="353.085"/>
      <point x="151.731" y="351.636"/>
      <point x="173" y="350" type="curve"/>
      <point x="173" y="327" type="line"/>
    </contour>
  </outline>
</glyph>
<glyph name="uni02B2" format="2">
  <advance width="189"/>
  <unicode hex="02B2"/>
  <outline>
    <contour>
      <point x="-7" y="203" type="line"/>
      <point x="57.1738" y="223.054"/>
      <point x="59" y="283.669"/>
      <point x="59" y="343" type="curve" smooth="yes"/>
      <point x="59" y="553" type="line" smooth="yes"/>
      <point x="59" y="577"/>
      <point x="53.9489" y="581.579"/>
      <point x="44" y="583" type="curve" smooth="yes"/>
      <point x="23" y="586" type="line"/>
      <point x="23" y="608" type="line"/>
      <point x="145" y="625" type="line"/>
      <point x="150" y="622" type="line"/>
      <point x="150" y="339" type="line" smooth="yes"/>
      <point x="150" y="223.708"/>
      <point x="104.763" y="185"/>
      <point x="-5" y="185" type="curve"/>
    </contour>
    <contour>
      <point x="46" y="704" type="curve" smooth="yes"/>
      <point x="46" y="732"/>
      <point x="67" y="756"/>
      <point x="101" y="756" type="curve" smooth="yes"/>
      <point x="135" y="756"/>
      <point x="156" y="732"/>
      <point x="156" y="704" type="curve" smooth="yes"/>
      <point x="156" y="675"/>
      <point x="134" y="651"/>
      <point x="101" y="651" type="curve" smooth="yes"/>
      <point x="67" y="651"/>
      <point x="46" y="675"/>
    </contour>
  </outline>
</glyph>
<glyph name="uni02B3" format="2">
  <advance width="264"/>
  <unicode hex="02B3"/>
  <outline>
    <contour>
      <point x="16" y="326" type="line"/>
      <point x="16" y="349" type="line"/>
      <point x="50" y="351"/>
      <point x="55" y="353"/>
      <point x="55" y="378" type="curve" smooth="yes"/>
      <point x="55" y="555" type="line" smooth="yes"/>
      <point x="55" y="579"/>
      <point x="49.9489" y="583.579"/>
      <point x="40" y="585" type="curve" smooth="yes"/>
      <point x="19" y="588" type="line"/>
      <point x="19" y="610" type="line"/>
      <point x="136" y="628" type="line"/>
      <point x="143" y="574" type="line"/>
      <point x="178" y="611"/>
      <point x="198" y="628"/>
      <point x="223" y="628" type="curve" smooth="yes"/>
      <point x="248" y="628"/>
      <point x="265" y="611"/>
      <point x="265" y="583.215" type="curve" smooth="yes"/>
      <point x="265" y="558"/>
      <point x="251" y="535"/>
      <point x="226.377" y="535" type="curve" smooth="yes"/>
      <point x="213.449" y="535"/>
      <point x="202.724" y="541.341"/>
      <point x="192.538" y="547.364" type="curve" smooth="yes"/>
      <point x="178.936" y="555.406"/>
      <point x="172.464" y="558"/>
      <point x="166" y="558" type="curve" smooth="yes"/>
      <point x="152" y="558"/>
      <point x="146" y="544"/>
      <point x="146" y="513" type="curve" smooth="yes"/>
      <point x="146" y="378" type="line" smooth="yes"/>
      <point x="146" y="353"/>
      <point x="151" y="351"/>
      <point x="197" y="349" type="curve"/>
      <point x="197" y="326" type="line"/>
    </contour>
  </outline>
</glyph>
<glyph name="uni02B4" format="2">
  <advance width="264"/>
  <unicode hex="02B4"/>
  <outline>
    <contour>
      <point x="-1" y="363.785" type="curve" smooth="yes"/>
      <point x="-1" y="389"/>
      <point x="13" y="412"/>
      <point x="37" y="412" type="curve" smooth="yes"/>
      <point x="48.4499" y="412"/>
      <point x="59.2527" y="407.549"/>
      <point x="68.3699" y="401.29" type="curve" smooth="yes"/>
      <point x="76.9454" y="395.404"/>
      <point x="88.0605" y="389"/>
      <point x="98" y="389" type="curve" smooth="yes"/>
      <point x="112" y="389"/>
      <point x="119" y="403"/>
      <point x="119" y="434" type="curve" smooth="yes"/>
      <point x="119" y="556" type="line" smooth="yes"/>
      <point x="119" y="580"/>
      <point x="113.949" y="584.579"/>
      <point x="104" y="586" type="curve" smooth="yes"/>
      <point x="83" y="589" type="line"/>
      <point x="83" y="611" type="line"/>
      <point x="205" y="628" type="line"/>
      <point x="210" y="625" type="line"/>
      <point x="210" y="392" type="line" smooth="yes"/>
      <point x="210" y="368"/>
      <point x="214.051" y="363.421"/>
      <point x="224" y="362" type="curve" smooth="yes"/>
      <point x="245" y="359" type="line"/>
      <point x="245" y="337" type="line"/>
      <point x="128" y="320" type="line"/>
      <point x="121" y="373" type="line"/>
      <point x="86" y="336"/>
      <point x="66" y="320"/>
      <point x="41" y="320" type="curve" smooth="yes"/>
      <point x="16" y="320"/>
      <point x="-1" y="336"/>
    </contour>
  </outline>
</glyph>
<glyph name="uni02B5" format="2">
  <advance width="223"/>
  <unicode hex="02B5"/>
  <outline>
    <contour>
      <point x="-6.87788" y="363.654" type="curve" smooth="yes"/>
      <point x="-6.87788" y="388.971"/>
      <point x="7.48615" y="411.714"/>
      <point x="33.2217" y="411.714" type="curve" smooth="yes"/>
      <point x="44.5932" y="411.714"/>
      <point x="52.9189" y="406.838"/>
      <point x="58.9918" y="403.194" type="curve" smooth="yes"/>
      <point x="73.8673" y="394.269"/>
      <point x="82.8973" y="389.569"/>
      <point x="91.785" y="389.569" type="curve" smooth="yes"/>
      <point x="106.837" y="389.569"/>
      <point x="112.822" y="403.335"/>
      <point x="112.822" y="434.457" type="curve" smooth="yes"/>
      <point x="112.822" y="555.354" type="line" smooth="yes"/>
      <point x="112.822" y="579.294"/>
      <point x="108.012" y="584.513"/>
      <point x="98.4583" y="585.878" type="curve" smooth="yes"/>
      <point x="77.5108" y="588.87" type="line"/>
      <point x="77.5108" y="610.416" type="line"/>
      <point x="200.802" y="627.773" type="line"/>
      <point x="204.992" y="624.182" type="line"/>
      <point x="204.992" y="327.325" type="line" smooth="yes"/>
      <point x="204.992" y="314.457"/>
      <point x="204.077" y="299.407"/>
      <point x="202.568" y="287.405" type="curve" smooth="yes"/>
      <point x="201.085" y="275.617"/>
      <point x="200.802" y="266.727"/>
      <point x="200.802" y="260.802" type="curve" smooth="yes"/>
      <point x="200.802" y="224.413"/>
      <point x="212.174" y="215.585"/>
      <point x="222.019" y="215.585" type="curve" smooth="yes"/>
      <point x="232.523" y="215.585"/>
      <point x="245.4" y="227.491"/>
      <point x="260.652" y="262.088" type="curve" smooth="yes"/>
      <point x="263.355" y="268.219"/>
      <point x="273.819" y="272.263"/>
      <point x="285.161" y="272.263" type="curve" smooth="yes"/>
      <point x="310.447" y="272.263"/>
      <point x="328.881" y="252.063"/>
      <point x="328.881" y="230.995" type="curve" smooth="yes"/>
      <point x="328.881" y="201.235"/>
      <point x="292.099" y="182.895"/>
      <point x="249.015" y="182.894" type="curve" smooth="yes"/>
      <point x="188.113" y="182.892"/>
      <point x="114.618" y="219.535"/>
      <point x="114.618" y="312.363" type="curve" smooth="yes"/>
      <point x="114.618" y="372.811" type="line"/>
      <point x="79.9048" y="336.303"/>
      <point x="60.1542" y="320.143"/>
      <point x="35.0172" y="320.143" type="curve" smooth="yes"/>
      <point x="9.88012" y="320.143"/>
      <point x="-6.87792" y="336.303"/>
    </contour>
  </outline>
</glyph>
<glyph name="uni02B7" format="2">
  <advance width="464"/>
  <unicode hex="02B7"/>
  <outline>
    <contour>
      <point x="-6" y="598" type="curve"/>
      <point x="-6" y="621" type="line"/>
      <point x="150" y="621" type="line"/>
      <point x="150" y="598" type="line"/>
      <point x="133" y="596" type="line" smooth="yes"/>
      <point x="124.329" y="594.98"/>
      <point x="120.33" y="592.447"/>
      <point x="120.33" y="585.991" type="curve" smooth="yes"/>
      <point x="120.33" y="584.543"/>
      <point x="120.924" y="580.859"/>
      <point x="122" y="577" type="curve" smooth="yes"/>
      <point x="168" y="412" type="line"/>
      <point x="170" y="412" type="line"/>
      <point x="226" y="621" type="line"/>
      <point x="289" y="621" type="line"/>
      <point x="350" y="412" type="line"/>
      <point x="353" y="412" type="line"/>
      <point x="393" y="575" type="line" smooth="yes"/>
      <point x="393.721" y="577.939"/>
      <point x="394.125" y="580.606"/>
      <point x="394.113" y="582.972" type="curve" smooth="yes"/>
      <point x="394.08" y="589.348"/>
      <point x="391.023" y="593.541"/>
      <point x="383" y="595" type="curve"/>
      <point x="357" y="598" type="line"/>
      <point x="357" y="621" type="line"/>
      <point x="481" y="621" type="line"/>
      <point x="481" y="598" type="line"/>
      <point x="450" y="596"/>
      <point x="444.517" y="591.527"/>
      <point x="437" y="568" type="curve" smooth="yes"/>
      <point x="360" y="327" type="line"/>
      <point x="294" y="327" type="line"/>
      <point x="234" y="511" type="line"/>
      <point x="232" y="511" type="line"/>
      <point x="177" y="327" type="line"/>
      <point x="111" y="327" type="line"/>
      <point x="32" y="572" type="line" smooth="yes"/>
      <point x="25.4971" y="592.167"/>
      <point x="18" y="596"/>
    </contour>
  </outline>
</glyph>
<glyph name="uni02BE" format="2">
  <advance width="245"/>
  <unicode hex="02BE"/>
  <outline>
    <contour>
      <point x="40" y="477" type="curve"/>
      <point x="40" y="556" type="line"/>
      <point x="86" y="556"/>
      <point x="119" y="580"/>
      <point x="119" y="622" type="curve" smooth="yes"/>
      <point x="119" y="664"/>
      <point x="86" y="688"/>
      <point x="40" y="688" type="curve"/>
      <point x="40" y="767" type="line"/>
      <point x="150" y="767"/>
      <point x="205" y="702"/>
      <point x="205" y="622" type="curve" smooth="yes"/>
      <point x="205" y="542"/>
      <point x="150" y="477"/>
    </contour>
  </outline>
</glyph>
<glyph name="uni02BF" format="2">
  <advance width="246"/>
  <unicode hex="02BF"/>
  <outline>
    <contour>
      <point x="205.5" y="477" type="curve"/>
      <point x="205.5" y="556" type="line"/>
      <point x="159.5" y="556"/>
      <point x="126.5" y="580"/>
      <point x="126.5" y="622" type="curve" smooth="yes"/>
      <point x="126.5" y="664"/>
      <point x="159.5" y="688"/>
      <point x="205.5" y="688" type="curve"/>
      <point x="205.5" y="767" type="line"/>
      <point x="95.5" y="767"/>
      <point x="40.5" y="702"/>
      <point x="40.5" y="622" type="curve" smooth="yes"/>
      <point x="40.5" y="542"/>
      <point x="95.5" y="477"/>
    </contour>
  </outline>
</glyph>
<glyph name="arrowheadleftmod" format="2">
  <advance width="337"/>
  <unicode hex="02C2"/>
  <outline>
    <contour>
      <point x="40" y="593.179" type="line"/>
      <point x="40" y="676" type="line"/>
      <point x="297" y="785.582" type="line"/>
      <point x="297" y="701.851" type="line"/>
      <point x="123.093" y="631.558" type="line"/>
      <point x="123.08" y="638.769" type="line"/>
      <point x="297" y="568.927" type="line"/>
      <point x="297" y="484.972" type="line"/>
    </contour>
  </outline>
  <guideline angle="23.0947" x="40" y="676"/>
  <guideline angle="201.999" x="373" y="731"/>
  <guideline angle="338.001" x="123" y="641"/>
  <guideline angle="157.197" x="373" y="453"/>
  <guideline angle="90" x="40" y="0"/>
  <guideline angle="90" x="123" y="0"/>
  <guideline angle="90" x="297" y="0"/>
</glyph>
<glyph name="circumflex" format="2">
  <advance width="430"/>
  <unicode hex="02C6"/>
  <outline>
    <contour>
      <point x="28" y="547" type="line"/>
      <point x="171" y="716" type="line" smooth="yes"/>
      <point x="186" y="734"/>
      <point x="201" y="747"/>
      <point x="215" y="747" type="curve" smooth="yes"/>
      <point x="229" y="747"/>
      <point x="244" y="733"/>
      <point x="259" y="716" type="curve" smooth="yes"/>
      <point x="402" y="547" type="line"/>
      <point x="378" y="520" type="line"/>
      <point x="253" y="614" type="line" smooth="yes"/>
      <point x="239" y="624"/>
      <point x="226" y="633"/>
      <point x="215" y="633" type="curve" smooth="yes"/>
      <point x="205" y="633"/>
      <point x="191" y="624"/>
      <point x="177" y="614" type="curve" smooth="yes"/>
      <point x="52" y="520" type="line"/>
    </contour>
  </outline>
</glyph>
<glyph name="uni02C8" format="2">
  <advance width="260"/>
  <unicode hex="02C8"/>
  <outline>
    <contour>
      <point x="90" y="479" type="line"/>
      <point x="90" y="754" type="line"/>
      <point x="170" y="754" type="line"/>
      <point x="170" y="479" type="line"/>
    </contour>
  </outline>
</glyph>
<glyph name="uni02D1" format="2">
  <advance width="265"/>
  <unicode hex="02D1"/>
  <outline>
    <contour>
      <point x="31.25" y="490" type="line"/>
      <point x="233.75" y="490" type="line"/>
      <point x="133.25" y="284.5" type="line"/>
      <point x="131.75" y="284.5" type="line"/>
    </contour>
  </outline>
</glyph>
<glyph name="uni02D3" format="2">
  <advance width="400"/>
  <unicode hex="02D3"/>
  <outline>
    <contour>
      <point x="282.5" y="107" type="curve"/>
      <point x="282.5" y="186" type="line"/>
      <point x="236.5" y="186"/>
      <point x="203.5" y="210"/>
      <point x="203.5" y="252" type="curve" smooth="yes"/>
      <point x="203.5" y="294"/>
      <point x="236.5" y="318"/>
      <point x="282.5" y="318" type="curve"/>
      <point x="282.5" y="397" type="line"/>
      <point x="172.5" y="397"/>
      <point x="117.5" y="332"/>
      <point x="117.5" y="252" type="curve" smooth="yes"/>
      <point x="117.5" y="172"/>
      <point x="172.5" y="107"/>
    </contour>
  </outline>
</glyph>
<glyph name="uni02D4" format="2">
  <advance width="400"/>
  <unicode hex="02D4"/>
  <outline>
    <contour>
      <point x="61" y="110" type="line"/>
      <point x="61" y="196.5" type="line"/>
      <point x="154" y="196.5" type="line"/>
      <point x="154" y="359" type="line"/>
      <point x="246" y="359" type="line"/>
      <point x="246" y="196.5" type="line"/>
      <point x="339" y="196.5" type="line"/>
      <point x="339" y="110" type="line"/>
    </contour>
  </outline>
</glyph>
<glyph name="uni02D5" format="2">
  <advance width="400"/>
  <unicode hex="02D5"/>
  <outline>
    <contour>
      <point x="61" y="359" type="line"/>
      <point x="61" y="272.5" type="line"/>
      <point x="154" y="272.5" type="line"/>
      <point x="154" y="110" type="line"/>
      <point x="246" y="110" type="line"/>
      <point x="246" y="272.5" type="line"/>
      <point x="339" y="272.5" type="line"/>
      <point x="339" y="359" type="line"/>
    </contour>
  </outline>
</glyph>
<glyph name="uni02D6" format="2">
  <advance width="400"/>
  <unicode hex="02D6"/>
  <outline>
    <contour>
      <point x="54" y="206" type="line"/>
      <point x="54" y="293" type="line"/>
      <point x="154" y="293" type="line"/>
      <point x="154" y="398" type="line"/>
      <point x="246" y="398" type="line"/>
      <point x="246" y="293" type="line"/>
      <point x="346" y="293" type="line"/>
      <point x="346" y="206" type="line"/>
      <point x="246" y="206" type="line"/>
      <point x="246" y="101" type="line"/>
      <point x="154" y="101" type="line"/>
      <point x="154" y="206" type="line"/>
    </contour>
  </outline>
</glyph>
<glyph name="uni02D7" format="2">
  <advance width="400"/>
  <unicode hex="02D7"/>
  <outline>
    <contour>
      <point x="39" y="186" type="line"/>
      <point x="39" y="313" type="line"/>
      <point x="77" y="313" type="line"/>
      <point x="80" y="298"/>
      <point x="83" y="293"/>
      <point x="103" y="293" type="curve" smooth="yes"/>
      <point x="297" y="293" type="line" smooth="yes"/>
      <point x="317" y="293"/>
      <point x="320" y="298"/>
      <point x="323" y="313" type="curve"/>
      <point x="361" y="313" type="line"/>
      <point x="361" y="186" type="line"/>
      <point x="323" y="186" type="line"/>
      <point x="320" y="201"/>
      <point x="317" y="206"/>
      <point x="297" y="206" type="curve" smooth="yes"/>
      <point x="103" y="206" type="line" smooth="yes"/>
      <point x="83" y="206"/>
      <point x="80" y="201"/>
      <point x="77" y="186" type="curve"/>
    </contour>
  </outline>
</glyph>
<glyph name="ring" format="2">
  <advance width="430"/>
  <unicode hex="02DA"/>
  <anchor x="215" y="790" name="top"/>
  <outline>
    <contour>
      <point x="96" y="651" type="curve" smooth="yes"/>
      <point x="96" y="715"/>
      <point x="146" y="762"/>
      <point x="215" y="762" type="curve" smooth="yes"/>
      <point x="284" y="762"/>
      <point x="334" y="715"/>
      <point x="334" y="651" type="curve" smooth="yes"/>
      <point x="334" y="586.983"/>
      <point x="283.631" y="540"/>
      <point x="215" y="540" type="curve" smooth="yes"/>
      <point x="146" y="540"/>
      <point x="96" y="587"/>
    </contour>
    <contour>
      <point x="163" y="651" type="curve" smooth="yes"/>
      <point x="163" y="619"/>
      <point x="186" y="595"/>
      <point x="215" y="595" type="curve" smooth="yes"/>
      <point x="243" y="595"/>
      <point x="267" y="619"/>
      <point x="267" y="651" type="curve" smooth="yes"/>
      <point x="267" y="683"/>
      <point x="243" y="707"/>
      <point x="215" y="707" type="curve" smooth="yes"/>
      <point x="186" y="707"/>
      <point x="163" y="683"/>
    </contour>
  </outline>
</glyph>
<glyph name="uni02E0" format="2">
  <advance width="309"/>
  <unicode hex="02E0"/>
  <outline>
    <contour>
      <point x="-5" y="598" type="curve"/>
      <point x="-5" y="621" type="line"/>
      <point x="152" y="621" type="line"/>
      <point x="152" y="598" type="line"/>
      <point x="132" y="595" type="line" smooth="yes"/>
      <point x="124.721" y="593.908"/>
      <point x="121.928" y="591.689"/>
      <point x="121.943" y="587.138" type="curve" smooth="yes"/>
      <point x="121.951" y="584.776"/>
      <point x="122.812" y="581.499"/>
      <point x="124" y="578" type="curve" smooth="yes"/>
      <point x="179" y="416" type="line"/>
      <point x="182" y="416" type="line"/>
      <point x="235" y="575" type="line" smooth="yes"/>
      <point x="236.102" y="578.45"/>
      <point x="236.714" y="581.488"/>
      <point x="236.707" y="584.098" type="curve" smooth="yes"/>
      <point x="236.692" y="589.924"/>
      <point x="233.662" y="594.042"/>
      <point x="226" y="595" type="curve" smooth="yes"/>
      <point x="202" y="598" type="line"/>
      <point x="202" y="621" type="line"/>
      <point x="324" y="621" type="line"/>
      <point x="324" y="598" type="line"/>
      <point x="299" y="596"/>
      <point x="293.299" y="592.855"/>
      <point x="283" y="572" type="curve" smooth="yes"/>
      <point x="253.297" y="511.852"/>
      <point x="230" y="451"/>
      <point x="200" y="368" type="curve"/>
      <point x="231" y="299"/>
      <point x="237" y="277"/>
      <point x="237" y="257.379" type="curve" smooth="yes"/>
      <point x="237" y="208"/>
      <point x="199" y="182"/>
      <point x="149.5" y="182" type="curve" smooth="yes"/>
      <point x="100" y="182"/>
      <point x="76" y="208"/>
      <point x="76" y="238.684" type="curve" smooth="yes"/>
      <point x="76" y="270"/>
      <point x="101" y="314"/>
      <point x="121" y="346" type="curve"/>
      <point x="34" y="572" type="line" smooth="yes"/>
      <point x="26.2771" y="591.114"/>
      <point x="18" y="596"/>
    </contour>
    <contour>
      <point x="113" y="239.5" type="curve" smooth="yes"/>
      <point x="113" y="220"/>
      <point x="125" y="210"/>
      <point x="140.887" y="210" type="curve" smooth="yes"/>
      <point x="159" y="210"/>
      <point x="166" y="223"/>
      <point x="166" y="240" type="curve" smooth="yes"/>
      <point x="166" y="259"/>
      <point x="157" y="282"/>
      <point x="143" y="311" type="curve"/>
      <point x="142" y="311" type="line"/>
      <point x="125" y="281"/>
      <point x="113" y="259"/>
    </contour>
  </outline>
</glyph>
<glyph name="uni02E3" format="2">
  <advance width="313"/>
  <unicode hex="02E3"/>
  <outline>
    <contour>
      <point x="-9" y="408" type="line"/>
      <point x="-9" y="431" type="line"/>
      <point x="22" y="435"/>
      <point x="33" y="438"/>
      <point x="52" y="460" type="curve" smooth="yes"/>
      <point x="75" y="486"/>
      <point x="98" y="515"/>
      <point x="121" y="544" type="curve"/>
      <point x="91" y="584"/>
      <point x="66" y="624"/>
      <point x="41" y="657" type="curve" smooth="yes"/>
      <point x="29" y="673"/>
      <point x="22" y="676"/>
      <point x="-4" y="679" type="curve"/>
      <point x="-4" y="702" type="line"/>
      <point x="152" y="702" type="line"/>
      <point x="152" y="679" type="line"/>
      <point x="139" y="677" type="line" smooth="yes"/>
      <point x="132" y="676"/>
      <point x="131" y="670"/>
      <point x="135" y="664" type="curve" smooth="yes"/>
      <point x="172" y="607" type="line"/>
      <point x="173" y="607" type="line"/>
      <point x="209" y="661" type="line" smooth="yes"/>
      <point x="216" y="671"/>
      <point x="214" y="676"/>
      <point x="206" y="677" type="curve" smooth="yes"/>
      <point x="191" y="679" type="line"/>
      <point x="191" y="702" type="line"/>
      <point x="310" y="702" type="line"/>
      <point x="310" y="679" type="line"/>
      <point x="285" y="678"/>
      <point x="272" y="672"/>
      <point x="258" y="658" type="curve" smooth="yes"/>
      <point x="237" y="636"/>
      <point x="215" y="612"/>
      <point x="192" y="581" type="curve"/>
      <point x="220" y="540"/>
      <point x="248" y="499"/>
      <point x="277" y="460" type="curve" smooth="yes"/>
      <point x="294" y="438"/>
      <point x="304" y="433"/>
      <point x="330" y="431" type="curve"/>
      <point x="330" y="408" type="line"/>
      <point x="163" y="408" type="line"/>
      <point x="163" y="431" type="line"/>
      <point x="176" y="433" type="line"/>
      <point x="186" y="434"/>
      <point x="191" y="439"/>
      <point x="184" y="449" type="curve"/>
      <point x="140" y="517" type="line"/>
      <point x="139" y="517" type="line"/>
      <point x="98" y="452" type="line" smooth="yes"/>
      <point x="91" y="441"/>
      <point x="93" y="435"/>
      <point x="103" y="434" type="curve"/>
      <point x="124" y="431" type="line"/>
      <point x="124" y="408" type="line"/>
    </contour>
  </outline>
</glyph>
<glyph name="uni02E5" format="2">
  <advance width="410"/>
  <unicode hex="02E5"/>
  <outline>
    <contour>
      <point x="33" y="655" type="line"/>
      <point x="33" y="742" type="line"/>
      <point x="342" y="742" type="line"/>
      <point x="342" y="0" type="line"/>
      <point x="250" y="0" type="line"/>
      <point x="250" y="655" type="line"/>
    </contour>
  </outline>
</glyph>
<glyph name="uni02E6" format="2">
  <advance width="410"/>
  <unicode hex="02E6"/>
  <outline>
    <contour>
      <point x="33" y="498" type="line"/>
      <point x="33" y="585" type="line"/>
      <point x="250" y="585" type="line"/>
      <point x="250" y="742" type="line"/>
      <point x="342" y="742" type="line"/>
      <point x="342" y="0" type="line"/>
      <point x="250" y="0" type="line"/>
      <point x="250" y="498" type="line"/>
    </contour>
  </outline>
</glyph>
<glyph name="uni02E7" format="2">
  <advance width="410"/>
  <unicode hex="02E7"/>
  <outline>
    <contour>
      <point x="33" y="327" type="line"/>
      <point x="33" y="414" type="line"/>
      <point x="250" y="414" type="line"/>
      <point x="250" y="742" type="line"/>
      <point x="342" y="742" type="line"/>
      <point x="342" y="-1" type="line"/>
      <point x="250" y="-1" type="line"/>
      <point x="250" y="327" type="line"/>
    </contour>
  </outline>
</glyph>
<glyph name="uni02F5" format="2">
  <advance width="430"/>
  <unicode hex="02F5"/>
  <outline>
    <contour>
      <point x="30" y="839" type="curve" smooth="yes"/>
      <point x="30" y="862"/>
      <point x="61" y="907"/>
      <point x="89" y="907" type="curve" smooth="yes"/>
      <point x="107" y="907"/>
      <point x="123" y="890"/>
      <point x="139" y="873" type="curve" smooth="yes"/>
      <point x="244" y="758" type="line"/>
      <point x="215" y="719" type="line"/>
      <point x="78" y="791" type="line" smooth="yes"/>
      <point x="44" y="809"/>
      <point x="30" y="821"/>
    </contour>
    <contour>
      <point x="238" y="839" type="curve" smooth="yes"/>
      <point x="238" y="862"/>
      <point x="269" y="907"/>
      <point x="297" y="907" type="curve" smooth="yes"/>
      <point x="315" y="907"/>
      <point x="331" y="890"/>
      <point x="347" y="873" type="curve" smooth="yes"/>
      <point x="452" y="758" type="line"/>
      <point x="423" y="719" type="line"/>
      <point x="286" y="791" type="line" smooth="yes"/>
      <point x="252" y="809"/>
      <point x="238" y="821"/>
    </contour>
  </outline>
</glyph>
<glyph name="uni0302" format="2">
  <unicode hex="0302"/>
  <anchor x="-299" y="522" name="_top"/>
  <anchor x="-300" y="730" name="top"/>
  <outline>
    <contour>
      <point x="-452" y="562" type="line"/>
      <point x="-335" y="695" type="line"/>
      <point x="-322" y="709"/>
      <point x="-311" y="720"/>
      <point x="-299" y="720" type="curve" smooth="yes"/>
      <point x="-287" y="720"/>
      <point x="-275" y="708"/>
      <point x="-263" y="695" type="curve" smooth="yes"/>
      <point x="-146" y="562" type="line"/>
      <point x="-165" y="541" type="line"/>
      <point x="-268" y="618" type="line" smooth="yes"/>
      <point x="-279" y="626"/>
      <point x="-290" y="633"/>
      <point x="-299" y="633" type="curve" smooth="yes"/>
      <point x="-307" y="633"/>
      <point x="-319" y="626"/>
      <point x="-330" y="618" type="curve" smooth="yes"/>
      <point x="-433" y="541" type="line"/>
    </contour>
  </outline>
</glyph>
<glyph name="uni0304" format="2">
  <unicode hex="0304"/>
  <anchor x="-281" y="580" name="_top"/>
  <anchor x="-281" y="724" name="top"/>
  <outline>
    <contour>
      <point x="-280.5" y="674" type="line"/>
      <point x="-124" y="674" type="line"/>
      <point x="-124" y="587" type="line"/>
      <point x="-280.5" y="587" type="line"/>
    </contour>
    <contour>
      <point x="-280.5" y="587" type="line"/>
      <point x="-436" y="587" type="line"/>
      <point x="-436" y="674" type="line"/>
      <point x="-280.5" y="674" type="line"/>
    </contour>
  </outline>
</glyph>
<glyph name="uni0306" format="2">
  <unicode hex="0306"/>
  <anchor x="-297" y="720" name="top"/>
  <outline>
    <contour>
      <point x="-456" y="716" type="curve"/>
      <point x="-418" y="716" type="line"/>
      <point x="-416" y="692"/>
      <point x="-399" y="641"/>
      <point x="-297" y="641" type="curve" smooth="yes"/>
      <point x="-195" y="641"/>
      <point x="-178" y="692"/>
      <point x="-176" y="716" type="curve"/>
      <point x="-137" y="716" type="line"/>
      <point x="-137" y="646"/>
      <point x="-154" y="556"/>
      <point x="-296" y="556" type="curve" smooth="yes"/>
      <point x="-439" y="556"/>
      <point x="-456" y="640"/>
    </contour>
  </outline>
</glyph>
<glyph name="uni0307" format="2">
  <unicode hex="0307"/>
  <anchor x="-240" y="560" name="_top"/>
  <anchor x="-238" y="760" name="top"/>
  <outline>
    <contour>
      <point x="-319" y="635" type="curve" smooth="yes"/>
      <point x="-319" y="673"/>
      <point x="-291" y="710"/>
      <point x="-240" y="710" type="curve" smooth="yes"/>
      <point x="-189" y="710"/>
      <point x="-161" y="673"/>
      <point x="-161" y="635" type="curve" smooth="yes"/>
      <point x="-161" y="597"/>
      <point x="-189" y="560"/>
      <point x="-240" y="560" type="curve" smooth="yes"/>
      <point x="-291" y="560"/>
      <point x="-319" y="597"/>
    </contour>
  </outline>
</glyph>
<glyph name="uni030A" format="2">
  <unicode hex="030A"/>
  <anchor x="-291" y="790" name="top"/>
  <anchor x="-292" y="540" name="_aring"/>
  <outline>
    <contour>
      <point x="-409" y="651" type="curve" smooth="yes"/>
      <point x="-409" y="733"/>
      <point x="-349" y="762"/>
      <point x="-290" y="762" type="curve" smooth="yes"/>
      <point x="-231" y="762"/>
      <point x="-171" y="733"/>
      <point x="-171" y="651" type="curve" smooth="yes"/>
      <point x="-171" y="568"/>
      <point x="-231" y="540"/>
      <point x="-290" y="540" type="curve" smooth="yes"/>
      <point x="-349" y="540"/>
      <point x="-409" y="568"/>
    </contour>
    <contour>
      <point x="-342" y="651" type="curve" smooth="yes"/>
      <point x="-342" y="605"/>
      <point x="-319" y="581"/>
      <point x="-290" y="581" type="curve" smooth="yes"/>
      <point x="-262" y="581"/>
      <point x="-238" y="605"/>
      <point x="-238" y="651" type="curve" smooth="yes"/>
      <point x="-238" y="697"/>
      <point x="-262" y="721"/>
      <point x="-290" y="721" type="curve" smooth="yes"/>
      <point x="-319" y="721"/>
      <point x="-342" y="697"/>
    </contour>
  </outline>
</glyph>
<glyph name="uni030B" format="2">
  <unicode hex="030B"/>
  <anchor x="-285" y="520" name="_top"/>
  <outline>
    <contour>
      <point x="-421" y="540" type="line"/>
      <point x="-358" y="698" type="line" smooth="yes"/>
      <point x="-346" y="728"/>
      <point x="-333" y="751"/>
      <point x="-306" y="751" type="curve" smooth="yes"/>
      <point x="-281" y="751"/>
      <point x="-244" y="728"/>
      <point x="-244" y="701" type="curve" smooth="yes"/>
      <point x="-244" y="687"/>
      <point x="-255" y="666"/>
      <point x="-280" y="638" type="curve" smooth="yes"/>
      <point x="-389" y="521" type="line"/>
    </contour>
    <contour>
      <point x="-216" y="540" type="line"/>
      <point x="-153" y="698" type="line" smooth="yes"/>
      <point x="-141" y="728"/>
      <point x="-128" y="751"/>
      <point x="-101" y="751" type="curve" smooth="yes"/>
      <point x="-76" y="751"/>
      <point x="-39" y="728"/>
      <point x="-39" y="701" type="curve" smooth="yes"/>
      <point x="-39" y="687"/>
      <point x="-50" y="666"/>
      <point x="-75" y="638" type="curve" smooth="yes"/>
      <point x="-184" y="521" type="line"/>
    </contour>
  </outline>
</glyph>
<glyph name="uni030C" format="2">
  <unicode hex="030C"/>
  <anchor x="-293" y="541" name="_top"/>
  <anchor x="-293" y="730" name="top"/>
  <outline>
    <contour>
      <point x="-480" y="741" type="line"/>
      <point x="-456" y="768" type="line"/>
      <point x="-331" y="674" type="line" smooth="yes"/>
      <point x="-317" y="664"/>
      <point x="-303" y="655"/>
      <point x="-293" y="655" type="curve" smooth="yes"/>
      <point x="-282" y="655"/>
      <point x="-269" y="664"/>
      <point x="-255" y="674" type="curve" smooth="yes"/>
      <point x="-130" y="768" type="line"/>
      <point x="-106" y="741" type="line"/>
      <point x="-249" y="572" type="line" smooth="yes"/>
      <point x="-264" y="555"/>
      <point x="-279" y="541"/>
      <point x="-293" y="541" type="curve" smooth="yes"/>
      <point x="-307" y="541"/>
      <point x="-322" y="554"/>
      <point x="-337" y="572" type="curve" smooth="yes"/>
    </contour>
  </outline>
</glyph>
<glyph name="uni030F" format="2">
  <unicode hex="030F"/>
  <outline>
    <contour>
      <point x="-448.102" y="660.479" type="curve" smooth="yes"/>
      <point x="-448.102" y="685"/>
      <point x="-417.102" y="730"/>
      <point x="-389.102" y="730" type="curve" smooth="yes"/>
      <point x="-371.102" y="730"/>
      <point x="-355.102" y="713"/>
      <point x="-339.102" y="696" type="curve" smooth="yes"/>
      <point x="-234.102" y="581" type="line"/>
      <point x="-263.102" y="542" type="line"/>
      <point x="-400.102" y="614" type="line" smooth="yes"/>
      <point x="-434.102" y="632"/>
      <point x="-448.102" y="644"/>
    </contour>
    <contour>
      <point x="-240.102" y="660.479" type="curve" smooth="yes"/>
      <point x="-240.102" y="685"/>
      <point x="-209.102" y="730"/>
      <point x="-181.102" y="730" type="curve" smooth="yes"/>
      <point x="-163.102" y="730"/>
      <point x="-147.102" y="713"/>
      <point x="-131.102" y="696" type="curve" smooth="yes"/>
      <point x="-26.1021" y="581" type="line"/>
      <point x="-55.1021" y="542" type="line"/>
      <point x="-192.102" y="614" type="line" smooth="yes"/>
      <point x="-226.102" y="632"/>
      <point x="-240.102" y="644"/>
    </contour>
  </outline>
</glyph>
<glyph name="uni0311" format="2">
  <unicode hex="0311"/>
  <outline>
    <contour>
      <point x="-379.5" y="556" type="line"/>
      <point x="-379.5" y="630"/>
      <point x="-353.5" y="706"/>
      <point x="-214.5" y="706" type="curve" smooth="yes"/>
      <point x="-75.5" y="706"/>
      <point x="-49.5" y="630"/>
      <point x="-49.5" y="556" type="curve"/>
      <point x="-90.5" y="556" type="line"/>
      <point x="-92.5" y="580"/>
      <point x="-115.5" y="625"/>
      <point x="-214.5" y="625" type="curve" smooth="yes"/>
      <point x="-313.5" y="625"/>
      <point x="-336.5" y="580"/>
      <point x="-338.5" y="556" type="curve"/>
    </contour>
  </outline>
</glyph>
<glyph name="uni0315" format="2">
  <unicode hex="0315"/>
  <outline>
    <contour>
      <point x="-86" y="555" type="line"/>
      <point x="-53" y="591"/>
      <point x="-32.9086" y="617.276"/>
      <point x="-33.9086" y="639.41" type="curve" smooth="yes"/>
      <point x="-35.0739" y="665.204"/>
      <point x="-38.869" y="675.769"/>
      <point x="-50.0187" y="693.576" type="curve" smooth="yes"/>
      <point x="-59.018" y="707.949"/>
      <point x="-66.9086" y="723.485"/>
      <point x="-66.9086" y="744.175" type="curve" smooth="yes"/>
      <point x="-66.9086" y="779.175"/>
      <point x="-43.9086" y="810.175"/>
      <point x="2.59341" y="810.175" type="curve" smooth="yes"/>
      <point x="54.5836" y="810.175"/>
      <point x="86.2907" y="771.176"/>
      <point x="86.1074" y="715.391" type="curve" smooth="yes"/>
      <point x="85.9024" y="653.003"/>
      <point x="45.9013" y="598.718"/>
      <point x="-58" y="528" type="curve"/>
    </contour>
  </outline>
</glyph>
<glyph name="uni031A" format="2">
  <unicode hex="031A"/>
  <outline>
    <contour>
      <point x="-131.195" y="717" type="line"/>
      <point x="-131.195" y="804" type="line"/>
      <point x="70.8052" y="804" type="line"/>
      <point x="70.8052" y="594" type="line"/>
      <point x="-21.1948" y="594" type="line"/>
      <point x="-21.1948" y="717" type="line"/>
    </contour>
  </outline>
</glyph>
<glyph name="palatalhookcomb" format="2">
  <unicode hex="0321"/>
  <outline>
    <contour>
      <point x="77" y="99.8823" type="line"/>
      <point x="77" y="-25" type="line" smooth="yes"/>
      <point x="77" y="-126.096"/>
      <point x="-2.74088" y="-242"/>
      <point x="-132.013" y="-242" type="curve" smooth="yes"/>
      <point x="-224.119" y="-242"/>
      <point x="-281" y="-203"/>
      <point x="-281" y="-158.479" type="curve" smooth="yes"/>
      <point x="-281" y="-125.729"/>
      <point x="-250.22" y="-92"/>
      <point x="-207.942" y="-92" type="curve" smooth="yes"/>
      <point x="-189" y="-92"/>
      <point x="-171.513" y="-98.7709"/>
      <point x="-167" y="-109" type="curve" smooth="yes"/>
      <point x="-141.507" y="-166.785"/>
      <point x="-120" y="-186.716"/>
      <point x="-102.462" y="-186.716" type="curve" smooth="yes"/>
      <point x="-86" y="-186.716"/>
      <point x="-67" y="-171.967"/>
      <point x="-67" y="-111.153" type="curve" smooth="yes"/>
      <point x="-67" y="-101.226"/>
      <point x="-67.5063" y="-86.4167"/>
      <point x="-69.9735" y="-66.6964" type="curve" smooth="yes"/>
      <point x="-72.4823" y="-46.6439"/>
      <point x="-74" y="-21.4822"/>
      <point x="-74" y="0" type="curve" smooth="yes"/>
      <point x="-74" y="99.8823" type="line"/>
    </contour>
  </outline>
  <guideline angle="0" x="0" y="100"/>
</glyph>
<glyph name="retroflexhookcomb" format="2">
  <unicode hex="0322"/>
  <outline>
    <contour>
      <point x="-73" y="99.8823" type="line"/>
      <point x="-73" y="-25" type="line" smooth="yes"/>
      <point x="-73" y="-126.096"/>
      <point x="6.74088" y="-242"/>
      <point x="136.013" y="-242" type="curve" smooth="yes"/>
      <point x="228.119" y="-242"/>
      <point x="285" y="-203"/>
      <point x="285" y="-158.479" type="curve" smooth="yes"/>
      <point x="285" y="-125.729"/>
      <point x="254.22" y="-92"/>
      <point x="211.942" y="-92" type="curve" smooth="yes"/>
      <point x="193" y="-92"/>
      <point x="175.513" y="-98.7709"/>
      <point x="171" y="-109" type="curve" smooth="yes"/>
      <point x="145.507" y="-166.785"/>
      <point x="124" y="-186.716"/>
      <point x="106.462" y="-186.716" type="curve" smooth="yes"/>
      <point x="90" y="-186.716"/>
      <point x="71" y="-171.967"/>
      <point x="71" y="-111.153" type="curve" smooth="yes"/>
      <point x="71" y="-101.226"/>
      <point x="71.5063" y="-86.4167"/>
      <point x="73.9735" y="-66.6964" type="curve" smooth="yes"/>
      <point x="76.4823" y="-46.6439"/>
      <point x="78" y="-21.4822"/>
      <point x="78" y="0" type="curve" smooth="yes"/>
      <point x="78" y="99.8823" type="line"/>
    </contour>
  </outline>
  <guideline angle="0" x="0" y="100"/>
</glyph>
<glyph name="uni0325" format="2">
  <unicode hex="0325"/>
  <outline>
    <contour>
      <point x="-334" y="-187" type="curve" smooth="yes"/>
      <point x="-334" y="-105"/>
      <point x="-274" y="-76"/>
      <point x="-215" y="-76" type="curve" smooth="yes"/>
      <point x="-156" y="-76"/>
      <point x="-96" y="-105"/>
      <point x="-96" y="-187" type="curve" smooth="yes"/>
      <point x="-96" y="-270"/>
      <point x="-156" y="-298"/>
      <point x="-215" y="-298" type="curve" smooth="yes"/>
      <point x="-274" y="-298"/>
      <point x="-334" y="-270"/>
    </contour>
    <contour>
      <point x="-267" y="-187" type="curve" smooth="yes"/>
      <point x="-267" y="-233"/>
      <point x="-244" y="-257"/>
      <point x="-215" y="-257" type="curve" smooth="yes"/>
      <point x="-187" y="-257"/>
      <point x="-163" y="-233"/>
      <point x="-163" y="-187" type="curve" smooth="yes"/>
      <point x="-163" y="-141"/>
      <point x="-187" y="-117"/>
      <point x="-215" y="-117" type="curve" smooth="yes"/>
      <point x="-244" y="-117"/>
      <point x="-267" y="-141"/>
    </contour>
  </outline>
</glyph>
<glyph name="uni032A" format="2">
  <unicode hex="032A"/>
  <outline>
    <contour>
      <point x="-340" y="-87" type="line"/>
      <point x="-60" y="-87" type="line"/>
      <point x="-60" y="-242" type="line"/>
      <point x="-152" y="-242" type="line"/>
      <point x="-152" y="-174" type="line"/>
      <point x="-248" y="-174" type="line"/>
      <point x="-248" y="-242" type="line"/>
      <point x="-340" y="-242" type="line"/>
    </contour>
  </outline>
</glyph>
<glyph name="uni032B" format="2">
  <unicode hex="032B"/>
  <outline>
    <contour>
      <point x="-147.036" y="-59.9823" type="line"/>
      <point x="-146.954" y="-97.7588" type="line"/>
      <point x="-146.789" y="-174.462"/>
      <point x="-203.928" y="-223.012"/>
      <point x="-289.777" y="-223.012" type="curve" smooth="yes"/>
      <point x="-373.341" y="-223.012"/>
      <point x="-412.17" y="-177.012"/>
      <point x="-426.857" y="-118.232" type="curve"/>
      <point x="-383.273" y="-118.012" type="line"/>
      <point x="-396.073" y="-175.012"/>
      <point x="-425.273" y="-223.012"/>
      <point x="-515.953" y="-223.012" type="curve" smooth="yes"/>
      <point x="-609.618" y="-223.012"/>
      <point x="-659.422" y="-172.492"/>
      <point x="-659.422" y="-97.7589" type="curve" smooth="yes"/>
      <point x="-659.422" y="-59.9823" type="line"/>
      <point x="-567.011" y="-59.9823" type="line"/>
      <point x="-567.011" y="-98.2333" type="line" smooth="yes"/>
      <point x="-567.011" y="-139.793"/>
      <point x="-539.365" y="-161.012"/>
      <point x="-502.301" y="-161.012" type="curve" smooth="yes"/>
      <point x="-465.35" y="-161.012"/>
      <point x="-448.723" y="-139.921"/>
      <point x="-448.717" y="-98.3021" type="curve" smooth="yes"/>
      <point x="-448.711" y="-59.9823" type="line"/>
      <point x="-356.556" y="-59.9823" type="line"/>
      <point x="-356.941" y="-98.4757" type="line" smooth="yes"/>
      <point x="-357.358" y="-140.194"/>
      <point x="-328.082" y="-161.012"/>
      <point x="-296.284" y="-161.012" type="curve" smooth="yes"/>
      <point x="-264.181" y="-161.012"/>
      <point x="-238.906" y="-139.793"/>
      <point x="-238.906" y="-98.2333" type="curve" smooth="yes"/>
      <point x="-238.906" y="-59.9823" type="line"/>
    </contour>
  </outline>
</glyph>
<glyph name="uni032C" format="2">
  <unicode hex="032C"/>
  <outline>
    <contour>
      <point x="-402" y="-102" type="line"/>
      <point x="-378" y="-75" type="line"/>
      <point x="-253" y="-169" type="line" smooth="yes"/>
      <point x="-239" y="-179"/>
      <point x="-225" y="-188"/>
      <point x="-215" y="-188" type="curve" smooth="yes"/>
      <point x="-204" y="-188"/>
      <point x="-191" y="-179"/>
      <point x="-177" y="-169" type="curve" smooth="yes"/>
      <point x="-52" y="-75" type="line"/>
      <point x="-28" y="-102" type="line"/>
      <point x="-171" y="-271" type="line" smooth="yes"/>
      <point x="-186" y="-288"/>
      <point x="-201" y="-302"/>
      <point x="-215" y="-302" type="curve" smooth="yes"/>
      <point x="-229" y="-302"/>
      <point x="-244" y="-289"/>
      <point x="-259" y="-271" type="curve" smooth="yes"/>
    </contour>
  </outline>
</glyph>
<glyph name="uni0331" format="2">
  <unicode hex="0331"/>
  <outline>
    <contour>
      <point x="-370" y="-135" type="line"/>
      <point x="-59" y="-135" type="line"/>
      <point x="-59" y="-222" type="line"/>
      <point x="-370" y="-222" type="line"/>
    </contour>
  </outline>
</glyph>
<glyph name="uni0339" format="2">
  <unicode hex="0339"/>
  <outline>
    <contour>
      <point x="-276.191" y="-329.854" type="curve"/>
      <point x="-276.191" y="-250.854" type="line"/>
      <point x="-230.191" y="-250.854"/>
      <point x="-197.191" y="-226.854"/>
      <point x="-197.191" y="-184.854" type="curve" smooth="yes"/>
      <point x="-197.191" y="-142.854"/>
      <point x="-230.191" y="-118.854"/>
      <point x="-276.191" y="-118.854" type="curve"/>
      <point x="-276.191" y="-39.8538" type="line"/>
      <point x="-166.191" y="-39.8538"/>
      <point x="-111.191" y="-104.854"/>
      <point x="-111.191" y="-184.854" type="curve" smooth="yes"/>
      <point x="-111.191" y="-264.854"/>
      <point x="-166.191" y="-329.854"/>
    </contour>
  </outline>
</glyph>
<glyph name="uni033B" format="2">
  <unicode hex="033B"/>
  <outline>
    <contour>
      <point x="-342" y="-35.25" type="line"/>
      <point x="-58" y="-35.25" type="line"/>
      <point x="-58" y="-293.75" type="line"/>
      <point x="-342" y="-293.75" type="line"/>
    </contour>
    <contour>
      <point x="-250" y="-122" type="line"/>
      <point x="-250" y="-207" type="line"/>
      <point x="-150" y="-207" type="line"/>
      <point x="-150" y="-122" type="line"/>
    </contour>
  </outline>
</glyph>
<glyph name="uni0344" format="2">
  <unicode hex="0344"/>
  <outline>
    <component base="dieresis" xOffset="-465"/>
    <contour>
      <point x="-282.555" y="650.65" type="line"/>
      <point x="-264.592" y="789.155" type="line" smooth="yes"/>
      <point x="-258.257" y="838.003"/>
      <point x="-240.598" y="862.042"/>
      <point x="-197.783" y="861.976" type="curve" smooth="yes"/>
      <point x="-160.393" y="861.919"/>
      <point x="-143.412" y="844.062"/>
      <point x="-143.485" y="818.637" type="curve" smooth="yes"/>
      <point x="-143.524" y="805.017"/>
      <point x="-149.262" y="791.305"/>
      <point x="-165.27" y="766.153" type="curve" smooth="yes"/>
      <point x="-244.057" y="642.354" type="line"/>
    </contour>
  </outline>
</glyph>
<glyph name="uni035D" format="2">
  <unicode hex="035D"/>
  <outline>
    <contour>
      <point x="-370" y="795" type="curve"/>
      <point x="-285" y="795" type="line"/>
      <point x="-262" y="747"/>
      <point x="-224" y="676"/>
      <point x="0" y="676" type="curve" smooth="yes"/>
      <point x="224" y="676"/>
      <point x="262" y="747"/>
      <point x="285" y="795" type="curve"/>
      <point x="370" y="795" type="line"/>
      <point x="356" y="583"/>
      <point x="192" y="546"/>
      <point x="0" y="546" type="curve" smooth="yes"/>
      <point x="-192" y="546"/>
      <point x="-356" y="583"/>
    </contour>
  </outline>
</glyph>
<glyph name="anoteleia" format="2">
  <advance width="265"/>
  <unicode hex="0387"/>
  <outline>
    <contour>
      <point x="38.5" y="251.25" type="curve" smooth="yes"/>
      <point x="38.5" y="307.955"/>
      <point x="77.9244" y="348"/>
      <point x="133.75" y="348" type="curve" smooth="yes"/>
      <point x="189.151" y="348"/>
      <point x="227.5" y="308.424"/>
      <point x="227.5" y="251.25" type="curve" smooth="yes"/>
      <point x="227.5" y="194.538"/>
      <point x="189.569" y="156"/>
      <point x="133.75" y="156" type="curve" smooth="yes"/>
      <point x="77.5" y="156"/>
      <point x="38.5" y="195"/>
    </contour>
  </outline>
</glyph>
<glyph name="uni0394" format="2">
  <advance width="775"/>
  <unicode hex="0394"/>
  <outline>
    <contour>
      <point x="44" y="0" type="line"/>
      <point x="327" y="693" type="line"/>
      <point x="430" y="693" type="line"/>
      <point x="730" y="0" type="line"/>
    </contour>
    <contour>
      <point x="151" y="75" type="line"/>
      <point x="526" y="75" type="line"/>
      <point x="334" y="524" type="line"/>
    </contour>
  </outline>
</glyph>
<glyph name="Theta" format="2">
  <advance width="783"/>
  <unicode hex="0398"/>
  <outline>
    <component base="O" xScale="1.05" xOffset="-17"/>
    <contour>
      <point x="256" y="233" type="line"/>
      <point x="256" y="457" type="line"/>
      <point x="306" y="457" type="line"/>
      <point x="306" y="423"/>
      <point x="310" y="390"/>
      <point x="334" y="390" type="curve" smooth="yes"/>
      <point x="436" y="390" type="line" smooth="yes"/>
      <point x="468" y="390"/>
      <point x="470" y="422"/>
      <point x="470" y="457" type="curve"/>
      <point x="519" y="457" type="line"/>
      <point x="519" y="233" type="line"/>
      <point x="470" y="233" type="line"/>
      <point x="470" y="268"/>
      <point x="470" y="298"/>
      <point x="437" y="298" type="curve" smooth="yes"/>
      <point x="334" y="298" type="line" smooth="yes"/>
      <point x="305" y="298"/>
      <point x="305" y="269"/>
      <point x="305" y="233" type="curve"/>
    </contour>
  </outline>
</glyph>
